<mxfile host="app.diagrams.net" modified="2023-05-21T10:02:43.136Z" agent="Mozilla/5.0 (Windows NT 10.0; Win64; x64) AppleWebKit/537.36 (KHTML, like Gecko) Chrome/113.0.0.0 Safari/537.36 Edg/113.0.1774.50" etag="RjXigFtVcrWDQ5MJNIo3" version="21.3.2" type="github">
  <diagram name="第 1 页" id="ilvAz1zhh9JLAEITOuIW">
    <mxGraphModel dx="5767" dy="807" grid="0" gridSize="10" guides="1" tooltips="1" connect="1" arrows="1" fold="1" page="1" pageScale="1" pageWidth="827" pageHeight="1169" math="0" shadow="0">
      <root>
        <mxCell id="0" />
        <mxCell id="1" parent="0" />
        <mxCell id="wUW49xOCrfoHEJadxzmI-77" value="" style="ellipse;whiteSpace=wrap;html=1;aspect=fixed;" parent="1" vertex="1">
          <mxGeometry x="-2572.5" y="751" width="21" height="21" as="geometry" />
        </mxCell>
        <mxCell id="Bifb5p7YWugffx-eJr69-1" value="" style="rounded=0;whiteSpace=wrap;html=1;" parent="1" vertex="1">
          <mxGeometry x="222" y="104" width="80" height="237" as="geometry" />
        </mxCell>
        <mxCell id="Bifb5p7YWugffx-eJr69-2" value="Text" style="text;html=1;strokeColor=none;fillColor=none;align=center;verticalAlign=middle;whiteSpace=wrap;rounded=0;" parent="1" vertex="1">
          <mxGeometry x="67" y="6" width="60" height="30" as="geometry" />
        </mxCell>
        <mxCell id="Bifb5p7YWugffx-eJr69-3" value="基于微服务架构的股票分析管理系统" style="text;html=1;strokeColor=none;fillColor=none;align=center;verticalAlign=middle;whiteSpace=wrap;rounded=0;" parent="1" vertex="1">
          <mxGeometry x="250" y="143" width="17" height="164" as="geometry" />
        </mxCell>
        <mxCell id="Bifb5p7YWugffx-eJr69-5" value="" style="line;strokeWidth=1;rotatable=0;dashed=0;labelPosition=right;align=left;verticalAlign=middle;spacingTop=0;spacingLeft=6;points=[];portConstraint=eastwest;" parent="1" vertex="1">
          <mxGeometry x="302" y="217.5" width="60" height="10" as="geometry" />
        </mxCell>
        <mxCell id="Bifb5p7YWugffx-eJr69-15" value="Division" style="whiteSpace=wrap;html=1;align=center;verticalAlign=middle;treeFolding=1;treeMoving=1;newEdgeStyle={&quot;edgeStyle&quot;:&quot;elbowEdgeStyle&quot;,&quot;startArrow&quot;:&quot;none&quot;,&quot;endArrow&quot;:&quot;none&quot;};" parent="1" vertex="1">
          <mxGeometry x="244" y="441" width="100" height="60" as="geometry" />
        </mxCell>
        <mxCell id="Bifb5p7YWugffx-eJr69-16" value="" style="edgeStyle=elbowEdgeStyle;elbow=vertical;sourcePerimeterSpacing=0;targetPerimeterSpacing=0;startArrow=none;endArrow=none;rounded=0;curved=0;" parent="1" target="Bifb5p7YWugffx-eJr69-15" edge="1">
          <mxGeometry relative="1" as="geometry">
            <mxPoint x="404" y="349" as="sourcePoint" />
          </mxGeometry>
        </mxCell>
        <mxCell id="Bifb5p7YWugffx-eJr69-19" style="edgeStyle=elbowEdgeStyle;rounded=0;orthogonalLoop=1;jettySize=auto;html=1;startArrow=none;endArrow=none;exitX=1;exitY=0.5;exitDx=0;exitDy=0;entryX=0;entryY=0.5;entryDx=0;entryDy=0;" parent="1" source="Bifb5p7YWugffx-eJr69-17" target="Bifb5p7YWugffx-eJr69-18" edge="1">
          <mxGeometry relative="1" as="geometry" />
        </mxCell>
        <UserObject label="Organization" treeRoot="1" id="Bifb5p7YWugffx-eJr69-17">
          <mxCell style="whiteSpace=wrap;html=1;align=center;treeFolding=1;treeMoving=1;newEdgeStyle={&quot;edgeStyle&quot;:&quot;elbowEdgeStyle&quot;,&quot;startArrow&quot;:&quot;none&quot;,&quot;endArrow&quot;:&quot;none&quot;};" parent="1" vertex="1">
            <mxGeometry x="238" y="559" width="120" height="60" as="geometry" />
          </mxCell>
        </UserObject>
        <UserObject label="Organization" treeRoot="1" id="Bifb5p7YWugffx-eJr69-18">
          <mxCell style="whiteSpace=wrap;html=1;align=center;treeFolding=1;treeMoving=1;newEdgeStyle={&quot;edgeStyle&quot;:&quot;elbowEdgeStyle&quot;,&quot;startArrow&quot;:&quot;none&quot;,&quot;endArrow&quot;:&quot;none&quot;};" parent="1" vertex="1">
            <mxGeometry x="592" y="559" width="120" height="60" as="geometry" />
          </mxCell>
        </UserObject>
        <mxCell id="Bifb5p7YWugffx-eJr69-20" value="Orgchart" style="swimlane;startSize=20;horizontal=1;containerType=tree;newEdgeStyle={&quot;edgeStyle&quot;:&quot;elbowEdgeStyle&quot;,&quot;startArrow&quot;:&quot;none&quot;,&quot;endArrow&quot;:&quot;none&quot;};movable=1;resizable=1;rotatable=1;deletable=1;editable=1;locked=0;connectable=1;rotation=-90;" parent="1" vertex="1">
          <mxGeometry x="244.75" y="554.25" width="280" height="435.5" as="geometry">
            <mxRectangle x="162" y="662" width="86" height="26" as="alternateBounds" />
          </mxGeometry>
        </mxCell>
        <mxCell id="Bifb5p7YWugffx-eJr69-21" value="" style="edgeStyle=elbowEdgeStyle;elbow=vertical;sourcePerimeterSpacing=0;targetPerimeterSpacing=0;startArrow=none;endArrow=none;rounded=0;curved=0;" parent="Bifb5p7YWugffx-eJr69-20" source="Bifb5p7YWugffx-eJr69-23" target="Bifb5p7YWugffx-eJr69-24" edge="1">
          <mxGeometry relative="1" as="geometry" />
        </mxCell>
        <mxCell id="Bifb5p7YWugffx-eJr69-22" value="" style="edgeStyle=elbowEdgeStyle;elbow=vertical;sourcePerimeterSpacing=0;targetPerimeterSpacing=0;startArrow=none;endArrow=none;rounded=0;curved=0;" parent="Bifb5p7YWugffx-eJr69-20" source="Bifb5p7YWugffx-eJr69-23" target="Bifb5p7YWugffx-eJr69-25" edge="1">
          <mxGeometry relative="1" as="geometry" />
        </mxCell>
        <UserObject label="Organization" treeRoot="1" id="Bifb5p7YWugffx-eJr69-23">
          <mxCell style="whiteSpace=wrap;html=1;align=center;treeFolding=1;treeMoving=1;newEdgeStyle={&quot;edgeStyle&quot;:&quot;elbowEdgeStyle&quot;,&quot;startArrow&quot;:&quot;none&quot;,&quot;endArrow&quot;:&quot;none&quot;};rotation=-90;" parent="Bifb5p7YWugffx-eJr69-20" vertex="1">
            <mxGeometry x="-72" y="187" width="120" height="60" as="geometry" />
          </mxCell>
        </UserObject>
        <mxCell id="Bifb5p7YWugffx-eJr69-24" value="Division" style="whiteSpace=wrap;html=1;align=center;verticalAlign=middle;treeFolding=1;treeMoving=1;newEdgeStyle={&quot;edgeStyle&quot;:&quot;elbowEdgeStyle&quot;,&quot;startArrow&quot;:&quot;none&quot;,&quot;endArrow&quot;:&quot;none&quot;};rotation=-90;" parent="Bifb5p7YWugffx-eJr69-20" vertex="1" collapsed="1">
          <mxGeometry x="43" y="257" width="100" height="60" as="geometry" />
        </mxCell>
        <mxCell id="Bifb5p7YWugffx-eJr69-25" value="Division" style="whiteSpace=wrap;html=1;align=center;verticalAlign=middle;treeFolding=1;treeMoving=1;newEdgeStyle={&quot;edgeStyle&quot;:&quot;elbowEdgeStyle&quot;,&quot;startArrow&quot;:&quot;none&quot;,&quot;endArrow&quot;:&quot;none&quot;};rotation=-90;" parent="Bifb5p7YWugffx-eJr69-20" vertex="1">
          <mxGeometry x="36.25" y="130.75" width="100" height="60" as="geometry" />
        </mxCell>
        <mxCell id="Bifb5p7YWugffx-eJr69-28" style="edgeStyle=elbowEdgeStyle;rounded=0;orthogonalLoop=1;jettySize=auto;html=1;startArrow=none;endArrow=none;exitX=0.5;exitY=0;exitDx=0;exitDy=0;" parent="1" source="Bifb5p7YWugffx-eJr69-26" edge="1">
          <mxGeometry relative="1" as="geometry">
            <mxPoint x="423.16666666666674" y="1062.1664225260417" as="targetPoint" />
            <Array as="points">
              <mxPoint x="366" y="1150" />
            </Array>
          </mxGeometry>
        </mxCell>
        <mxCell id="Bifb5p7YWugffx-eJr69-30" style="edgeStyle=elbowEdgeStyle;rounded=0;orthogonalLoop=1;jettySize=auto;html=1;startArrow=none;endArrow=none;exitX=0.25;exitY=0;exitDx=0;exitDy=0;" parent="1" source="Bifb5p7YWugffx-eJr69-26" edge="1">
          <mxGeometry relative="1" as="geometry">
            <mxPoint x="308.16666666666674" y="1104.5" as="targetPoint" />
          </mxGeometry>
        </mxCell>
        <mxCell id="Bifb5p7YWugffx-eJr69-31" style="edgeStyle=elbowEdgeStyle;rounded=0;orthogonalLoop=1;jettySize=auto;html=1;startArrow=none;endArrow=none;exitX=0.5;exitY=0;exitDx=0;exitDy=0;" parent="1" source="Bifb5p7YWugffx-eJr69-26" edge="1">
          <mxGeometry relative="1" as="geometry">
            <mxPoint x="423.16666666666674" y="1280.3333333333335" as="targetPoint" />
          </mxGeometry>
        </mxCell>
        <mxCell id="Bifb5p7YWugffx-eJr69-32" style="edgeStyle=elbowEdgeStyle;rounded=0;orthogonalLoop=1;jettySize=auto;html=1;startArrow=none;endArrow=none;exitX=0.5;exitY=0;exitDx=0;exitDy=0;" parent="1" source="Bifb5p7YWugffx-eJr69-26" edge="1">
          <mxGeometry relative="1" as="geometry">
            <mxPoint x="413.16666666666674" y="1121.1666666666667" as="targetPoint" />
          </mxGeometry>
        </mxCell>
        <mxCell id="Bifb5p7YWugffx-eJr69-42" value="" style="edgeStyle=elbowEdgeStyle;rounded=0;orthogonalLoop=1;jettySize=auto;html=1;elbow=horizontal;startArrow=none;endArrow=none;" parent="1" source="Bifb5p7YWugffx-eJr69-26" target="Bifb5p7YWugffx-eJr69-41" edge="1">
          <mxGeometry relative="1" as="geometry" />
        </mxCell>
        <mxCell id="Bifb5p7YWugffx-eJr69-43" value="" style="edgeStyle=elbowEdgeStyle;rounded=0;orthogonalLoop=1;jettySize=auto;html=1;elbow=horizontal;startArrow=none;endArrow=none;" parent="1" source="Bifb5p7YWugffx-eJr69-26" target="Bifb5p7YWugffx-eJr69-41" edge="1">
          <mxGeometry relative="1" as="geometry" />
        </mxCell>
        <mxCell id="Bifb5p7YWugffx-eJr69-26" value="Division" style="whiteSpace=wrap;html=1;align=center;verticalAlign=middle;treeFolding=1;treeMoving=1;newEdgeStyle={&quot;edgeStyle&quot;:&quot;elbowEdgeStyle&quot;,&quot;startArrow&quot;:&quot;none&quot;,&quot;endArrow&quot;:&quot;none&quot;};rotation=90;" parent="1" vertex="1">
          <mxGeometry x="234.54" y="1095.48" width="95" height="52" as="geometry" />
        </mxCell>
        <mxCell id="Bifb5p7YWugffx-eJr69-38" style="edgeStyle=orthogonalEdgeStyle;rounded=0;orthogonalLoop=1;jettySize=auto;html=1;exitX=0.5;exitY=0;exitDx=0;exitDy=0;" parent="1" source="Bifb5p7YWugffx-eJr69-33" edge="1">
          <mxGeometry relative="1" as="geometry">
            <mxPoint x="567" y="1897" as="targetPoint" />
            <Array as="points">
              <mxPoint x="538" y="2081" />
              <mxPoint x="538" y="1897" />
            </Array>
          </mxGeometry>
        </mxCell>
        <mxCell id="Bifb5p7YWugffx-eJr69-33" value="" style="rounded=1;whiteSpace=wrap;html=1;rotation=90;" parent="1" vertex="1">
          <mxGeometry x="373" y="2052" width="180" height="58" as="geometry" />
        </mxCell>
        <mxCell id="Bifb5p7YWugffx-eJr69-36" value="基于微服务架构的股票分析管理系统" style="text;html=1;strokeColor=none;fillColor=none;align=center;verticalAlign=middle;whiteSpace=wrap;rounded=0;" parent="1" vertex="1">
          <mxGeometry x="446.5" y="2020" width="35" height="118" as="geometry" />
        </mxCell>
        <mxCell id="Bifb5p7YWugffx-eJr69-45" value="" style="edgeStyle=orthogonalEdgeStyle;rounded=0;orthogonalLoop=1;jettySize=auto;html=1;" parent="1" source="Bifb5p7YWugffx-eJr69-41" target="Bifb5p7YWugffx-eJr69-44" edge="1">
          <mxGeometry relative="1" as="geometry" />
        </mxCell>
        <mxCell id="Bifb5p7YWugffx-eJr69-41" value="" style="whiteSpace=wrap;html=1;" parent="1" vertex="1">
          <mxGeometry x="47.03999999999999" y="1091.48" width="120" height="60" as="geometry" />
        </mxCell>
        <mxCell id="Bifb5p7YWugffx-eJr69-44" value="" style="whiteSpace=wrap;html=1;" parent="1" vertex="1">
          <mxGeometry x="47.03999999999999" y="1231.48" width="120" height="60" as="geometry" />
        </mxCell>
        <mxCell id="Bifb5p7YWugffx-eJr69-48" value="" style="edgeStyle=orthogonalEdgeStyle;rounded=0;orthogonalLoop=1;jettySize=auto;html=1;" parent="1" source="Bifb5p7YWugffx-eJr69-46" target="Bifb5p7YWugffx-eJr69-47" edge="1">
          <mxGeometry relative="1" as="geometry" />
        </mxCell>
        <mxCell id="Bifb5p7YWugffx-eJr69-49" value="" style="edgeStyle=orthogonalEdgeStyle;rounded=0;orthogonalLoop=1;jettySize=auto;html=1;" parent="1" source="Bifb5p7YWugffx-eJr69-46" target="Bifb5p7YWugffx-eJr69-47" edge="1">
          <mxGeometry relative="1" as="geometry" />
        </mxCell>
        <mxCell id="Bifb5p7YWugffx-eJr69-46" value="" style="whiteSpace=wrap;html=1;" parent="1" vertex="1">
          <mxGeometry x="153.04" y="2169.48" width="120" height="60" as="geometry" />
        </mxCell>
        <mxCell id="Bifb5p7YWugffx-eJr69-47" value="" style="whiteSpace=wrap;html=1;" parent="1" vertex="1">
          <mxGeometry x="353.03999999999996" y="2169.48" width="120" height="60" as="geometry" />
        </mxCell>
        <mxCell id="Bifb5p7YWugffx-eJr69-52" value="" style="edgeStyle=orthogonalEdgeStyle;rounded=0;orthogonalLoop=1;jettySize=auto;html=1;" parent="1" source="Bifb5p7YWugffx-eJr69-50" target="Bifb5p7YWugffx-eJr69-51" edge="1">
          <mxGeometry relative="1" as="geometry" />
        </mxCell>
        <mxCell id="Bifb5p7YWugffx-eJr69-50" value="" style="strokeWidth=2;html=1;shape=mxgraph.flowchart.annotation_2;align=left;labelPosition=right;pointerEvents=1;" parent="1" vertex="1">
          <mxGeometry x="617" y="2176" width="50" height="100" as="geometry" />
        </mxCell>
        <mxCell id="Bifb5p7YWugffx-eJr69-51" value="" style="strokeWidth=2;html=1;shape=mxgraph.flowchart.annotation_2;align=left;labelPosition=right;pointerEvents=1;" parent="1" vertex="1">
          <mxGeometry x="617" y="1996" width="50" height="100" as="geometry" />
        </mxCell>
        <mxCell id="Bifb5p7YWugffx-eJr69-53" value="" style="strokeWidth=2;html=1;shape=mxgraph.flowchart.annotation_1;align=left;pointerEvents=1;" parent="1" vertex="1">
          <mxGeometry x="222" y="1838" width="50" height="172" as="geometry" />
        </mxCell>
        <mxCell id="Bifb5p7YWugffx-eJr69-54" value="" style="shape=singleArrow;whiteSpace=wrap;html=1;arrowWidth=0.4;arrowSize=0.4;align=left;strokeWidth=2;" parent="1" vertex="1">
          <mxGeometry x="512" y="1831" width="80" height="60" as="geometry" />
        </mxCell>
        <mxCell id="Bifb5p7YWugffx-eJr69-55" value="" style="strokeWidth=2;html=1;shape=mxgraph.flowchart.annotation_1;align=left;pointerEvents=1;" parent="1" vertex="1">
          <mxGeometry x="294" y="3654" width="50" height="172" as="geometry" />
        </mxCell>
        <mxCell id="Bifb5p7YWugffx-eJr69-56" value="Division" style="whiteSpace=wrap;html=1;align=center;verticalAlign=middle;treeFolding=1;treeMoving=1;newEdgeStyle={&quot;edgeStyle&quot;:&quot;elbowEdgeStyle&quot;,&quot;startArrow&quot;:&quot;none&quot;,&quot;endArrow&quot;:&quot;none&quot;};" parent="1" vertex="1">
          <mxGeometry x="556" y="2943" width="100" height="60" as="geometry" />
        </mxCell>
        <mxCell id="Bifb5p7YWugffx-eJr69-58" value="Orgchart" style="swimlane;startSize=20;horizontal=1;containerType=tree;newEdgeStyle={&quot;edgeStyle&quot;:&quot;elbowEdgeStyle&quot;,&quot;startArrow&quot;:&quot;none&quot;,&quot;endArrow&quot;:&quot;none&quot;};rotation=0;" parent="1" vertex="1">
          <mxGeometry x="-112" y="3071" width="762" height="220" as="geometry" />
        </mxCell>
        <mxCell id="Bifb5p7YWugffx-eJr69-59" value="" style="edgeStyle=elbowEdgeStyle;elbow=vertical;sourcePerimeterSpacing=0;targetPerimeterSpacing=0;startArrow=none;endArrow=none;rounded=0;curved=0;" parent="Bifb5p7YWugffx-eJr69-58" source="Bifb5p7YWugffx-eJr69-61" target="Bifb5p7YWugffx-eJr69-62" edge="1">
          <mxGeometry relative="1" as="geometry" />
        </mxCell>
        <mxCell id="Bifb5p7YWugffx-eJr69-60" value="" style="edgeStyle=elbowEdgeStyle;elbow=vertical;sourcePerimeterSpacing=0;targetPerimeterSpacing=0;startArrow=none;endArrow=none;rounded=0;curved=0;" parent="Bifb5p7YWugffx-eJr69-58" source="Bifb5p7YWugffx-eJr69-61" target="Bifb5p7YWugffx-eJr69-63" edge="1">
          <mxGeometry relative="1" as="geometry" />
        </mxCell>
        <UserObject label="Organization" treeRoot="1" id="Bifb5p7YWugffx-eJr69-61">
          <mxCell style="whiteSpace=wrap;html=1;align=center;treeFolding=1;treeMoving=1;newEdgeStyle={&quot;edgeStyle&quot;:&quot;elbowEdgeStyle&quot;,&quot;startArrow&quot;:&quot;none&quot;,&quot;endArrow&quot;:&quot;none&quot;};rotation=0;" parent="Bifb5p7YWugffx-eJr69-58" vertex="1">
            <mxGeometry x="150" y="28" width="120" height="60" as="geometry" />
          </mxCell>
        </UserObject>
        <mxCell id="Bifb5p7YWugffx-eJr69-62" value="Division" style="whiteSpace=wrap;html=1;align=center;verticalAlign=middle;treeFolding=1;treeMoving=1;newEdgeStyle={&quot;edgeStyle&quot;:&quot;elbowEdgeStyle&quot;,&quot;startArrow&quot;:&quot;none&quot;,&quot;endArrow&quot;:&quot;none&quot;};rotation=0;" parent="Bifb5p7YWugffx-eJr69-58" vertex="1">
          <mxGeometry x="20" y="140" width="100" height="60" as="geometry" />
        </mxCell>
        <mxCell id="Bifb5p7YWugffx-eJr69-63" value="Division" style="whiteSpace=wrap;html=1;align=center;verticalAlign=middle;treeFolding=1;treeMoving=1;newEdgeStyle={&quot;edgeStyle&quot;:&quot;elbowEdgeStyle&quot;,&quot;startArrow&quot;:&quot;none&quot;,&quot;endArrow&quot;:&quot;none&quot;};rotation=0;" parent="Bifb5p7YWugffx-eJr69-58" vertex="1">
          <mxGeometry x="160" y="140" width="100" height="60" as="geometry" />
        </mxCell>
        <mxCell id="Bifb5p7YWugffx-eJr69-64" value="" style="edgeStyle=elbowEdgeStyle;elbow=vertical;sourcePerimeterSpacing=0;targetPerimeterSpacing=0;startArrow=none;endArrow=none;rounded=0;curved=0;" parent="Bifb5p7YWugffx-eJr69-58" source="Bifb5p7YWugffx-eJr69-61" target="Bifb5p7YWugffx-eJr69-65" edge="1">
          <mxGeometry relative="1" as="geometry">
            <mxPoint x="200" y="3171" as="sourcePoint" />
          </mxGeometry>
        </mxCell>
        <mxCell id="Bifb5p7YWugffx-eJr69-65" value="Division" style="whiteSpace=wrap;html=1;align=center;verticalAlign=middle;treeFolding=1;treeMoving=1;newEdgeStyle={&quot;edgeStyle&quot;:&quot;elbowEdgeStyle&quot;,&quot;startArrow&quot;:&quot;none&quot;,&quot;endArrow&quot;:&quot;none&quot;};rotation=0;" parent="Bifb5p7YWugffx-eJr69-58" vertex="1">
          <mxGeometry x="270" y="140" width="100" height="60" as="geometry" />
        </mxCell>
        <mxCell id="Bifb5p7YWugffx-eJr69-67" value="" style="edgeStyle=elbowEdgeStyle;elbow=vertical;sourcePerimeterSpacing=0;targetPerimeterSpacing=0;startArrow=none;endArrow=none;rounded=0;curved=0;" parent="Bifb5p7YWugffx-eJr69-58" source="Bifb5p7YWugffx-eJr69-61" target="Bifb5p7YWugffx-eJr69-68" edge="1">
          <mxGeometry relative="1" as="geometry">
            <mxPoint x="270" y="3159" as="sourcePoint" />
          </mxGeometry>
        </mxCell>
        <mxCell id="Bifb5p7YWugffx-eJr69-68" value="Division" style="whiteSpace=wrap;html=1;align=center;verticalAlign=middle;treeFolding=1;treeMoving=1;newEdgeStyle={&quot;edgeStyle&quot;:&quot;elbowEdgeStyle&quot;,&quot;startArrow&quot;:&quot;none&quot;,&quot;endArrow&quot;:&quot;none&quot;};rotation=0;" parent="Bifb5p7YWugffx-eJr69-58" vertex="1">
          <mxGeometry x="380" y="140" width="100" height="60" as="geometry" />
        </mxCell>
        <mxCell id="Bifb5p7YWugffx-eJr69-69" value="" style="edgeStyle=elbowEdgeStyle;elbow=vertical;sourcePerimeterSpacing=0;targetPerimeterSpacing=0;startArrow=none;endArrow=none;rounded=0;curved=0;" parent="Bifb5p7YWugffx-eJr69-58" source="Bifb5p7YWugffx-eJr69-61" target="Bifb5p7YWugffx-eJr69-70" edge="1">
          <mxGeometry relative="1" as="geometry">
            <mxPoint x="270" y="3159" as="sourcePoint" />
          </mxGeometry>
        </mxCell>
        <mxCell id="Bifb5p7YWugffx-eJr69-70" value="Division" style="whiteSpace=wrap;html=1;align=center;verticalAlign=middle;treeFolding=1;treeMoving=1;newEdgeStyle={&quot;edgeStyle&quot;:&quot;elbowEdgeStyle&quot;,&quot;startArrow&quot;:&quot;none&quot;,&quot;endArrow&quot;:&quot;none&quot;};rotation=0;" parent="Bifb5p7YWugffx-eJr69-58" vertex="1">
          <mxGeometry x="490" y="140" width="100" height="60" as="geometry" />
        </mxCell>
        <mxCell id="Bifb5p7YWugffx-eJr69-73" value="" style="edgeStyle=orthogonalEdgeStyle;rounded=0;orthogonalLoop=1;jettySize=auto;html=1;" parent="1" source="Bifb5p7YWugffx-eJr69-71" target="Bifb5p7YWugffx-eJr69-72" edge="1">
          <mxGeometry relative="1" as="geometry" />
        </mxCell>
        <mxCell id="Bifb5p7YWugffx-eJr69-71" value="" style="verticalLabelPosition=bottom;verticalAlign=top;html=1;shape=mxgraph.basic.rect;fillColor2=none;strokeWidth=1;size=20;indent=5;" parent="1" vertex="1">
          <mxGeometry x="105" y="3409" width="120" height="60" as="geometry" />
        </mxCell>
        <mxCell id="Bifb5p7YWugffx-eJr69-72" value="" style="verticalLabelPosition=bottom;verticalAlign=top;html=1;shape=mxgraph.basic.rect;fillColor2=none;strokeWidth=1;size=20;indent=5;" parent="1" vertex="1">
          <mxGeometry x="305" y="3409" width="120" height="60" as="geometry" />
        </mxCell>
        <mxCell id="Bifb5p7YWugffx-eJr69-74" value="" style="verticalLabelPosition=bottom;verticalAlign=top;html=1;shape=mxgraph.basic.rect;fillColor2=none;strokeWidth=1;size=20;indent=5;" parent="1" vertex="1">
          <mxGeometry x="667" y="6784" width="120" height="60" as="geometry" />
        </mxCell>
        <mxCell id="Bifb5p7YWugffx-eJr69-77" value="" style="edgeStyle=orthogonalEdgeStyle;rounded=0;orthogonalLoop=1;jettySize=auto;html=1;" parent="1" source="Bifb5p7YWugffx-eJr69-75" target="Bifb5p7YWugffx-eJr69-76" edge="1">
          <mxGeometry relative="1" as="geometry" />
        </mxCell>
        <mxCell id="Bifb5p7YWugffx-eJr69-75" value="List Item" style="text;strokeColor=none;fillColor=none;align=left;verticalAlign=top;spacingLeft=4;spacingRight=4;overflow=hidden;rotatable=0;points=[[0,0.5],[1,0.5]];portConstraint=eastwest;whiteSpace=wrap;html=1;" parent="1" vertex="1">
          <mxGeometry x="-1157" y="6621" width="60" height="26" as="geometry" />
        </mxCell>
        <mxCell id="Bifb5p7YWugffx-eJr69-76" value="" style="whiteSpace=wrap;html=1;" parent="1" vertex="1">
          <mxGeometry x="-1047" y="6604" width="120" height="60" as="geometry" />
        </mxCell>
        <mxCell id="Bifb5p7YWugffx-eJr69-82" value="" style="edgeStyle=elbowEdgeStyle;rounded=0;orthogonalLoop=1;jettySize=auto;html=1;elbow=horizontal;startArrow=none;endArrow=none;" parent="1" source="Bifb5p7YWugffx-eJr69-80" target="Bifb5p7YWugffx-eJr69-81" edge="1">
          <mxGeometry relative="1" as="geometry" />
        </mxCell>
        <UserObject label="Organization" treeRoot="1" id="Bifb5p7YWugffx-eJr69-80">
          <mxCell style="whiteSpace=wrap;html=1;align=center;treeFolding=1;treeMoving=1;newEdgeStyle={&quot;edgeStyle&quot;:&quot;elbowEdgeStyle&quot;,&quot;startArrow&quot;:&quot;none&quot;,&quot;endArrow&quot;:&quot;none&quot;};" parent="1" vertex="1">
            <mxGeometry x="-1419" y="6577" width="120" height="60" as="geometry" />
          </mxCell>
        </UserObject>
        <mxCell id="Bifb5p7YWugffx-eJr69-84" value="" style="edgeStyle=orthogonalEdgeStyle;rounded=0;orthogonalLoop=1;jettySize=auto;html=1;" parent="1" source="Bifb5p7YWugffx-eJr69-81" target="Bifb5p7YWugffx-eJr69-83" edge="1">
          <mxGeometry relative="1" as="geometry" />
        </mxCell>
        <mxCell id="Bifb5p7YWugffx-eJr69-81" value="" style="whiteSpace=wrap;html=1;" parent="1" vertex="1">
          <mxGeometry x="-1219" y="6577" width="120" height="60" as="geometry" />
        </mxCell>
        <mxCell id="Bifb5p7YWugffx-eJr69-83" value="" style="whiteSpace=wrap;html=1;" parent="1" vertex="1">
          <mxGeometry x="-1219" y="6437" width="120" height="60" as="geometry" />
        </mxCell>
        <mxCell id="Bifb5p7YWugffx-eJr69-108" value="Orgchart" style="swimlane;startSize=20;horizontal=1;containerType=tree;newEdgeStyle={&quot;edgeStyle&quot;:&quot;elbowEdgeStyle&quot;,&quot;startArrow&quot;:&quot;none&quot;,&quot;endArrow&quot;:&quot;none&quot;};rotation=-90;" parent="1" vertex="1">
          <mxGeometry x="-2301" y="301" width="508" height="356" as="geometry" />
        </mxCell>
        <mxCell id="Bifb5p7YWugffx-eJr69-109" value="" style="edgeStyle=elbowEdgeStyle;elbow=vertical;sourcePerimeterSpacing=0;targetPerimeterSpacing=0;startArrow=none;endArrow=none;rounded=0;curved=0;" parent="Bifb5p7YWugffx-eJr69-108" source="Bifb5p7YWugffx-eJr69-111" target="Bifb5p7YWugffx-eJr69-112" edge="1">
          <mxGeometry relative="1" as="geometry" />
        </mxCell>
        <mxCell id="Bifb5p7YWugffx-eJr69-110" value="" style="edgeStyle=elbowEdgeStyle;elbow=vertical;sourcePerimeterSpacing=0;targetPerimeterSpacing=0;startArrow=none;endArrow=none;rounded=0;curved=0;" parent="Bifb5p7YWugffx-eJr69-108" source="Bifb5p7YWugffx-eJr69-111" target="Bifb5p7YWugffx-eJr69-113" edge="1">
          <mxGeometry relative="1" as="geometry" />
        </mxCell>
        <UserObject label="Organization" treeRoot="1" id="Bifb5p7YWugffx-eJr69-111">
          <mxCell style="whiteSpace=wrap;html=1;align=center;treeFolding=1;treeMoving=1;newEdgeStyle={&quot;edgeStyle&quot;:&quot;elbowEdgeStyle&quot;,&quot;startArrow&quot;:&quot;none&quot;,&quot;endArrow&quot;:&quot;none&quot;};rotation=-90;" parent="Bifb5p7YWugffx-eJr69-108" vertex="1">
            <mxGeometry x="36" y="212" width="120" height="60" as="geometry" />
          </mxCell>
        </UserObject>
        <mxCell id="Bifb5p7YWugffx-eJr69-112" value="Division" style="whiteSpace=wrap;html=1;align=center;verticalAlign=middle;treeFolding=1;treeMoving=1;newEdgeStyle={&quot;edgeStyle&quot;:&quot;elbowEdgeStyle&quot;,&quot;startArrow&quot;:&quot;none&quot;,&quot;endArrow&quot;:&quot;none&quot;};rotation=-90;" parent="Bifb5p7YWugffx-eJr69-108" vertex="1">
          <mxGeometry x="146" y="282" width="100" height="60" as="geometry" />
        </mxCell>
        <mxCell id="Bifb5p7YWugffx-eJr69-113" value="Division" style="whiteSpace=wrap;html=1;align=center;verticalAlign=middle;treeFolding=1;treeMoving=1;newEdgeStyle={&quot;edgeStyle&quot;:&quot;elbowEdgeStyle&quot;,&quot;startArrow&quot;:&quot;none&quot;,&quot;endArrow&quot;:&quot;none&quot;};rotation=-90;" parent="Bifb5p7YWugffx-eJr69-108" vertex="1">
          <mxGeometry x="269" y="212" width="100" height="60" as="geometry" />
        </mxCell>
        <mxCell id="Bifb5p7YWugffx-eJr69-114" value="" style="edgeStyle=elbowEdgeStyle;rounded=0;orthogonalLoop=1;jettySize=auto;html=1;elbow=horizontal;startArrow=none;endArrow=none;" parent="Bifb5p7YWugffx-eJr69-108" source="Bifb5p7YWugffx-eJr69-111" target="Bifb5p7YWugffx-eJr69-115" edge="1">
          <mxGeometry relative="1" as="geometry" />
        </mxCell>
        <UserObject label="Organization" treeRoot="1" id="Bifb5p7YWugffx-eJr69-115">
          <mxCell style="whiteSpace=wrap;html=1;align=center;treeFolding=1;treeMoving=1;newEdgeStyle={&quot;edgeStyle&quot;:&quot;elbowEdgeStyle&quot;,&quot;startArrow&quot;:&quot;none&quot;,&quot;endArrow&quot;:&quot;none&quot;};rotation=-90;" parent="Bifb5p7YWugffx-eJr69-108" vertex="1">
            <mxGeometry x="259" y="48" width="120" height="60" as="geometry" />
          </mxCell>
        </UserObject>
        <mxCell id="Bifb5p7YWugffx-eJr69-116" value="Orgchart" style="swimlane;startSize=20;horizontal=1;containerType=tree;newEdgeStyle={&quot;edgeStyle&quot;:&quot;elbowEdgeStyle&quot;,&quot;startArrow&quot;:&quot;none&quot;,&quot;endArrow&quot;:&quot;none&quot;};movable=1;resizable=1;rotatable=1;deletable=1;editable=1;locked=0;connectable=1;" parent="1" vertex="1">
          <mxGeometry x="-2488" y="357.75" width="1279" height="570" as="geometry" />
        </mxCell>
        <mxCell id="Bifb5p7YWugffx-eJr69-117" value="" style="edgeStyle=elbowEdgeStyle;elbow=vertical;sourcePerimeterSpacing=0;targetPerimeterSpacing=0;startArrow=none;endArrow=none;rounded=0;curved=0;movable=0;resizable=0;rotatable=0;deletable=0;editable=0;locked=1;connectable=0;" parent="Bifb5p7YWugffx-eJr69-116" source="Bifb5p7YWugffx-eJr69-119" target="Bifb5p7YWugffx-eJr69-120" edge="1">
          <mxGeometry relative="1" as="geometry" />
        </mxCell>
        <mxCell id="Bifb5p7YWugffx-eJr69-118" value="" style="edgeStyle=elbowEdgeStyle;elbow=vertical;sourcePerimeterSpacing=0;targetPerimeterSpacing=0;startArrow=none;endArrow=none;rounded=0;curved=0;movable=0;resizable=0;rotatable=0;deletable=0;editable=0;locked=1;connectable=0;" parent="Bifb5p7YWugffx-eJr69-116" source="Bifb5p7YWugffx-eJr69-119" target="Bifb5p7YWugffx-eJr69-121" edge="1">
          <mxGeometry relative="1" as="geometry" />
        </mxCell>
        <UserObject label="" treeRoot="1" id="Bifb5p7YWugffx-eJr69-119">
          <mxCell style="whiteSpace=wrap;html=1;align=center;treeFolding=1;treeMoving=1;newEdgeStyle={&quot;edgeStyle&quot;:&quot;elbowEdgeStyle&quot;,&quot;startArrow&quot;:&quot;none&quot;,&quot;endArrow&quot;:&quot;none&quot;};movable=0;resizable=0;rotatable=0;deletable=0;editable=0;locked=1;connectable=0;" parent="Bifb5p7YWugffx-eJr69-116" vertex="1">
            <mxGeometry x="613" y="160" width="143" height="60" as="geometry" />
          </mxCell>
        </UserObject>
        <mxCell id="Bifb5p7YWugffx-eJr69-120" value="用户服务" style="whiteSpace=wrap;html=1;align=center;verticalAlign=middle;treeFolding=1;treeMoving=1;newEdgeStyle={&quot;edgeStyle&quot;:&quot;elbowEdgeStyle&quot;,&quot;startArrow&quot;:&quot;none&quot;,&quot;endArrow&quot;:&quot;none&quot;};movable=0;resizable=0;rotatable=0;deletable=0;editable=0;locked=1;connectable=0;" parent="Bifb5p7YWugffx-eJr69-116" vertex="1">
          <mxGeometry x="308" y="268" width="100" height="60" as="geometry" />
        </mxCell>
        <mxCell id="Bifb5p7YWugffx-eJr69-121" value="股票数据服务" style="whiteSpace=wrap;html=1;align=center;verticalAlign=middle;treeFolding=1;treeMoving=1;newEdgeStyle={&quot;edgeStyle&quot;:&quot;elbowEdgeStyle&quot;,&quot;startArrow&quot;:&quot;none&quot;,&quot;endArrow&quot;:&quot;none&quot;};movable=0;resizable=0;rotatable=0;deletable=0;editable=0;locked=1;connectable=0;" parent="Bifb5p7YWugffx-eJr69-116" vertex="1">
          <mxGeometry x="577" y="268" width="100" height="60" as="geometry" />
        </mxCell>
        <mxCell id="Bifb5p7YWugffx-eJr69-122" value="" style="edgeStyle=elbowEdgeStyle;elbow=vertical;sourcePerimeterSpacing=0;targetPerimeterSpacing=0;startArrow=none;endArrow=none;rounded=0;curved=0;movable=0;resizable=0;rotatable=0;deletable=0;editable=0;locked=1;connectable=0;" parent="Bifb5p7YWugffx-eJr69-116" source="Bifb5p7YWugffx-eJr69-119" target="Bifb5p7YWugffx-eJr69-123" edge="1">
          <mxGeometry relative="1" as="geometry">
            <mxPoint x="-1835" y="1246" as="sourcePoint" />
          </mxGeometry>
        </mxCell>
        <mxCell id="Bifb5p7YWugffx-eJr69-123" value="股票分析服务" style="whiteSpace=wrap;html=1;align=center;verticalAlign=middle;treeFolding=1;treeMoving=1;newEdgeStyle={&quot;edgeStyle&quot;:&quot;elbowEdgeStyle&quot;,&quot;startArrow&quot;:&quot;none&quot;,&quot;endArrow&quot;:&quot;none&quot;};movable=0;resizable=0;rotatable=0;deletable=0;editable=0;locked=1;connectable=0;" parent="Bifb5p7YWugffx-eJr69-116" vertex="1">
          <mxGeometry x="797" y="268" width="100" height="60" as="geometry" />
        </mxCell>
        <mxCell id="Bifb5p7YWugffx-eJr69-124" value="" style="edgeStyle=elbowEdgeStyle;elbow=vertical;sourcePerimeterSpacing=0;targetPerimeterSpacing=0;startArrow=none;endArrow=none;rounded=0;curved=0;movable=0;resizable=0;rotatable=0;deletable=0;editable=0;locked=1;connectable=0;" parent="Bifb5p7YWugffx-eJr69-116" source="Bifb5p7YWugffx-eJr69-119" target="Bifb5p7YWugffx-eJr69-125" edge="1">
          <mxGeometry relative="1" as="geometry">
            <mxPoint x="-1835" y="1246" as="sourcePoint" />
          </mxGeometry>
        </mxCell>
        <mxCell id="Bifb5p7YWugffx-eJr69-125" value="股票推荐服务" style="whiteSpace=wrap;html=1;align=center;verticalAlign=middle;treeFolding=1;treeMoving=1;newEdgeStyle={&quot;edgeStyle&quot;:&quot;elbowEdgeStyle&quot;,&quot;startArrow&quot;:&quot;none&quot;,&quot;endArrow&quot;:&quot;none&quot;};movable=0;resizable=0;rotatable=0;deletable=0;editable=0;locked=1;connectable=0;" parent="Bifb5p7YWugffx-eJr69-116" vertex="1">
          <mxGeometry x="936" y="268" width="100" height="60" as="geometry" />
        </mxCell>
        <mxCell id="Bifb5p7YWugffx-eJr69-136" value="基于微服务架构的股票分析系统" style="text;html=1;strokeColor=none;fillColor=none;align=center;verticalAlign=middle;whiteSpace=wrap;rounded=0;movable=1;resizable=1;rotatable=1;deletable=1;editable=1;locked=0;connectable=1;" parent="Bifb5p7YWugffx-eJr69-116" vertex="1">
          <mxGeometry x="629" y="175" width="108" height="30" as="geometry" />
        </mxCell>
        <mxCell id="Bifb5p7YWugffx-eJr69-137" value="" style="edgeStyle=elbowEdgeStyle;elbow=vertical;sourcePerimeterSpacing=0;targetPerimeterSpacing=0;startArrow=none;endArrow=none;rounded=0;curved=0;movable=0;resizable=0;rotatable=0;deletable=0;editable=0;locked=1;connectable=0;" parent="Bifb5p7YWugffx-eJr69-116" source="Bifb5p7YWugffx-eJr69-120" target="Bifb5p7YWugffx-eJr69-138" edge="1">
          <mxGeometry relative="1" as="geometry">
            <mxPoint x="-2436" y="1273" as="sourcePoint" />
          </mxGeometry>
        </mxCell>
        <mxCell id="Bifb5p7YWugffx-eJr69-138" value="增加用户信息" style="whiteSpace=wrap;html=1;align=center;verticalAlign=middle;treeFolding=1;treeMoving=1;newEdgeStyle={&quot;edgeStyle&quot;:&quot;elbowEdgeStyle&quot;,&quot;startArrow&quot;:&quot;none&quot;,&quot;endArrow&quot;:&quot;none&quot;};movable=0;resizable=0;rotatable=0;deletable=0;editable=0;locked=1;connectable=0;" parent="Bifb5p7YWugffx-eJr69-116" vertex="1">
          <mxGeometry x="248" y="362" width="25" height="105" as="geometry" />
        </mxCell>
        <mxCell id="Bifb5p7YWugffx-eJr69-151" value="" style="edgeStyle=elbowEdgeStyle;elbow=vertical;sourcePerimeterSpacing=0;targetPerimeterSpacing=0;startArrow=none;endArrow=none;rounded=0;curved=0;movable=0;resizable=0;rotatable=0;deletable=0;editable=0;locked=1;connectable=0;" parent="Bifb5p7YWugffx-eJr69-116" source="Bifb5p7YWugffx-eJr69-120" target="Bifb5p7YWugffx-eJr69-152" edge="1">
          <mxGeometry relative="1" as="geometry">
            <mxPoint x="-2624" y="1375" as="sourcePoint" />
          </mxGeometry>
        </mxCell>
        <mxCell id="Bifb5p7YWugffx-eJr69-152" value="删除用户信息" style="whiteSpace=wrap;html=1;align=center;verticalAlign=middle;treeFolding=1;treeMoving=1;newEdgeStyle={&quot;edgeStyle&quot;:&quot;elbowEdgeStyle&quot;,&quot;startArrow&quot;:&quot;none&quot;,&quot;endArrow&quot;:&quot;none&quot;};movable=0;resizable=0;rotatable=0;deletable=0;editable=0;locked=1;connectable=0;" parent="Bifb5p7YWugffx-eJr69-116" vertex="1">
          <mxGeometry x="289" y="362" width="25" height="105" as="geometry" />
        </mxCell>
        <mxCell id="Bifb5p7YWugffx-eJr69-153" value="" style="edgeStyle=elbowEdgeStyle;elbow=vertical;sourcePerimeterSpacing=0;targetPerimeterSpacing=0;startArrow=none;endArrow=none;rounded=0;curved=0;movable=0;resizable=0;rotatable=0;deletable=0;editable=0;locked=1;connectable=0;" parent="Bifb5p7YWugffx-eJr69-116" source="Bifb5p7YWugffx-eJr69-120" target="Bifb5p7YWugffx-eJr69-154" edge="1">
          <mxGeometry relative="1" as="geometry">
            <mxPoint x="-2624" y="1375" as="sourcePoint" />
          </mxGeometry>
        </mxCell>
        <mxCell id="Bifb5p7YWugffx-eJr69-154" value="修改用户信息" style="whiteSpace=wrap;html=1;align=center;verticalAlign=middle;treeFolding=1;treeMoving=1;newEdgeStyle={&quot;edgeStyle&quot;:&quot;elbowEdgeStyle&quot;,&quot;startArrow&quot;:&quot;none&quot;,&quot;endArrow&quot;:&quot;none&quot;};movable=0;resizable=0;rotatable=0;deletable=0;editable=0;locked=1;connectable=0;" parent="Bifb5p7YWugffx-eJr69-116" vertex="1">
          <mxGeometry x="330" y="362" width="25" height="105" as="geometry" />
        </mxCell>
        <mxCell id="Bifb5p7YWugffx-eJr69-155" value="" style="edgeStyle=elbowEdgeStyle;elbow=vertical;sourcePerimeterSpacing=0;targetPerimeterSpacing=0;startArrow=none;endArrow=none;rounded=0;curved=0;movable=0;resizable=0;rotatable=0;deletable=0;editable=0;locked=1;connectable=0;" parent="Bifb5p7YWugffx-eJr69-116" source="Bifb5p7YWugffx-eJr69-120" target="Bifb5p7YWugffx-eJr69-156" edge="1">
          <mxGeometry relative="1" as="geometry">
            <mxPoint x="-2624" y="1375" as="sourcePoint" />
          </mxGeometry>
        </mxCell>
        <mxCell id="Bifb5p7YWugffx-eJr69-156" value="增加自选股票" style="whiteSpace=wrap;html=1;align=center;verticalAlign=middle;treeFolding=1;treeMoving=1;newEdgeStyle={&quot;edgeStyle&quot;:&quot;elbowEdgeStyle&quot;,&quot;startArrow&quot;:&quot;none&quot;,&quot;endArrow&quot;:&quot;none&quot;};movable=0;resizable=0;rotatable=0;deletable=0;editable=0;locked=1;connectable=0;" parent="Bifb5p7YWugffx-eJr69-116" vertex="1">
          <mxGeometry x="365" y="362" width="25" height="105" as="geometry" />
        </mxCell>
        <mxCell id="Bifb5p7YWugffx-eJr69-157" value="" style="edgeStyle=elbowEdgeStyle;elbow=vertical;sourcePerimeterSpacing=0;targetPerimeterSpacing=0;startArrow=none;endArrow=none;rounded=0;curved=0;movable=0;resizable=0;rotatable=0;deletable=0;editable=0;locked=1;connectable=0;" parent="Bifb5p7YWugffx-eJr69-116" source="Bifb5p7YWugffx-eJr69-120" target="Bifb5p7YWugffx-eJr69-158" edge="1">
          <mxGeometry relative="1" as="geometry">
            <mxPoint x="-2624" y="1375" as="sourcePoint" />
          </mxGeometry>
        </mxCell>
        <mxCell id="Bifb5p7YWugffx-eJr69-158" value="删除自选股票" style="whiteSpace=wrap;html=1;align=center;verticalAlign=middle;treeFolding=1;treeMoving=1;newEdgeStyle={&quot;edgeStyle&quot;:&quot;elbowEdgeStyle&quot;,&quot;startArrow&quot;:&quot;none&quot;,&quot;endArrow&quot;:&quot;none&quot;};movable=0;resizable=0;rotatable=0;deletable=0;editable=0;locked=1;connectable=0;" parent="Bifb5p7YWugffx-eJr69-116" vertex="1">
          <mxGeometry x="400" y="362" width="25" height="105" as="geometry" />
        </mxCell>
        <mxCell id="Bifb5p7YWugffx-eJr69-159" value="" style="edgeStyle=elbowEdgeStyle;elbow=vertical;sourcePerimeterSpacing=0;targetPerimeterSpacing=0;startArrow=none;endArrow=none;rounded=0;curved=0;movable=0;resizable=0;rotatable=0;deletable=0;editable=0;locked=1;connectable=0;" parent="Bifb5p7YWugffx-eJr69-116" source="Bifb5p7YWugffx-eJr69-120" target="Bifb5p7YWugffx-eJr69-160" edge="1">
          <mxGeometry relative="1" as="geometry">
            <mxPoint x="-2624" y="1375" as="sourcePoint" />
          </mxGeometry>
        </mxCell>
        <mxCell id="Bifb5p7YWugffx-eJr69-160" value="查看自选股票" style="whiteSpace=wrap;html=1;align=center;verticalAlign=middle;treeFolding=1;treeMoving=1;newEdgeStyle={&quot;edgeStyle&quot;:&quot;elbowEdgeStyle&quot;,&quot;startArrow&quot;:&quot;none&quot;,&quot;endArrow&quot;:&quot;none&quot;};movable=0;resizable=0;rotatable=0;deletable=0;editable=0;locked=1;connectable=0;" parent="Bifb5p7YWugffx-eJr69-116" vertex="1">
          <mxGeometry x="435" y="362" width="25" height="104" as="geometry" />
        </mxCell>
        <mxCell id="Bifb5p7YWugffx-eJr69-161" value="" style="edgeStyle=elbowEdgeStyle;elbow=vertical;sourcePerimeterSpacing=0;targetPerimeterSpacing=0;startArrow=none;endArrow=none;rounded=0;curved=0;movable=0;resizable=0;rotatable=0;deletable=0;editable=0;locked=1;connectable=0;" parent="Bifb5p7YWugffx-eJr69-116" source="Bifb5p7YWugffx-eJr69-121" target="Bifb5p7YWugffx-eJr69-162" edge="1">
          <mxGeometry relative="1" as="geometry">
            <mxPoint x="-2097" y="1281" as="sourcePoint" />
          </mxGeometry>
        </mxCell>
        <mxCell id="Bifb5p7YWugffx-eJr69-162" value="查看上证指数" style="whiteSpace=wrap;html=1;align=center;verticalAlign=middle;treeFolding=1;treeMoving=1;newEdgeStyle={&quot;edgeStyle&quot;:&quot;elbowEdgeStyle&quot;,&quot;startArrow&quot;:&quot;none&quot;,&quot;endArrow&quot;:&quot;none&quot;};movable=0;resizable=0;rotatable=0;deletable=0;editable=0;locked=1;connectable=0;" parent="Bifb5p7YWugffx-eJr69-116" vertex="1">
          <mxGeometry x="488" y="362" width="24" height="105" as="geometry" />
        </mxCell>
        <mxCell id="Bifb5p7YWugffx-eJr69-163" value="" style="edgeStyle=elbowEdgeStyle;elbow=vertical;sourcePerimeterSpacing=0;targetPerimeterSpacing=0;startArrow=none;endArrow=none;rounded=0;curved=0;movable=0;resizable=0;rotatable=0;deletable=0;editable=0;locked=1;connectable=0;" parent="Bifb5p7YWugffx-eJr69-116" source="Bifb5p7YWugffx-eJr69-121" target="Bifb5p7YWugffx-eJr69-164" edge="1">
          <mxGeometry relative="1" as="geometry">
            <mxPoint x="-2245" y="1369" as="sourcePoint" />
          </mxGeometry>
        </mxCell>
        <mxCell id="Bifb5p7YWugffx-eJr69-164" value="查看深圳指数" style="whiteSpace=wrap;html=1;align=center;verticalAlign=middle;treeFolding=1;treeMoving=1;newEdgeStyle={&quot;edgeStyle&quot;:&quot;elbowEdgeStyle&quot;,&quot;startArrow&quot;:&quot;none&quot;,&quot;endArrow&quot;:&quot;none&quot;};movable=0;resizable=0;rotatable=0;deletable=0;editable=0;locked=1;connectable=0;" parent="Bifb5p7YWugffx-eJr69-116" vertex="1">
          <mxGeometry x="522" y="362" width="24" height="104" as="geometry" />
        </mxCell>
        <mxCell id="Bifb5p7YWugffx-eJr69-165" value="" style="edgeStyle=elbowEdgeStyle;elbow=vertical;sourcePerimeterSpacing=0;targetPerimeterSpacing=0;startArrow=none;endArrow=none;rounded=0;curved=0;movable=0;resizable=0;rotatable=0;deletable=0;editable=0;locked=1;connectable=0;" parent="Bifb5p7YWugffx-eJr69-116" source="Bifb5p7YWugffx-eJr69-121" target="Bifb5p7YWugffx-eJr69-166" edge="1">
          <mxGeometry relative="1" as="geometry">
            <mxPoint x="-2245" y="1369" as="sourcePoint" />
          </mxGeometry>
        </mxCell>
        <mxCell id="Bifb5p7YWugffx-eJr69-166" value="查看汇率" style="whiteSpace=wrap;html=1;align=center;verticalAlign=middle;treeFolding=1;treeMoving=1;newEdgeStyle={&quot;edgeStyle&quot;:&quot;elbowEdgeStyle&quot;,&quot;startArrow&quot;:&quot;none&quot;,&quot;endArrow&quot;:&quot;none&quot;};movable=0;resizable=0;rotatable=0;deletable=0;editable=0;locked=1;connectable=0;" parent="Bifb5p7YWugffx-eJr69-116" vertex="1">
          <mxGeometry x="556" y="362" width="24" height="104" as="geometry" />
        </mxCell>
        <mxCell id="Bifb5p7YWugffx-eJr69-167" value="" style="edgeStyle=elbowEdgeStyle;elbow=vertical;sourcePerimeterSpacing=0;targetPerimeterSpacing=0;startArrow=none;endArrow=none;rounded=0;curved=0;movable=0;resizable=0;rotatable=0;deletable=0;editable=0;locked=1;connectable=0;" parent="Bifb5p7YWugffx-eJr69-116" source="Bifb5p7YWugffx-eJr69-121" target="Bifb5p7YWugffx-eJr69-168" edge="1">
          <mxGeometry relative="1" as="geometry">
            <mxPoint x="-2245" y="1369" as="sourcePoint" />
          </mxGeometry>
        </mxCell>
        <mxCell id="Bifb5p7YWugffx-eJr69-168" value="查看成交量" style="whiteSpace=wrap;html=1;align=center;verticalAlign=middle;treeFolding=1;treeMoving=1;newEdgeStyle={&quot;edgeStyle&quot;:&quot;elbowEdgeStyle&quot;,&quot;startArrow&quot;:&quot;none&quot;,&quot;endArrow&quot;:&quot;none&quot;};movable=0;resizable=0;rotatable=0;deletable=0;editable=0;locked=1;connectable=0;" parent="Bifb5p7YWugffx-eJr69-116" vertex="1">
          <mxGeometry x="590" y="362" width="24" height="104" as="geometry" />
        </mxCell>
        <mxCell id="Bifb5p7YWugffx-eJr69-169" value="" style="edgeStyle=elbowEdgeStyle;elbow=vertical;sourcePerimeterSpacing=0;targetPerimeterSpacing=0;startArrow=none;endArrow=none;rounded=0;curved=0;movable=0;resizable=0;rotatable=0;deletable=0;editable=0;locked=1;connectable=0;" parent="Bifb5p7YWugffx-eJr69-116" source="Bifb5p7YWugffx-eJr69-121" target="Bifb5p7YWugffx-eJr69-170" edge="1">
          <mxGeometry relative="1" as="geometry">
            <mxPoint x="-2245" y="1369" as="sourcePoint" />
          </mxGeometry>
        </mxCell>
        <mxCell id="Bifb5p7YWugffx-eJr69-170" value="查看各板块&lt;br&gt;K&lt;br&gt;线" style="whiteSpace=wrap;html=1;align=center;verticalAlign=middle;treeFolding=1;treeMoving=1;newEdgeStyle={&quot;edgeStyle&quot;:&quot;elbowEdgeStyle&quot;,&quot;startArrow&quot;:&quot;none&quot;,&quot;endArrow&quot;:&quot;none&quot;};movable=0;resizable=0;rotatable=0;deletable=0;editable=0;locked=1;connectable=0;" parent="Bifb5p7YWugffx-eJr69-116" vertex="1">
          <mxGeometry x="624" y="362" width="24" height="104" as="geometry" />
        </mxCell>
        <mxCell id="Bifb5p7YWugffx-eJr69-171" value="" style="edgeStyle=elbowEdgeStyle;elbow=vertical;sourcePerimeterSpacing=0;targetPerimeterSpacing=0;startArrow=none;endArrow=none;rounded=0;curved=0;movable=0;resizable=0;rotatable=0;deletable=0;editable=0;locked=1;connectable=0;" parent="Bifb5p7YWugffx-eJr69-116" source="Bifb5p7YWugffx-eJr69-121" target="Bifb5p7YWugffx-eJr69-172" edge="1">
          <mxGeometry relative="1" as="geometry">
            <mxPoint x="-2245" y="1369" as="sourcePoint" />
          </mxGeometry>
        </mxCell>
        <mxCell id="Bifb5p7YWugffx-eJr69-172" value="查询新高/低板块" style="whiteSpace=wrap;html=1;align=center;verticalAlign=middle;treeFolding=1;treeMoving=1;newEdgeStyle={&quot;edgeStyle&quot;:&quot;elbowEdgeStyle&quot;,&quot;startArrow&quot;:&quot;none&quot;,&quot;endArrow&quot;:&quot;none&quot;};movable=0;resizable=0;rotatable=0;deletable=0;editable=0;locked=1;connectable=0;" parent="Bifb5p7YWugffx-eJr69-116" vertex="1">
          <mxGeometry x="658" y="362" width="24" height="103" as="geometry" />
        </mxCell>
        <mxCell id="Bifb5p7YWugffx-eJr69-173" value="" style="edgeStyle=elbowEdgeStyle;elbow=vertical;sourcePerimeterSpacing=0;targetPerimeterSpacing=0;startArrow=none;endArrow=none;rounded=0;curved=0;movable=0;resizable=0;rotatable=0;deletable=0;editable=0;locked=1;connectable=0;" parent="Bifb5p7YWugffx-eJr69-116" source="Bifb5p7YWugffx-eJr69-121" target="Bifb5p7YWugffx-eJr69-174" edge="1">
          <mxGeometry relative="1" as="geometry">
            <mxPoint x="-2245" y="1369" as="sourcePoint" />
          </mxGeometry>
        </mxCell>
        <mxCell id="Bifb5p7YWugffx-eJr69-174" value="查看热门板块" style="whiteSpace=wrap;html=1;align=center;verticalAlign=middle;treeFolding=1;treeMoving=1;newEdgeStyle={&quot;edgeStyle&quot;:&quot;elbowEdgeStyle&quot;,&quot;startArrow&quot;:&quot;none&quot;,&quot;endArrow&quot;:&quot;none&quot;};movable=0;resizable=0;rotatable=0;deletable=0;editable=0;locked=1;connectable=0;" parent="Bifb5p7YWugffx-eJr69-116" vertex="1">
          <mxGeometry x="692" y="362" width="24" height="103" as="geometry" />
        </mxCell>
        <mxCell id="Bifb5p7YWugffx-eJr69-175" value="" style="edgeStyle=elbowEdgeStyle;elbow=vertical;sourcePerimeterSpacing=0;targetPerimeterSpacing=0;startArrow=none;endArrow=none;rounded=0;curved=0;movable=0;resizable=0;rotatable=0;deletable=0;editable=0;locked=1;connectable=0;" parent="Bifb5p7YWugffx-eJr69-116" source="Bifb5p7YWugffx-eJr69-121" target="Bifb5p7YWugffx-eJr69-176" edge="1">
          <mxGeometry relative="1" as="geometry">
            <mxPoint x="-2245" y="1369" as="sourcePoint" />
          </mxGeometry>
        </mxCell>
        <mxCell id="Bifb5p7YWugffx-eJr69-176" value="查看热门股票" style="whiteSpace=wrap;html=1;align=center;verticalAlign=middle;treeFolding=1;treeMoving=1;newEdgeStyle={&quot;edgeStyle&quot;:&quot;elbowEdgeStyle&quot;,&quot;startArrow&quot;:&quot;none&quot;,&quot;endArrow&quot;:&quot;none&quot;};movable=0;resizable=0;rotatable=0;deletable=0;editable=0;locked=1;connectable=0;" parent="Bifb5p7YWugffx-eJr69-116" vertex="1">
          <mxGeometry x="726" y="362" width="24" height="103" as="geometry" />
        </mxCell>
        <mxCell id="Bifb5p7YWugffx-eJr69-179" value="" style="edgeStyle=elbowEdgeStyle;elbow=vertical;sourcePerimeterSpacing=0;targetPerimeterSpacing=0;startArrow=none;endArrow=none;rounded=0;curved=0;movable=0;resizable=0;rotatable=0;deletable=0;editable=0;locked=1;connectable=0;" parent="Bifb5p7YWugffx-eJr69-116" source="Bifb5p7YWugffx-eJr69-123" target="Bifb5p7YWugffx-eJr69-180" edge="1">
          <mxGeometry relative="1" as="geometry">
            <mxPoint x="-2025" y="1264" as="sourcePoint" />
          </mxGeometry>
        </mxCell>
        <mxCell id="Bifb5p7YWugffx-eJr69-180" value="预测未来五天股价" style="whiteSpace=wrap;html=1;align=center;verticalAlign=middle;treeFolding=1;treeMoving=1;newEdgeStyle={&quot;edgeStyle&quot;:&quot;elbowEdgeStyle&quot;,&quot;startArrow&quot;:&quot;none&quot;,&quot;endArrow&quot;:&quot;none&quot;};movable=0;resizable=0;rotatable=0;deletable=0;editable=0;locked=1;connectable=0;" parent="Bifb5p7YWugffx-eJr69-116" vertex="1">
          <mxGeometry x="803" y="362" width="22" height="117" as="geometry" />
        </mxCell>
        <mxCell id="Bifb5p7YWugffx-eJr69-181" value="" style="edgeStyle=elbowEdgeStyle;elbow=vertical;sourcePerimeterSpacing=0;targetPerimeterSpacing=0;startArrow=none;endArrow=none;rounded=0;curved=0;movable=0;resizable=0;rotatable=0;deletable=0;editable=0;locked=1;connectable=0;" parent="Bifb5p7YWugffx-eJr69-116" source="Bifb5p7YWugffx-eJr69-123" target="Bifb5p7YWugffx-eJr69-182" edge="1">
          <mxGeometry relative="1" as="geometry">
            <mxPoint x="-1875" y="1372" as="sourcePoint" />
          </mxGeometry>
        </mxCell>
        <mxCell id="Bifb5p7YWugffx-eJr69-182" value="查看回测结果" style="whiteSpace=wrap;html=1;align=center;verticalAlign=middle;treeFolding=1;treeMoving=1;newEdgeStyle={&quot;edgeStyle&quot;:&quot;elbowEdgeStyle&quot;,&quot;startArrow&quot;:&quot;none&quot;,&quot;endArrow&quot;:&quot;none&quot;};movable=0;resizable=0;rotatable=0;deletable=0;editable=0;locked=1;connectable=0;" parent="Bifb5p7YWugffx-eJr69-116" vertex="1">
          <mxGeometry x="882" y="362" width="22" height="118" as="geometry" />
        </mxCell>
        <mxCell id="Bifb5p7YWugffx-eJr69-183" value="" style="edgeStyle=elbowEdgeStyle;elbow=vertical;sourcePerimeterSpacing=0;targetPerimeterSpacing=0;startArrow=none;endArrow=none;rounded=0;curved=0;movable=0;resizable=0;rotatable=0;deletable=0;editable=0;locked=1;connectable=0;" parent="Bifb5p7YWugffx-eJr69-116" source="Bifb5p7YWugffx-eJr69-121" target="Bifb5p7YWugffx-eJr69-184" edge="1">
          <mxGeometry relative="1" as="geometry">
            <mxPoint x="-2083" y="1372" as="sourcePoint" />
          </mxGeometry>
        </mxCell>
        <mxCell id="Bifb5p7YWugffx-eJr69-184" value="查看股票详情" style="whiteSpace=wrap;html=1;align=center;verticalAlign=middle;treeFolding=1;treeMoving=1;newEdgeStyle={&quot;edgeStyle&quot;:&quot;elbowEdgeStyle&quot;,&quot;startArrow&quot;:&quot;none&quot;,&quot;endArrow&quot;:&quot;none&quot;};movable=0;resizable=0;rotatable=0;deletable=0;editable=0;locked=1;connectable=0;" parent="Bifb5p7YWugffx-eJr69-116" vertex="1">
          <mxGeometry x="760" y="362" width="24" height="103" as="geometry" />
        </mxCell>
        <mxCell id="Bifb5p7YWugffx-eJr69-187" value="" style="edgeStyle=elbowEdgeStyle;elbow=vertical;sourcePerimeterSpacing=0;targetPerimeterSpacing=0;startArrow=none;endArrow=none;rounded=0;curved=0;movable=0;resizable=0;rotatable=0;deletable=0;editable=0;locked=1;connectable=0;" parent="Bifb5p7YWugffx-eJr69-116" source="Bifb5p7YWugffx-eJr69-125" target="Bifb5p7YWugffx-eJr69-188" edge="1">
          <mxGeometry relative="1" as="geometry">
            <mxPoint x="-2009" y="1266" as="sourcePoint" />
          </mxGeometry>
        </mxCell>
        <mxCell id="Bifb5p7YWugffx-eJr69-188" value="推荐消费行业股票" style="whiteSpace=wrap;html=1;align=center;verticalAlign=middle;treeFolding=1;treeMoving=1;newEdgeStyle={&quot;edgeStyle&quot;:&quot;elbowEdgeStyle&quot;,&quot;startArrow&quot;:&quot;none&quot;,&quot;endArrow&quot;:&quot;none&quot;};movable=0;resizable=0;rotatable=0;deletable=0;editable=0;locked=1;connectable=0;" parent="Bifb5p7YWugffx-eJr69-116" vertex="1">
          <mxGeometry x="940" y="362" width="24" height="118" as="geometry" />
        </mxCell>
        <mxCell id="Bifb5p7YWugffx-eJr69-189" value="" style="edgeStyle=elbowEdgeStyle;elbow=vertical;sourcePerimeterSpacing=0;targetPerimeterSpacing=0;startArrow=none;endArrow=none;rounded=0;curved=0;movable=0;resizable=0;rotatable=0;deletable=0;editable=0;locked=1;connectable=0;" parent="Bifb5p7YWugffx-eJr69-116" source="Bifb5p7YWugffx-eJr69-125" target="Bifb5p7YWugffx-eJr69-190" edge="1">
          <mxGeometry relative="1" as="geometry">
            <mxPoint x="-1696" y="1374" as="sourcePoint" />
          </mxGeometry>
        </mxCell>
        <mxCell id="Bifb5p7YWugffx-eJr69-190" value="推荐医药行业股票" style="whiteSpace=wrap;html=1;align=center;verticalAlign=middle;treeFolding=1;treeMoving=1;newEdgeStyle={&quot;edgeStyle&quot;:&quot;elbowEdgeStyle&quot;,&quot;startArrow&quot;:&quot;none&quot;,&quot;endArrow&quot;:&quot;none&quot;};movable=0;resizable=0;rotatable=0;deletable=0;editable=0;locked=1;connectable=0;" parent="Bifb5p7YWugffx-eJr69-116" vertex="1">
          <mxGeometry x="974" y="362" width="24" height="117" as="geometry" />
        </mxCell>
        <mxCell id="Bifb5p7YWugffx-eJr69-191" value="" style="edgeStyle=elbowEdgeStyle;elbow=vertical;sourcePerimeterSpacing=0;targetPerimeterSpacing=0;startArrow=none;endArrow=none;rounded=0;curved=0;movable=0;resizable=0;rotatable=0;deletable=0;editable=0;locked=1;connectable=0;" parent="Bifb5p7YWugffx-eJr69-116" source="Bifb5p7YWugffx-eJr69-125" target="Bifb5p7YWugffx-eJr69-192" edge="1">
          <mxGeometry relative="1" as="geometry">
            <mxPoint x="-1696" y="1374" as="sourcePoint" />
          </mxGeometry>
        </mxCell>
        <mxCell id="Bifb5p7YWugffx-eJr69-192" value="推荐特定板块股票" style="whiteSpace=wrap;html=1;align=center;verticalAlign=middle;treeFolding=1;treeMoving=1;newEdgeStyle={&quot;edgeStyle&quot;:&quot;elbowEdgeStyle&quot;,&quot;startArrow&quot;:&quot;none&quot;,&quot;endArrow&quot;:&quot;none&quot;};movable=0;resizable=0;rotatable=0;deletable=0;editable=0;locked=1;connectable=0;" parent="Bifb5p7YWugffx-eJr69-116" vertex="1">
          <mxGeometry x="1008" y="362" width="24" height="117" as="geometry" />
        </mxCell>
        <mxCell id="wUW49xOCrfoHEJadxzmI-1" value="用户" style="shape=umlActor;verticalLabelPosition=bottom;verticalAlign=top;html=1;outlineConnect=0;" parent="1" vertex="1">
          <mxGeometry x="-3100" y="195" width="30" height="60" as="geometry" />
        </mxCell>
        <mxCell id="wUW49xOCrfoHEJadxzmI-4" value="获取股票资讯" style="ellipse;whiteSpace=wrap;html=1;" parent="1" vertex="1">
          <mxGeometry x="-2943" y="18" width="105" height="51" as="geometry" />
        </mxCell>
        <mxCell id="wUW49xOCrfoHEJadxzmI-7" value="自选股票管理" style="ellipse;whiteSpace=wrap;html=1;" parent="1" vertex="1">
          <mxGeometry x="-2943" y="283" width="105" height="51" as="geometry" />
        </mxCell>
        <mxCell id="wUW49xOCrfoHEJadxzmI-8" value="股票推荐" style="ellipse;whiteSpace=wrap;html=1;" parent="1" vertex="1">
          <mxGeometry x="-2943" y="83" width="105" height="51" as="geometry" />
        </mxCell>
        <mxCell id="wUW49xOCrfoHEJadxzmI-9" value="获取热点板块股票" style="ellipse;whiteSpace=wrap;html=1;" parent="1" vertex="1">
          <mxGeometry x="-2943" y="360" width="105" height="51" as="geometry" />
        </mxCell>
        <mxCell id="wUW49xOCrfoHEJadxzmI-11" value="用户管理" style="ellipse;whiteSpace=wrap;html=1;" parent="1" vertex="1">
          <mxGeometry x="-2943" y="215" width="105" height="51" as="geometry" />
        </mxCell>
        <mxCell id="wUW49xOCrfoHEJadxzmI-12" value="股票价格预测" style="ellipse;whiteSpace=wrap;html=1;" parent="1" vertex="1">
          <mxGeometry x="-2943" y="144" width="105" height="51" as="geometry" />
        </mxCell>
        <mxCell id="wUW49xOCrfoHEJadxzmI-13" value="" style="endArrow=classic;html=1;rounded=0;entryX=0;entryY=0.5;entryDx=0;entryDy=0;" parent="1" target="wUW49xOCrfoHEJadxzmI-4" edge="1">
          <mxGeometry width="50" height="50" relative="1" as="geometry">
            <mxPoint x="-3070" y="216" as="sourcePoint" />
            <mxPoint x="-3020" y="166" as="targetPoint" />
          </mxGeometry>
        </mxCell>
        <mxCell id="wUW49xOCrfoHEJadxzmI-15" value="" style="endArrow=classic;html=1;rounded=0;entryX=0;entryY=0.5;entryDx=0;entryDy=0;" parent="1" target="wUW49xOCrfoHEJadxzmI-8" edge="1">
          <mxGeometry width="50" height="50" relative="1" as="geometry">
            <mxPoint x="-3069" y="216" as="sourcePoint" />
            <mxPoint x="-3006" y="171" as="targetPoint" />
          </mxGeometry>
        </mxCell>
        <mxCell id="wUW49xOCrfoHEJadxzmI-16" value="" style="endArrow=classic;html=1;rounded=0;exitX=1;exitY=0.3333333333333333;exitDx=0;exitDy=0;exitPerimeter=0;entryX=0;entryY=0.471;entryDx=0;entryDy=0;entryPerimeter=0;" parent="1" source="wUW49xOCrfoHEJadxzmI-1" target="wUW49xOCrfoHEJadxzmI-12" edge="1">
          <mxGeometry width="50" height="50" relative="1" as="geometry">
            <mxPoint x="-2997" y="267.5" as="sourcePoint" />
            <mxPoint x="-2947" y="218" as="targetPoint" />
          </mxGeometry>
        </mxCell>
        <mxCell id="wUW49xOCrfoHEJadxzmI-17" value="" style="endArrow=classic;html=1;rounded=0;entryX=0;entryY=0.5;entryDx=0;entryDy=0;" parent="1" target="wUW49xOCrfoHEJadxzmI-7" edge="1">
          <mxGeometry width="50" height="50" relative="1" as="geometry">
            <mxPoint x="-3068" y="216" as="sourcePoint" />
            <mxPoint x="-2947" y="282" as="targetPoint" />
          </mxGeometry>
        </mxCell>
        <mxCell id="wUW49xOCrfoHEJadxzmI-18" value="" style="endArrow=classic;html=1;rounded=0;entryX=0;entryY=0.5;entryDx=0;entryDy=0;" parent="1" target="wUW49xOCrfoHEJadxzmI-9" edge="1">
          <mxGeometry width="50" height="50" relative="1" as="geometry">
            <mxPoint x="-3070" y="215" as="sourcePoint" />
            <mxPoint x="-2946" y="347" as="targetPoint" />
          </mxGeometry>
        </mxCell>
        <mxCell id="wUW49xOCrfoHEJadxzmI-19" value="" style="endArrow=classic;html=1;rounded=0;" parent="1" edge="1">
          <mxGeometry width="50" height="50" relative="1" as="geometry">
            <mxPoint x="-3071" y="216" as="sourcePoint" />
            <mxPoint x="-2943" y="239" as="targetPoint" />
          </mxGeometry>
        </mxCell>
        <mxCell id="wUW49xOCrfoHEJadxzmI-21" value="" style="shape=waypoint;sketch=0;fillStyle=solid;size=6;pointerEvents=1;points=[];fillColor=none;resizable=0;rotatable=0;perimeter=centerPerimeter;snapToPoint=1;" parent="1" vertex="1">
          <mxGeometry x="-3203" y="641" width="20" height="20" as="geometry" />
        </mxCell>
        <mxCell id="wUW49xOCrfoHEJadxzmI-25" value="" style="line;strokeWidth=4;direction=south;html=1;perimeter=backbonePerimeter;points=[];outlineConnect=0;" parent="1" vertex="1">
          <mxGeometry x="-3165" y="606" width="18" height="85" as="geometry" />
        </mxCell>
        <mxCell id="wUW49xOCrfoHEJadxzmI-26" value="" style="endArrow=classic;html=1;rounded=0;" parent="1" target="wUW49xOCrfoHEJadxzmI-25" edge="1">
          <mxGeometry width="50" height="50" relative="1" as="geometry">
            <mxPoint x="-3193" y="652" as="sourcePoint" />
            <mxPoint x="-3143" y="602" as="targetPoint" />
          </mxGeometry>
        </mxCell>
        <mxCell id="wUW49xOCrfoHEJadxzmI-28" value="" style="endArrow=classic;html=1;rounded=0;entryX=0;entryY=0.5;entryDx=0;entryDy=0;" parent="1" target="wUW49xOCrfoHEJadxzmI-31" edge="1">
          <mxGeometry width="50" height="50" relative="1" as="geometry">
            <mxPoint x="-3154" y="624.5" as="sourcePoint" />
            <mxPoint x="-3114" y="622.5" as="targetPoint" />
          </mxGeometry>
        </mxCell>
        <mxCell id="wUW49xOCrfoHEJadxzmI-29" value="" style="endArrow=classic;html=1;rounded=0;entryX=0;entryY=0.5;entryDx=0;entryDy=0;" parent="1" target="wUW49xOCrfoHEJadxzmI-32" edge="1">
          <mxGeometry width="50" height="50" relative="1" as="geometry">
            <mxPoint x="-3154" y="677" as="sourcePoint" />
            <mxPoint x="-3126" y="650" as="targetPoint" />
          </mxGeometry>
        </mxCell>
        <mxCell id="wUW49xOCrfoHEJadxzmI-31" value="登录" style="rounded=1;whiteSpace=wrap;html=1;" parent="1" vertex="1">
          <mxGeometry x="-3116" y="615" width="38" height="17" as="geometry" />
        </mxCell>
        <mxCell id="wUW49xOCrfoHEJadxzmI-32" value="注册" style="rounded=1;whiteSpace=wrap;html=1;" parent="1" vertex="1">
          <mxGeometry x="-3116" y="668" width="38" height="17" as="geometry" />
        </mxCell>
        <mxCell id="wUW49xOCrfoHEJadxzmI-33" value="" style="endArrow=classic;html=1;rounded=0;" parent="1" edge="1">
          <mxGeometry width="50" height="50" relative="1" as="geometry">
            <mxPoint x="-3078" y="624" as="sourcePoint" />
            <mxPoint x="-3042" y="624" as="targetPoint" />
          </mxGeometry>
        </mxCell>
        <mxCell id="wUW49xOCrfoHEJadxzmI-35" value="" style="rhombus;whiteSpace=wrap;html=1;" parent="1" vertex="1">
          <mxGeometry x="-3042" y="611.25" width="42" height="24.5" as="geometry" />
        </mxCell>
        <mxCell id="wUW49xOCrfoHEJadxzmI-36" value="" style="rhombus;whiteSpace=wrap;html=1;" parent="1" vertex="1">
          <mxGeometry x="-3042" y="663.25" width="42" height="24.5" as="geometry" />
        </mxCell>
        <mxCell id="wUW49xOCrfoHEJadxzmI-37" value="" style="endArrow=classic;html=1;rounded=0;" parent="1" edge="1">
          <mxGeometry width="50" height="50" relative="1" as="geometry">
            <mxPoint x="-3078" y="676.08" as="sourcePoint" />
            <mxPoint x="-3042" y="676.08" as="targetPoint" />
          </mxGeometry>
        </mxCell>
        <mxCell id="wUW49xOCrfoHEJadxzmI-39" value="" style="line;strokeWidth=4;direction=south;html=1;perimeter=backbonePerimeter;points=[];outlineConnect=0;" parent="1" vertex="1">
          <mxGeometry x="-2965" y="557.25" width="10" height="185.75" as="geometry" />
        </mxCell>
        <mxCell id="wUW49xOCrfoHEJadxzmI-40" value="" style="endArrow=classic;html=1;rounded=0;" parent="1" edge="1">
          <mxGeometry width="50" height="50" relative="1" as="geometry">
            <mxPoint x="-3021.5" y="663.25" as="sourcePoint" />
            <mxPoint x="-3095.5" y="631.25" as="targetPoint" />
            <Array as="points">
              <mxPoint x="-3021.5" y="655" />
              <mxPoint x="-3095.5" y="655" />
            </Array>
          </mxGeometry>
        </mxCell>
        <mxCell id="wUW49xOCrfoHEJadxzmI-41" value="" style="endArrow=classic;html=1;rounded=0;entryX=0.5;entryY=0;entryDx=0;entryDy=0;" parent="1" target="wUW49xOCrfoHEJadxzmI-31" edge="1">
          <mxGeometry width="50" height="50" relative="1" as="geometry">
            <mxPoint x="-3021" y="611.25" as="sourcePoint" />
            <mxPoint x="-3108" y="582" as="targetPoint" />
            <Array as="points">
              <mxPoint x="-3021" y="584" />
              <mxPoint x="-3097" y="584" />
            </Array>
          </mxGeometry>
        </mxCell>
        <mxCell id="wUW49xOCrfoHEJadxzmI-42" value="" style="endArrow=classic;html=1;rounded=0;entryX=0.5;entryY=1;entryDx=0;entryDy=0;" parent="1" target="wUW49xOCrfoHEJadxzmI-32" edge="1">
          <mxGeometry width="50" height="50" relative="1" as="geometry">
            <mxPoint x="-3021" y="687.75" as="sourcePoint" />
            <mxPoint x="-3095" y="731" as="targetPoint" />
            <Array as="points">
              <mxPoint x="-3021" y="710" />
              <mxPoint x="-3097" y="710" />
            </Array>
          </mxGeometry>
        </mxCell>
        <mxCell id="wUW49xOCrfoHEJadxzmI-43" value="" style="endArrow=classic;html=1;rounded=0;" parent="1" edge="1">
          <mxGeometry width="50" height="50" relative="1" as="geometry">
            <mxPoint x="-3000" y="624" as="sourcePoint" />
            <mxPoint x="-2961" y="624" as="targetPoint" />
          </mxGeometry>
        </mxCell>
        <mxCell id="wUW49xOCrfoHEJadxzmI-44" value="" style="endArrow=classic;html=1;rounded=0;" parent="1" edge="1">
          <mxGeometry width="50" height="50" relative="1" as="geometry">
            <mxPoint x="-2958" y="580" as="sourcePoint" />
            <mxPoint x="-2912" y="580" as="targetPoint" />
          </mxGeometry>
        </mxCell>
        <mxCell id="wUW49xOCrfoHEJadxzmI-48" value="查看股票信息" style="rounded=1;whiteSpace=wrap;html=1;" parent="1" vertex="1">
          <mxGeometry x="-2911" y="566" width="76" height="28.25" as="geometry" />
        </mxCell>
        <mxCell id="wUW49xOCrfoHEJadxzmI-49" value="查看未来五天股价" style="rounded=1;whiteSpace=wrap;html=1;" parent="1" vertex="1">
          <mxGeometry x="-2911" y="609.38" width="76" height="28.25" as="geometry" />
        </mxCell>
        <mxCell id="wUW49xOCrfoHEJadxzmI-50" value="查看推荐股票" style="rounded=1;whiteSpace=wrap;html=1;" parent="1" vertex="1">
          <mxGeometry x="-2911" y="653" width="76" height="28.25" as="geometry" />
        </mxCell>
        <mxCell id="wUW49xOCrfoHEJadxzmI-51" value="管理自选股票" style="rounded=1;whiteSpace=wrap;html=1;" parent="1" vertex="1">
          <mxGeometry x="-2911" y="697" width="76" height="28.25" as="geometry" />
        </mxCell>
        <mxCell id="wUW49xOCrfoHEJadxzmI-52" value="" style="endArrow=classic;html=1;rounded=0;" parent="1" edge="1">
          <mxGeometry width="50" height="50" relative="1" as="geometry">
            <mxPoint x="-2957" y="625" as="sourcePoint" />
            <mxPoint x="-2911" y="625" as="targetPoint" />
          </mxGeometry>
        </mxCell>
        <mxCell id="wUW49xOCrfoHEJadxzmI-53" value="" style="endArrow=classic;html=1;rounded=0;" parent="1" edge="1">
          <mxGeometry width="50" height="50" relative="1" as="geometry">
            <mxPoint x="-2957" y="666.71" as="sourcePoint" />
            <mxPoint x="-2911" y="666.71" as="targetPoint" />
          </mxGeometry>
        </mxCell>
        <mxCell id="wUW49xOCrfoHEJadxzmI-54" value="" style="endArrow=classic;html=1;rounded=0;" parent="1" edge="1">
          <mxGeometry width="50" height="50" relative="1" as="geometry">
            <mxPoint x="-2958" y="710.71" as="sourcePoint" />
            <mxPoint x="-2912" y="710.71" as="targetPoint" />
          </mxGeometry>
        </mxCell>
        <mxCell id="wUW49xOCrfoHEJadxzmI-55" value="" style="endArrow=classic;html=1;rounded=0;" parent="1" edge="1">
          <mxGeometry width="50" height="50" relative="1" as="geometry">
            <mxPoint x="-2835" y="579.71" as="sourcePoint" />
            <mxPoint x="-2789" y="579.71" as="targetPoint" />
          </mxGeometry>
        </mxCell>
        <mxCell id="wUW49xOCrfoHEJadxzmI-56" value="" style="endArrow=classic;html=1;rounded=0;" parent="1" edge="1">
          <mxGeometry width="50" height="50" relative="1" as="geometry">
            <mxPoint x="-2834" y="623.09" as="sourcePoint" />
            <mxPoint x="-2788" y="623.09" as="targetPoint" />
          </mxGeometry>
        </mxCell>
        <mxCell id="wUW49xOCrfoHEJadxzmI-57" value="" style="endArrow=classic;html=1;rounded=0;" parent="1" edge="1">
          <mxGeometry width="50" height="50" relative="1" as="geometry">
            <mxPoint x="-2836" y="668" as="sourcePoint" />
            <mxPoint x="-2790" y="668" as="targetPoint" />
          </mxGeometry>
        </mxCell>
        <mxCell id="wUW49xOCrfoHEJadxzmI-58" value="返回股市基础信息" style="rounded=1;whiteSpace=wrap;html=1;" parent="1" vertex="1">
          <mxGeometry x="-2788" y="566.25" width="72" height="28" as="geometry" />
        </mxCell>
        <mxCell id="wUW49xOCrfoHEJadxzmI-59" value="返回预测股价及对比图" style="rounded=1;whiteSpace=wrap;html=1;" parent="1" vertex="1">
          <mxGeometry x="-2788" y="607.75" width="72" height="28" as="geometry" />
        </mxCell>
        <mxCell id="wUW49xOCrfoHEJadxzmI-60" value="返回行业十只股票" style="rounded=1;whiteSpace=wrap;html=1;" parent="1" vertex="1">
          <mxGeometry x="-2788" y="653" width="72" height="28" as="geometry" />
        </mxCell>
        <mxCell id="wUW49xOCrfoHEJadxzmI-61" value="返回行业十只股票" style="rounded=1;whiteSpace=wrap;html=1;" parent="1" vertex="1">
          <mxGeometry x="-2789" y="696" width="72" height="28" as="geometry" />
        </mxCell>
        <mxCell id="wUW49xOCrfoHEJadxzmI-62" value="" style="endArrow=classic;html=1;rounded=0;" parent="1" edge="1">
          <mxGeometry width="50" height="50" relative="1" as="geometry">
            <mxPoint x="-2835" y="710.71" as="sourcePoint" />
            <mxPoint x="-2789" y="710.71" as="targetPoint" />
          </mxGeometry>
        </mxCell>
        <mxCell id="wUW49xOCrfoHEJadxzmI-63" value="" style="endArrow=none;html=1;rounded=0;" parent="1" edge="1">
          <mxGeometry width="50" height="50" relative="1" as="geometry">
            <mxPoint x="-2660" y="710" as="sourcePoint" />
            <mxPoint x="-2660" y="580" as="targetPoint" />
          </mxGeometry>
        </mxCell>
        <mxCell id="wUW49xOCrfoHEJadxzmI-64" value="" style="endArrow=classic;html=1;rounded=0;" parent="1" edge="1">
          <mxGeometry width="50" height="50" relative="1" as="geometry">
            <mxPoint x="-2660" y="645" as="sourcePoint" />
            <mxPoint x="-2603" y="645" as="targetPoint" />
          </mxGeometry>
        </mxCell>
        <mxCell id="wUW49xOCrfoHEJadxzmI-68" value="" style="endArrow=none;html=1;rounded=0;" parent="1" edge="1">
          <mxGeometry width="50" height="50" relative="1" as="geometry">
            <mxPoint x="-2716" y="582" as="sourcePoint" />
            <mxPoint x="-2659" y="582" as="targetPoint" />
          </mxGeometry>
        </mxCell>
        <mxCell id="wUW49xOCrfoHEJadxzmI-69" value="" style="endArrow=none;html=1;rounded=0;" parent="1" edge="1">
          <mxGeometry width="50" height="50" relative="1" as="geometry">
            <mxPoint x="-2717" y="623.09" as="sourcePoint" />
            <mxPoint x="-2660" y="623.09" as="targetPoint" />
          </mxGeometry>
        </mxCell>
        <mxCell id="wUW49xOCrfoHEJadxzmI-70" value="" style="endArrow=none;html=1;rounded=0;" parent="1" edge="1">
          <mxGeometry width="50" height="50" relative="1" as="geometry">
            <mxPoint x="-2716" y="668" as="sourcePoint" />
            <mxPoint x="-2659" y="668" as="targetPoint" />
          </mxGeometry>
        </mxCell>
        <mxCell id="wUW49xOCrfoHEJadxzmI-71" value="" style="endArrow=none;html=1;rounded=0;" parent="1" edge="1">
          <mxGeometry width="50" height="50" relative="1" as="geometry">
            <mxPoint x="-2716" y="709.58" as="sourcePoint" />
            <mxPoint x="-2659" y="709.58" as="targetPoint" />
          </mxGeometry>
        </mxCell>
        <mxCell id="wUW49xOCrfoHEJadxzmI-72" value="返回前端页面" style="rounded=1;whiteSpace=wrap;html=1;" parent="1" vertex="1">
          <mxGeometry x="-2603" y="622.25" width="80" height="41" as="geometry" />
        </mxCell>
        <mxCell id="wUW49xOCrfoHEJadxzmI-73" value="" style="endArrow=classic;html=1;rounded=0;" parent="1" edge="1">
          <mxGeometry width="50" height="50" relative="1" as="geometry">
            <mxPoint x="-2563" y="663.25" as="sourcePoint" />
            <mxPoint x="-2563" y="697" as="targetPoint" />
          </mxGeometry>
        </mxCell>
        <mxCell id="wUW49xOCrfoHEJadxzmI-74" value="注销" style="rounded=1;whiteSpace=wrap;html=1;" parent="1" vertex="1">
          <mxGeometry x="-2590.5" y="697" width="55" height="24" as="geometry" />
        </mxCell>
        <mxCell id="wUW49xOCrfoHEJadxzmI-75" value="" style="endArrow=classic;html=1;rounded=0;" parent="1" edge="1">
          <mxGeometry width="50" height="50" relative="1" as="geometry">
            <mxPoint x="-2563" y="721" as="sourcePoint" />
            <mxPoint x="-2563" y="751" as="targetPoint" />
          </mxGeometry>
        </mxCell>
        <mxCell id="wUW49xOCrfoHEJadxzmI-76" value="" style="shape=waypoint;sketch=0;fillStyle=solid;size=6;pointerEvents=1;points=[];fillColor=none;resizable=0;rotatable=0;perimeter=centerPerimeter;snapToPoint=1;" parent="1" vertex="1">
          <mxGeometry x="-2571.5" y="751.5" width="20" height="20" as="geometry" />
        </mxCell>
        <mxCell id="wUW49xOCrfoHEJadxzmI-78" value="否" style="text;html=1;strokeColor=none;fillColor=none;align=center;verticalAlign=middle;whiteSpace=wrap;rounded=0;" parent="1" vertex="1">
          <mxGeometry x="-3028" y="594" width="28" height="12" as="geometry" />
        </mxCell>
        <mxCell id="wUW49xOCrfoHEJadxzmI-80" value="是否登录成功" style="text;html=1;strokeColor=none;fillColor=none;align=center;verticalAlign=middle;whiteSpace=wrap;rounded=0;" parent="1" vertex="1">
          <mxGeometry x="-3065" y="641" width="83" height="9" as="geometry" />
        </mxCell>
        <mxCell id="wUW49xOCrfoHEJadxzmI-82" value="是" style="text;html=1;strokeColor=none;fillColor=none;align=center;verticalAlign=middle;whiteSpace=wrap;rounded=0;" parent="1" vertex="1">
          <mxGeometry x="-3004" y="609.25" width="35" height="13" as="geometry" />
        </mxCell>
        <mxCell id="wUW49xOCrfoHEJadxzmI-84" value="否" style="text;html=1;strokeColor=none;fillColor=none;align=center;verticalAlign=middle;whiteSpace=wrap;rounded=0;" parent="1" vertex="1">
          <mxGeometry x="-3042" y="691" width="28" height="12" as="geometry" />
        </mxCell>
        <mxCell id="wUW49xOCrfoHEJadxzmI-85" value="是否注册成功" style="text;html=1;strokeColor=none;fillColor=none;align=center;verticalAlign=middle;whiteSpace=wrap;rounded=0;" parent="1" vertex="1">
          <mxGeometry x="-3024" y="679" width="81" height="30" as="geometry" />
        </mxCell>
        <mxCell id="wUW49xOCrfoHEJadxzmI-86" value="是" style="text;html=1;strokeColor=none;fillColor=none;align=center;verticalAlign=middle;whiteSpace=wrap;rounded=0;" parent="1" vertex="1">
          <mxGeometry x="-3056" y="655" width="35" height="13" as="geometry" />
        </mxCell>
        <mxCell id="wUW49xOCrfoHEJadxzmI-92" value="" style="rounded=0;whiteSpace=wrap;html=1;container=0;" parent="1" vertex="1">
          <mxGeometry x="-2295.995493372607" y="1765.4739712918663" width="297.1259204712813" height="60.01537935748463" as="geometry" />
        </mxCell>
        <mxCell id="wUW49xOCrfoHEJadxzmI-93" value="" style="shape=flexArrow;endArrow=classic;html=1;rounded=0;entryX=0.5;entryY=0;entryDx=0;entryDy=0;" parent="1" edge="1" target="wUW49xOCrfoHEJadxzmI-101">
          <mxGeometry width="50" height="50" relative="1" as="geometry">
            <mxPoint x="-2661" y="1992" as="sourcePoint" />
            <mxPoint x="-2625.0918041237114" y="2020.0041148325358" as="targetPoint" />
          </mxGeometry>
        </mxCell>
        <mxCell id="wUW49xOCrfoHEJadxzmI-94" value="" style="shape=flexArrow;endArrow=classic;html=1;rounded=0;" parent="1" edge="1">
          <mxGeometry width="50" height="50" relative="1" as="geometry">
            <mxPoint x="-3387.995154639175" y="1860.5853315105946" as="sourcePoint" />
            <mxPoint x="-3178" y="1860.17" as="targetPoint" />
          </mxGeometry>
        </mxCell>
        <mxCell id="wUW49xOCrfoHEJadxzmI-112" value="" style="group" parent="1" vertex="1" connectable="0">
          <mxGeometry x="-2797" y="2062" width="271" height="133" as="geometry" />
        </mxCell>
        <mxCell id="wUW49xOCrfoHEJadxzmI-101" value="" style="rounded=0;whiteSpace=wrap;html=1;container=0;" parent="wUW49xOCrfoHEJadxzmI-112" vertex="1">
          <mxGeometry width="271.0000000000001" height="133" as="geometry" />
        </mxCell>
        <mxCell id="wUW49xOCrfoHEJadxzmI-95" value="" style="shape=image;verticalLabelPosition=bottom;labelBackgroundColor=#ffffff;verticalAlign=top;aspect=fixed;imageAspect=0;image=data:image/svg+xml,PHN2ZyB4bWxuczpjYz0iaHR0cDovL2NyZWF0aXZlY29tbW9ucy5vcmcvbnMjIiB4bWxuczpkYz0iaHR0cDovL3B1cmwub3JnL2RjL2VsZW1lbnRzLzEuMS8iIHhtbG5zOmlua3NjYXBlPSJodHRwOi8vd3d3Lmlua3NjYXBlLm9yZy9uYW1lc3BhY2VzL2lua3NjYXBlIiB4bWxuczpyZGY9Imh0dHA6Ly93d3cudzMub3JnLzE5OTkvMDIvMjItcmRmLXN5bnRheC1ucyMiIHhtbG5zOnNvZGlwb2RpPSJodHRwOi8vc29kaXBvZGkuc291cmNlZm9yZ2UubmV0L0RURC9zb2RpcG9kaS0wLmR0ZCIgeG1sbnM6c3ZnPSJodHRwOi8vd3d3LnczLm9yZy8yMDAwL3N2ZyIgeG1sbnM9Imh0dHA6Ly93d3cudzMub3JnLzIwMDAvc3ZnIiB4bWxuczp4bGluaz0iaHR0cDovL3d3dy53My5vcmcvMTk5OS94bGluayIgdmVyc2lvbj0iMS4xIiBpZD0ic3ZnMTAxMjg5IiBpbmtzY2FwZTp2ZXJzaW9uPSIwLjkyLjMgKDI0MDU1NDYsIDIwMTgtMDMtMTEpIiBzb2RpcG9kaTpkb2NuYW1lPSJtb25nb2RiLnN2ZyIgeD0iMHB4IiB5PSIwcHgiIHZpZXdCb3g9IjAgMCAxMDEuMjggNjQuNDYiIHN0eWxlPSJlbmFibGUtYmFja2dyb3VuZDpuZXcgMCAwIDEwMS4yOCA2NC40NjsiIHhtbDpzcGFjZT0icHJlc2VydmUiPiYjeGE7PHNvZGlwb2RpOm5hbWVkdmlldyBib3JkZXJjb2xvcj0iIzY2NjY2NiIgYm9yZGVyb3BhY2l0eT0iMSIgZml0LW1hcmdpbi1ib3R0b209IjAiIGZpdC1tYXJnaW4tbGVmdD0iMCIgZml0LW1hcmdpbi1yaWdodD0iMCIgZml0LW1hcmdpbi10b3A9IjAiIGdyaWR0b2xlcmFuY2U9IjEwIiBndWlkZXRvbGVyYW5jZT0iMTAiIGlkPSJuYW1lZHZpZXcxMDEyOTEiIGlua3NjYXBlOmN1cnJlbnQtbGF5ZXI9InN2ZzEwMTI4OSIgaW5rc2NhcGU6Y3g9IjY3LjUyMzY1MyIgaW5rc2NhcGU6Y3k9IjQzLjE3NTI0NCIgaW5rc2NhcGU6cGFnZW9wYWNpdHk9IjAiIGlua3NjYXBlOnBhZ2VzaGFkb3c9IjIiIGlua3NjYXBlOndpbmRvdy1oZWlnaHQ9IjEwMTciIGlua3NjYXBlOndpbmRvdy1tYXhpbWl6ZWQ9IjEiIGlua3NjYXBlOndpbmRvdy13aWR0aD0iMTkyMCIgaW5rc2NhcGU6d2luZG93LXg9Ii04IiBpbmtzY2FwZTp3aW5kb3cteT0iLTgiIGlua3NjYXBlOnpvb209IjkuODQ1NDgxNCIgb2JqZWN0dG9sZXJhbmNlPSIxMCIgcGFnZWNvbG9yPSIjZmZmZmZmIiBzaG93Z3JpZD0iZmFsc2UiPiYjeGE7CTwvc29kaXBvZGk6bmFtZWR2aWV3PiYjeGE7PGcgaWQ9ImcxMDEyODciIHRyYW5zZm9ybT0idHJhbnNsYXRlKC0wLjY0NTM3OTIxLC0wLjk0MzY1ODU5KSI+JiN4YTsJPHRpdGxlIGlkPSJ0aXRsZTEwMTIxNyI+UGFnZS0xPC90aXRsZT4mI3hhOwk8ZyBpZD0iZ3JvdXAzOTM5LTEiIHRyYW5zZm9ybT0idHJhbnNsYXRlKDAuNTc1NTk0LC0wLjU4MDQ2NikiPiYjeGE7CQk8dGl0bGUgaWQ9InRpdGxlMTAxMjE5Ij5Nb25nb0RCPC90aXRsZT4mI3hhOwkJPGcgaWQ9Imdyb3VwMzk0MC0yIj4mI3hhOwkJCTx0aXRsZSBpZD0idGl0bGUxMDEyMjEiPkxheWVyIDE8L3RpdGxlPiYjeGE7CQkJPGcgaWQ9Imdyb3VwMzk0MS0zIj4mI3hhOwkJCQk8dGl0bGUgaWQ9InRpdGxlMTAxMjIzIj5zdmdfMTwvdGl0bGU+JiN4YTsJCQkJPGcgaWQ9Imdyb3VwMzk0Mi00IiB0cmFuc2Zvcm09InRyYW5zbGF0ZSgzOS4zOTksLTIwLjUxMTUpIj4mI3hhOwkJCQkJPHRpdGxlIGlkPSJ0aXRsZTEwMTIyNSI+Zzg2MjwvdGl0bGU+JiN4YTsJCQkJCTxnIGlkPSJzaGFwZTM5NDMtNSIgdHJhbnNmb3JtPSJ0cmFuc2xhdGUoOS43MDgzNywtNS44MDEwNykiPiYjeGE7CQkJCQkJPHRpdGxlIGlkPSJ0aXRsZTEwMTIyNyI+cGF0aDI8L3RpdGxlPiYjeGE7CQkJCQkJPHBhdGggaWQ9InBhdGgxMDEyMjkiIGlua3NjYXBlOmNvbm5lY3Rvci1jdXJ2YXR1cmU9IjAiIHN0eWxlPSJmaWxsOiM1OTk2MzY7IiBkPSJNMC4xNCwyNy45NmMwLjM0LDAuNjIsMC43OSwxLjYsMS4xOCwyLjIgICAgICAgIGMwLjI2LDAuNDEsMC41NSwwLjc3LDAuODksMS4xYzAuOTgsMC45OSwxLjkxLDIuMDIsMi43NSwzLjEyYzEuOTksMi42MSwzLjMzLDUuNTEsNC4yOSw4LjY1YzAuNTgsMS45MiwwLjg5LDMuODksMC45MSw1Ljg4ICAgICAgICBjMC4xLDUuOTQtMS45NCwxMS4wNS02LjA2LDE1LjI5Yy0wLjY3LDAuNjctMS4zOSwxLjI5LTIuMTYsMS44NWMtMC40MSwwLTAuNi0wLjMyLTAuNzctMC42Yy0wLjMxLTAuNTMtMC41LTEuMTMtMC41OS0xLjczICAgICAgICBjLTAuMTUtMC43Mi0wLjI0LTEuNDQtMC4yLTIuMThjMC0wLjEyLDAtMC4yMiwwLTAuMzRDMC4zNiw2MS4xMywwLDI4LjEyLDAuMTQsMjcuOTZ6Ii8+JiN4YTsJCQkJCTwvZz4mI3hhOwkJCQkJPGcgaWQ9InNoYXBlMzk0NC03IiB0cmFuc2Zvcm09InRyYW5zbGF0ZSgwLC01LjM5MzU3KSI+JiN4YTsJCQkJCQk8dGl0bGUgaWQ9InRpdGxlMTAxMjMyIj5wYXRoODwvdGl0bGU+JiN4YTsJCQkJCQk8cGF0aCBpZD0icGF0aDEwMTIzNCIgaW5rc2NhcGU6Y29ubmVjdG9yLWN1cnZhdHVyZT0iMCIgc3R5bGU9ImZpbGw6IzZDQUM0ODsiIGQ9Ik05Ljg1LDI3LjQ4Yy0wLjA1LTAuMS0wLjA5LTAuMDMtMC4xNCwwLjAyICAgICAgICBjMC4wMiwwLjQ4LTAuMTUsMC45MS0wLjQxLDEuMzJjLTAuMjksMC40MS0wLjY3LDAuNzItMS4wNSwxLjA1Yy0yLjE0LDEuODUtMy44Miw0LjA4LTUuMTYsNi41NyAgICAgICAgYy0xLjc3LDMuMzYtMi43MSw2Ljk1LTIuOTcsMTAuNzRDMCw0OC41NSwwLjU1LDUzLjM2LDAuOTgsNTQuNzZjMS4xOCwzLjY5LDMuMjksNi43OCw2LjAyLDkuNDYgICAgICAgIGMwLjY3LDAuNjUsMS4zOSwxLjI1LDIuMTMsMS44M2MwLjIyLDAsMC4yNC0wLjIsMC4yOS0wLjM0YzAuMS0wLjMxLDAuMTctMC42MiwwLjIyLTAuOTNjMC4yMS0xLjIsMC4zMy0yLjQsMC40OC0zLjYgICAgICAgIEMxMC4xMiw2MS4wNCw5LjkyLDI3LjYsOS44NSwyNy40OHoiLz4mI3hhOwkJCQkJPC9nPiYjeGE7CQkJCQk8ZyBpZD0ic2hhcGUzOTQ1LTkiIHRyYW5zZm9ybT0idHJhbnNsYXRlKDkuMTMzMDcpIj4mI3hhOwkJCQkJCTx0aXRsZSBpZD0idGl0bGUxMDEyMzciPnBhdGgxMDwvdGl0bGU+JiN4YTsJCQkJCQk8cGF0aCBpZD0icGF0aDEwMTIzOSIgaW5rc2NhcGU6Y29ubmVjdG9yLWN1cnZhdHVyZT0iMCIgc3R5bGU9ImZpbGw6I0MyQkZCRjsiIGQ9Ik0xLjg5LDYxLjcxYzAuMDUtMC41NSwwLjMyLTEuMDEsMC42LTEuNDcgICAgICAgIGMtMC4yOC0wLjEyLTAuNS0wLjM2LTAuNjctMC42MmMtMC4xNC0wLjI0LTAuMjYtMC41My0wLjM2LTAuNzljLTAuMzMtMS4wMS0wLjQxLTIuMDYtMC41LTMuMDlsMCwwYzAtMC4xLDAtMC4yMiwwLTAuMzFsMCwwICAgICAgICBjMC0wLjEsMC0wLjIyLDAtMC4zMmMtMC4xMiwwLjEtMC4xNCwwLjkyLTAuMTQsMS4wNGMtMC4wOCwxLjEtMC4yMiwyLjE4LTAuNDQsMy4yM0MwLjMxLDU5LjgxLDAuMjYsNjAuMjQsMCw2MC42MyAgICAgICAgYzAsMC4wNSwwLDAuMDksMC4wMiwwLjE3YzAuNDQsMS4yNywwLjU2LDIuNTYsMC42MywzLjg4YzAsMC4xNywwLDAuMzEsMCwwLjQ4YzAsMC41Ny0wLjAzLDAuNDUsMC40NSwwLjY1ICAgICAgICBjMC4xOSwwLjA3LDAuNDEsMC4wOSwwLjYsMC4yNGMwLjE1LDAsMC4xNy0wLjEyLDAuMTctMC4yMkMxLjg1LDY1LjU3LDEuOCw2NS4zLDEuOCw2NS4wNGMwLTAuNzQtMC4wMy0xLjQ2LDAtMi4yMSAgICAgICAgQzEuNzcsNjIuNDUsMS44NSw2Mi4wNywxLjg5LDYxLjcxeiIvPiYjeGE7CQkJCQk8L2c+JiN4YTsJCQkJPC9nPiYjeGE7CQkJCTxnIGlkPSJncm91cDM5NDYtMTEiPiYjeGE7CQkJCQk8dGl0bGUgaWQ9InRpdGxlMTAxMjQzIj5nODgwPC90aXRsZT4mI3hhOwkJCQkJPGcgaWQ9InNoYXBlMzk0Ny0xMiIgdHJhbnNmb3JtPSJ0cmFuc2xhdGUoMCwtNi4xMTU1NikiPiYjeGE7CQkJCQkJPHRpdGxlIGlkPSJ0aXRsZTEwMTI0NSI+cGF0aDQ8L3RpdGxlPiYjeGE7CQkJCQkJPHBhdGggaWQ9InBhdGgxMDEyNDciIGlua3NjYXBlOmNvbm5lY3Rvci1jdXJ2YXR1cmU9IjAiIHN0eWxlPSJmaWxsOiM0NzQ3NEE7IiBkPSJNMy44NSw2MS40N2MwLDAuODgsMCwxLjc2LDAsMi42MiAgICAgICAgYzAsMC4xMSwwLDAuMjEsMC4wMiwwLjMxYzAuMDMsMC4zMiwwLjIyLDAuNTEsMC41MiwwLjU5YzAuMjYsMC4wNywwLjUzLDAuMTIsMC43OSwwLjE2YzAuMTYsMC4wMSwwLjIxLDAuMDgsMC4yMywwLjI0ICAgICAgICBjMC4wMSwwLjU5LTAuMDQsMC42Ni0wLjYxLDAuNjJjLTEuMzMtMC4wNy0yLjY2LTAuMDktMy45OSwwYy0wLjA1LDAtMC4xLDAtMC4xNCwwYy0wLjQxLDAuMDItMC40NS0wLjAyLTAuNDUtMC40MyAgICAgICAgYzAtMC4wNywwLjAyLTAuMTYsMC4wMi0wLjIzYzAtMC4xMywwLjA5LTAuMTksMC4yMS0wLjE5YzAuMjgtMC4wMywwLjUzLTAuMSwwLjc5LTAuMTVjMC4zNy0wLjA5LDAuNTctMC4zMSwwLjYxLTAuNjcgICAgICAgIGMwLjA1LTAuNCwwLjA1LTAuODIsMC4wNS0xLjIxYzAuMDUtMS41NCwwLjAzLTMuMSwwLjAyLTQuNjNjMC0wLjMtMC4xMi0wLjUyLTAuMzgtMC42NmMtMC4zMS0wLjE3LTAuNjQtMC4zMS0wLjk5LTAuNDIgICAgICAgIGMtMC4xLTAuMDMtMC4yLTAuMDUtMC4yOS0wLjFDMC4wMiw1Ny4yLDAsNTYuOTgsMC4yNCw1Ni44NGMwLjA5LTAuMDUsMC4xOS0wLjA5LDAuMy0wLjExYzEuMDUtMC4xNSwyLjA3LTAuNDEsMy4wNy0wLjc3ICAgICAgICBjMC4yMS0wLjA3LDAuMjYtMC4wNiwwLjI4LDAuMTVjMC4wMSwwLjE0LDAsMC4yOC0wLjAyLDAuNGMtMC4wMywwLjIyLTAuMDMsMC40NS0wLjAzLDAuNjZjMCwwLjA4LDAuMDEsMC4xNywwLjEsMC4yMiAgICAgICAgYzAuMDksMC4wNSwwLjE3LDAsMC4yNC0wLjA1YzAuMzYtMC4yOCwwLjczLTAuNTQsMS4xMi0wLjc2YzAuNTctMC4zMSwxLjE4LTAuNTksMS44My0wLjY4YzAuOC0wLjEsMS40OSwwLjExLDIuMSwwLjYzICAgICAgICBjMC4yNSwwLjIyLDAuNDYsMC40OCwwLjY1LDAuNzZjMC4xNywwLjI0LDAuMTksMC4yNiwwLjQyLDAuMDhjMC42NS0wLjQ4LDEuMzQtMC45MSwyLjA5LTEuMjJjMC43Ny0wLjMzLDEuNTctMC4zOCwyLjM2LTAuMTEgICAgICAgIGMwLjgyLDAuMywxLjM3LDAuODcsMS43LDEuNjRjMC4yNywwLjYzLDAuMzksMS4yOCwwLjM5LDEuOTRjMCwxLjAyLDAsMi4wNCwwLDMuMDdjMCwwLjUyLDAsMS4wNCwwLDEuNTYgICAgICAgIGMwLDAuMzEsMC4xNCwwLjUyLDAuNDQsMC42NmMwLjMyLDAuMTMsMC42OSwwLjE5LDEuMDMsMC4yNWMwLjIzLDAuMDYsMC4yMywwLjA2LDAuMjMsMC4yOGMtMC4wNCwwLjU3LTAuMDksMC42MS0wLjY0LDAuNTcgICAgICAgIGMtMS4zOC0wLjA5LTIuNzgtMC4wNy00LjE3LDBjLTAuMjcsMC4wMi0wLjI3LDAuMDItMC4yOS0wLjI2YzAtMC4wMywwLTAuMDUsMC0wLjA4Yy0wLjAyLTAuNDctMC4wMi0wLjQ3LDAuNDMtMC41NyAgICAgICAgYzAuMTYtMC4wNCwwLjMtMC4wNywwLjQ1LTAuMTNjMC4zNS0wLjEsMC41Mi0wLjMyLDAuNTQtMC42N2MwLjAxLTAuNDMsMC4wMy0wLjg2LDAuMDUtMS4yOWMwLTEuMTMsMC4wMy0yLjI3LTAuMDQtMy4zOSAgICAgICAgYy0wLjAxLTAuMjktMC4wNi0wLjU5LTAuMTktMC44OGMtMC40My0xLjA2LTEuMzgtMS40NC0yLjI5LTEuMzNjLTAuNjksMC4wNy0xLjMsMC4zNC0xLjg3LDAuNzQgICAgICAgIGMtMC4xMiwwLjA5LTAuMjEsMC4xOS0wLjE5LDAuMzZjMC4xNiwxLjExLDAuMDUsMi4yMSwwLjA3LDMuMzJjMC4wMiwwLjc5LDAsMS42MSwwLDIuNGMwLDAuNDMsMC4xNywwLjY0LDAuNTksMC43NCAgICAgICAgYzAuMjYsMC4wNywwLjUyLDAuMTMsMC43OSwwLjE4YzAuMTIsMC4wMSwwLjE5LDAuMDcsMC4xOSwwLjJjMCwwLjA2LDAsMC4xMSwwLDAuMTRjLTAuMDIsMC40OS0wLjA1LDAuNTItMC41MywwLjUgICAgICAgIGMtMS4zOS0wLjA3LTIuNzctMC4wNS00LjEzLDBjLTAuNDcsMC4wMi0wLjUyLTAuMDMtMC40OS0wLjUxYzAuMDItMC4yOCwwLjA2LTAuMywwLjMxLTAuMzVjMC4xOS0wLjAzLDAuMzgtMC4wNywwLjU3LTAuMSAgICAgICAgYzAuNTItMC4xMSwwLjctMC4zLDAuNzMtMC44M2MwLjAyLTAuMzgsMC4wNS0wLjc4LDAuMDUtMS4xNmMwLjAyLTEuMTYsMC4wNS0yLjMyLTAuMDMtMy40N2MtMC4wNC0wLjQzLTAuMTQtMC44NS0wLjM3LTEuMjUgICAgICAgIGMtMC4zNC0wLjY0LTAuODktMC45Ni0xLjYyLTFjLTAuNzQtMC4wNS0xLjQsMC4yMy0yLjAyLDAuNTdjLTAuNDMsMC4yNC0wLjYyLDAuNTUtMC41OSwxLjA2ICAgICAgICBDMy44Nyw1OS44MSwzLjg0LDYwLjY0LDMuODUsNjEuNDdDMy44NCw2MS40NywzLjg1LDYxLjQ3LDMuODUsNjEuNDdDMy44NSw2MS40NywzLjg1LDYxLjQ3LDMuODUsNjEuNDd6Ii8+JiN4YTsJCQkJCTwvZz4mI3hhOwkJCQkJPGcgaWQ9Imdyb3VwMzk0OC0xNCIgdHJhbnNmb3JtPSJ0cmFuc2xhdGUoMjAuMzY3OSkiPiYjeGE7CQkJCQkJPHRpdGxlIGlkPSJ0aXRsZTEwMTI1MCI+Zzg3MDwvdGl0bGU+JiN4YTsJCQkJCQk8ZyBpZD0ic2hhcGUzOTQ5LTE1IiB0cmFuc2Zvcm09InRyYW5zbGF0ZSgxMS45NzIsLTUuOTYwMDYpIj4mI3hhOwkJCQkJCQk8dGl0bGUgaWQ9InRpdGxlMTAxMjUyIj5wYXRoNjwvdGl0bGU+JiN4YTsJCQkJCQkJPHBhdGggaWQ9InBhdGgxMDEyNTQiIGlua3NjYXBlOmNvbm5lY3Rvci1jdXJ2YXR1cmU9IjAiIHN0eWxlPSJmaWxsOiM0NzQ3NEE7IiBkPSJNNC4wNiw2MS40MmMwLDAuODEsMCwxLjYyLDAsMi40MyAgICAgICAgIGMwLDAuMTcsMC4wMiwwLjM1LDAuMDMsMC41MmMwLjA0LDAuMjYsMC4xOCwwLjQxLDAuNDIsMC40OGMwLjI5LDAuMDksMC42LDAuMTQsMC45MSwwLjE2YzAuMTgsMC4wMiwwLjIxLDAuMDksMC4yMywwLjIyICAgICAgICAgYzAsMC4wNCwwLDAuMDcsMCwwLjEyYy0wLjAyLDAuNjEtMC4wOSwwLjY4LTAuNjcsMC42NGMtMS4zMi0wLjA4LTIuNjMtMC4wNy0zLjk0LDBjLTAuMTgsMC0wLjM1LDAuMDItMC41MiwwLjAyICAgICAgICAgYy0wLjExLDAtMC4xNC0wLjA1LTAuMTYtMC4xMmMtMC4wNS0wLjI0LTAuMDUtMC40OCwwLTAuNzNjMC4wMi0wLjEsMC4wOS0wLjEzLDAuMTktMC4xNWMwLjI0LTAuMDQsMC40Ny0wLjA5LDAuNzEtMC4xNCAgICAgICAgIGMwLjQzLTAuMSwwLjU5LTAuMjgsMC42MS0wLjcyYzAuMDMtMC40OSwwLjA1LTAuOTcsMC4wNS0xLjQ2YzAtMS40MSwwLTIuODMsMC00LjI1YzAtMC4zMS0wLjEyLTAuNS0wLjQtMC42NCAgICAgICAgIGMtMC4zMS0wLjE3LTAuNjQtMC4yOS0wLjk4LTAuNDFjLTAuMTEtMC4wMy0wLjIxLTAuMDctMC4zLTAuMTJDMC4wMiw1Ny4xMSwwLDU2Ljg5LDAuMjEsNTYuNzJjMC4xLTAuMDksMC4yLTAuMTIsMC4zNC0wLjE0ICAgICAgICAgYzEuMTEtMC4xNywyLjE4LTAuNDIsMy4yMi0wLjgzYzAuMTItMC4wNSwwLjE3LTAuMDIsMC4yMiwwLjA5YzAuMDUsMC4xLDAuMDcsMC4yMiwwLjA1LDAuMzRjLTAuMDEsMC4yOC0wLjAzLDAuNTQtMC4wNSwwLjgxICAgICAgICAgYzAsMC4xMS0wLjA1LDAuMjQsMC4wNCwwLjNjMC4xLDAuMDcsMC4xNy0wLjA5LDAuMjUtMC4xNGMwLjUyLTAuNDIsMS4wOC0wLjgsMS42OC0xLjA3YzAuNTQtMC4yNCwxLjA5LTAuNDIsMS43MS0wLjM4ICAgICAgICAgYzEuMTYsMC4wNywxLjk5LDAuNjUsMi41MiwxLjY3YzAuMjgsMC41NCwwLjQsMS4xMywwLjQ1LDEuNzNjMC4wNCwwLjQyLDAuMDUsMC44NSwwLjA1LDEuMjhjMCwxLjE5LDAuMDIsMi4zNywwLjAyLDMuNTYgICAgICAgICBjMCwwLjA4LDAsMC4xNywwLDAuMjZjMC4wMiwwLjI5LDAuMTIsMC40OCwwLjQyLDAuNThjMC4zMSwwLjExLDAuNiwwLjE4LDAuOTMsMC4yM2MwLjI3LDAuMDMsMC4yOSwwLjA5LDAuMzEsMC4zNCAgICAgICAgIGMwLDAuMDQsMCwwLjA2LDAsMC4wOWMtMC4wNCwwLjU5LTAuMDcsMC42MS0wLjY2LDAuNTdjLTEuMjktMC4wNy0yLjU5LTAuMDctMy44NywwYy0wLjE3LDAuMDItMC4zNCwwLTAuNTIsMC4wMiAgICAgICAgIGMtMC4xLDAtMC4xNy0wLjAyLTAuMTktMC4xMmMtMC4wMy0wLjIzLTAuMDYtMC40NS0wLjAxLTAuNjljMC4wMS0wLjExLDAuMDctMC4xNiwwLjE5LTAuMThjMC4yNi0wLjAzLDAuNTMtMC4wNywwLjc5LTAuMTMgICAgICAgICBjMC4yOC0wLjA3LDAuNDMtMC4yNSwwLjQ3LTAuNTJjMC4wMi0wLjE2LDAuMDMtMC4zMywwLjAzLTAuNDljMC0xLjIxLDAtMi40Mi0wLjAxLTMuNjFjMC0wLjQxLTAuMDItMC44My0wLjExLTEuMjQgICAgICAgICBjLTAuMi0wLjktMC44OC0xLjUtMS43OS0xLjYxYy0wLjgtMC4wOC0xLjUxLDAuMTItMi4xOCwwLjU2Yy0wLjMzLDAuMi0wLjQ3LDAuNS0wLjQ3LDAuODZjMCwwLjYsMCwxLjIxLDAsMS44MyAgICAgICAgIGMwLDAuMjYsMCwwLjUyLDAsMC43OEM0LjA0LDYxLjQyLDQuMDQsNjEuNDIsNC4wNiw2MS40MkM0LjA2LDYxLjQyLDQuMDYsNjEuNDIsNC4wNiw2MS40MnoiLz4mI3hhOwkJCQkJCTwvZz4mI3hhOwkJCQkJCTxnIGlkPSJzaGFwZTM5NTAtMTciIHRyYW5zZm9ybT0idHJhbnNsYXRlKDUwLjgwNzYsLTYuMTE1NTIpIj4mI3hhOwkJCQkJCQk8dGl0bGUgaWQ9InRpdGxlMTAxMjU3Ij5wYXRoMTI8L3RpdGxlPiYjeGE7CQkJCQkJCTxwYXRoIGlkPSJwYXRoMTAxMjU5IiBpbmtzY2FwZTpjb25uZWN0b3ItY3VydmF0dXJlPSIwIiBzdHlsZT0iZmlsbDojQzJCRkJGOyIgZD0iTTE1LjgyLDU2LjY4ICAgICAgICAgYy0wLjE5LTEuMjYtMC42NS0yLjM4LTEuNDYtMy4zN2MtMC43My0wLjg4LTEuNjEtMS41My0yLjY2LTEuOTdjLTEuMDktMC40NS0yLjI1LTAuNTgtMy40Mi0wLjYyICAgICAgICAgYy0wLjQ5LTAuMDItNy4wOSwwLjA5LTcuNTcsMGMtMC4xMi0wLjAyLTAuMjEsMC4wMi0wLjI4LDAuMTJjLTAuMDgsMC4xNC0wLjE3LDAuMjYtMC4yMiwwLjRDMCw1MS43MSwwLDUxLjY3LDAuNSw1MS43NCAgICAgICAgIGMwLjQyLDAuMDcsMC44MSwwLjEsMS4yMSwwLjIzYzAuMzYsMC4xMiwwLjYyLDAuMzIsMC43MSwwLjcyYzAuMDMsMC4xOSwwLjA3LDYuMjcsMC4wNyw5LjExYzAsMC42Ny0wLjAyLDEuMzQtMC4wNywyLjAyICAgICAgICAgYy0wLjAyLDAuMTUtMC4wNCwwLjMxLTAuMDksMC40NWMtMC4wNywwLjItMC4xOSwwLjM4LTAuNCwwLjQ2Yy0wLjIyLDAuMTEtMC40NiwwLjE4LTAuNzIsMC4xOSAgICAgICAgIGMtMC40NywwLjA1LTAuNTQsMC4wNy0wLjY5LDAuNTljLTAuMDIsMC4wNy0wLjA0LDAuMTQtMC4wNSwwLjE5Yy0wLjA0LDAuMjItMC4wMiwwLjI2LDAuMiwwLjI2ICAgICAgICAgYzEuMDQsMC4wMiw0LjMxLDAuMDUsNS4xNywwLjA1YzAuNDgtMC4wMiwxLjI2LDAuMDQsMi4wMi0wLjAzYzAuNDctMC4wNiwwLjkzLTAuMDksMS40LTAuMThjMS41OS0wLjI5LDMuMDEtMC45NSw0LjIyLTIgICAgICAgICBjMC43LTAuNjIsMS4yNC0xLjM1LDEuNjUtMi4xOGMwLjQ5LTAuOTYsMC42OS0yLjAyLDAuNzUtMy4wOUMxNS45Niw1Ny45MywxNS45Myw1Ny4zLDE1LjgyLDU2LjY4TDE1LjgyLDU2LjY4eiBNMTMuMzIsNTkuMTQgICAgICAgICBjLTAuMDcsMS4xLTAuMjksMi4xNy0wLjg2LDMuMTRjLTAuNzMsMS4yNi0xLjc3LDIuMTQtMy4yLDIuNDVjLTAuNjIsMC4xNC0xLjI0LDAuMTktMS44OCwwLjExICAgICAgICAgYy0wLjQ3LTAuMDYtMC45Mi0wLjExLTEuMzUtMC4yNmMtMC43OC0wLjI4LTEuMDUtMC43Ni0xLjA3LTEuNTFjLTAuMDQtMS4wOCwwLTguNy0wLjAyLTEwLjQxYzAtMC42MywwLjI4LTAuNzYsMC43My0wLjc4ICAgICAgICAgYzAuNjctMC4wNSwxLjM2LTAuMDQsMi4wMywwLjAzYzAuNzMsMC4wNywxLjQyLDAuMjUsMi4xLDAuNTJjMC41LDAuMjEsMC45NiwwLjUsMS4zNiwwLjg1YzAuOTMsMC43OSwxLjU1LDEuOCwxLjg4LDIuOTcgICAgICAgICBDMTMuMzIsNTcuMiwxMy4zNyw1OC4xNywxMy4zMiw1OS4xNHoiLz4mI3hhOwkJCQkJCTwvZz4mI3hhOwkJCQkJCTxnIGlkPSJzaGFwZTM5NTEtMTkiIHRyYW5zZm9ybT0idHJhbnNsYXRlKDY3Ljg5MzIsLTYuMDExOSkiPiYjeGE7CQkJCQkJCTx0aXRsZSBpZD0idGl0bGUxMDEyNjIiPnBhdGgxNDwvdGl0bGU+JiN4YTsJCQkJCQkJPHBhdGggaWQ9InBhdGgxMDEyNjQiIGlua3NjYXBlOmNvbm5lY3Rvci1jdXJ2YXR1cmU9IjAiIHN0eWxlPSJmaWxsOiNDMkJGQkY7IiBkPSJNMTMuMDksNjAuNzJjMC0wLjEsMC0wLjE5LTAuMDEtMC4yOSAgICAgICAgIGMtMC4xNi0wLjk1LTAuNjYtMS42Ny0xLjQ0LTIuMjNjLTAuNS0wLjM2LTEuMDctMC42LTEuNjUtMC43OGMtMC4xMS0wLjAzLTAuMTktMC4wNi0wLjMtMC4wOGMwLjAyLTAuMDksMC4wNy0wLjExLDAuMTItMC4xMiAgICAgICAgIGMwLjM1LTAuMTgsMC42OC0wLjM3LDAuOTctMC42MmMwLjU0LTAuNDUsMC45LTEuMDEsMS4wNy0xLjY4YzAuMS0wLjM2LDAuMS0wLjczLDAuMDctMS4xMWMtMC4wOS0wLjk1LTAuNS0xLjY5LTEuMjYtMi4yNCAgICAgICAgIGMtMC44LTAuNTktMS43My0wLjgzLTIuNy0wLjg1Yy0xLjg2LTAuMDMtMy43NCwwLTUuNjEsMGMtMC41NCwwLTEuMDcsMC4wNC0xLjYyLTAuMDVjLTAuMTEtMC4wMi0wLjI1LTAuMDUtMC4zMywwLjA3ICAgICAgICAgYy0wLjE0LDAuMjItMC4yOCwwLjQ1LTAuMzMsMC43MWMtMC4wMiwwLjEyLDAuMDIsMC4xOSwwLjE1LDAuMmMwLjQsMC4wNiwwLjgsMC4xMywxLjIsMC4xOGMwLjQ2LDAuMDcsMC43OSwwLjMzLDAuODMsMC43NCAgICAgICAgIGMwLjAzLDAuMjksMC4wNSwwLjU3LDAuMDUsMC44NmMwLDEuMDgtMC4wMiwyLjE2LTAuMDQsMy4yM2MtMC4wMywyLjEzLTAuMDEsNC4yNy0wLjAxLDYuNGMwLDAuMzgtMC4wNiwwLjc0LTAuMTMsMS4xMiAgICAgICAgIGMtMC4wNSwwLjI2LTAuMTksMC40My0wLjQ0LDAuNTJDMS4zMyw2NC44LDEsNjQuOTEsMC42NCw2NC45MWMtMC4yMywwLTAuMzYsMC4wOC0wLjQ1LDAuMjljLTAuMDcsMC4xNS0wLjE0LDAuMzMtMC4xNiwwLjQ4ICAgICAgICAgQzAsNjUuODksMC4wNSw2NS45NiwwLjI2LDY1LjkyYzAuMTUtMC4wMSw1Ljg2LDAuMTMsNi45MywwLjAyYzAuNjQtMC4wNywxLjI4LTAuMTUsMS45LTAuMzRjMS4wOS0wLjM1LDIuMDktMC44NSwyLjg4LTEuNyAgICAgICAgIGMwLjY2LTAuNjksMS4wNC0xLjUyLDEuMDctMi40OEMxMy4wOSw2MS4xOSwxMy4wOSw2MC45NywxMy4wOSw2MC43MnogTTQuNzIsNTMuNjZjMC4wMy0wLjQ3LDAuMDMtMC45MiwwLjA1LTEuMzggICAgICAgICBjMC0wLjI2LDAuMS0wLjM4LDAuMzYtMC40NGMwLjQyLTAuMDgsMC44My0wLjA1LDEuMjQtMC4wM2MwLjQyLDAuMDMsMC44MiwwLjA5LDEuMjMsMC4yMWMwLjc2LDAuMjIsMS4zNSwwLjY1LDEuNjksMS4zOCAgICAgICAgIGMwLjE2LDAuMzMsMC4yNSwwLjY5LDAuMjUsMS4wNWMwLjAxLDAuNDktMC4wMiwwLjk1LTAuMjEsMS40MmMtMC4yOSwwLjY0LTAuNzYsMS4wNS0xLjQ0LDEuMTcgICAgICAgICBjLTAuNjcsMC4xMy0yLjU5LDAuMDctMi44OCwwLjA3Yy0wLjI2LDAtMC4yOC0wLjAzLTAuMjgtMC4yOWMwLTAuNTUsMC0xLjExLDAtMS42NGwwLDBDNC43LDU0LjcsNC42OCw1NC4xOCw0LjcyLDUzLjY2eiAgICAgICAgICBNMTAuMzMsNjIuOTVjLTAuMjksMC43OC0wLjgzLDEuMzItMS41OSwxLjYxYy0wLjQxLDAuMTYtMC44MywwLjI0LTEuMjgsMC4yMmMtMC41My0wLjAxLTEuMDcsMC0xLjYtMC4xICAgICAgICAgYy0wLjczLTAuMTUtMS4wNi0wLjg1LTEuMTEtMS4zNWMtMC4wOS0wLjg4LTAuMDMtMS43OC0wLjA1LTIuNDNjMC0wLjkyLDAtMS41OSwwLTIuMjhjMC0wLjI4LDAuMDMtMC4zNywwLjMzLTAuMzcgICAgICAgICBjMC41My0wLjAxLDEuMDctMC4wMywxLjYyLDAuMDJjMC4zOCwwLjA0LDAuNzQsMC4wNywxLjExLDAuMTRjMC43NywwLjE3LDEuNDgsMC40NywyLjA0LDEuMDdjMC40NCwwLjQ4LDAuNjksMS4wNywwLjc0LDEuNzEgICAgICAgICBDMTAuNTksNjEuOCwxMC41Niw2Mi4zOCwxMC4zMyw2Mi45NUMxMC4zMyw2Mi45NSwxMC4zMyw2Mi45NSwxMC4zMyw2Mi45NXoiLz4mI3hhOwkJCQkJCTwvZz4mI3hhOwkJCQkJCTxnIGlkPSJzaGFwZTM5NTItMjEiIHRyYW5zZm9ybT0idHJhbnNsYXRlKDI1LjU4NTIpIj4mI3hhOwkJCQkJCQk8dGl0bGUgaWQ9InRpdGxlMTAxMjY3Ij5wYXRoMTY8L3RpdGxlPiYjeGE7CQkJCQkJCTxwYXRoIGlkPSJwYXRoMTAxMjY5IiBpbmtzY2FwZTpjb25uZWN0b3ItY3VydmF0dXJlPSIwIiBzdHlsZT0iZmlsbDojNDc0NzRBOyIgZD0iTTguNzQsNTEuNzJjMC4xNiwwLjAyLDAuMzEsMC4wNiwwLjQ1LDAuMDcgICAgICAgICBjMC40OCwwLjAyLDEuMDUtMC4xNSwxLjIzLTAuODNjMC4wOC0wLjMyLDAuMS0wLjY0LDAtMC45OGMtMC4xMSwwLTAuMTYsMC4wOS0wLjIxLDAuMTJjLTAuMjYsMC4yMS0wLjU1LDAuMzMtMC44NiwwLjM2ICAgICAgICAgQzguNzIsNTAuNTMsOC4xLDUwLjUsNy41LDUwLjI3Yy0wLjI4LTAuMS0wLjU2LTAuMi0wLjg1LTAuMjljLTAuNTktMC4xOS0xLjIxLTAuMjgtMS44My0wLjI0ICAgICAgICAgYy0wLjg4LDAuMDctMS43MSwwLjM2LTIuNDksMC43N2MtMC44MywwLjQ1LTEuNDEsMS4xMy0xLjY5LDIuMDRjLTAuMTYsMC41NC0wLjE3LDEuMDktMC4xLDEuNjRjMC4xNywxLjI3LDAuODIsMi4xNSwyLDIuNjEgICAgICAgICBjMC4wNywwLjAyLDAuMTIsMC4wNSwwLjE5LDAuMDdjMC4xNiwwLjA5LDAuMTcsMC4xNywwLjAzLDAuM2MtMC4xMywwLjEtMC4yNywwLjItMC40MywwLjI5Yy0wLjM0LDAuMjEtMC42OSwwLjQxLTEuMDMsMC42NCAgICAgICAgIGMtMC4yNiwwLjE1LTAuMywwLjI4LTAuMjEsMC41NWMwLjEsMC4zMywwLjI5LDAuNjEsMC41NSwwLjgzYzAuMjQsMC4yMSwwLjUsMC4zNiwwLjgsMC40OGMwLjE5LDAuMDksMC4xOSwwLjE0LDAuMDEsMC4yOCAgICAgICAgIGMtMC4zMywwLjI0LTAuNjUsMC40Ny0wLjk4LDAuNzFjLTAuMzMsMC4yNC0wLjY2LDAuNTItMC45MywwLjgzYy0wLjQsMC40NS0wLjU0LDAuOTctMC40MiwxLjU1ICAgICAgICAgYzAuMTQsMC42MywwLjQzLDEuMTMsMC45LDEuNTZDMS40Nyw2NS4zLDIsNjUuNiwyLjYxLDY1Ljc1YzAuOTcsMC4yOCwxLjk3LDAuMywyLjk1LDAuMTFjMS40Mi0wLjI2LDIuNjUtMC45LDMuNjMtMS45NiAgICAgICAgIGMwLjY3LTAuNywxLjA3LTEuNTMsMS4xMS0yLjU0YzAuMDUtMS4yMS0wLjY5LTIuMjItMS44Ny0yLjUyYy0wLjMxLTAuMDctMC42Mi0wLjEyLTAuOTMtMC4xN2MtMC45NS0wLjEyLTEuOS0wLjE3LTIuODUtMC4yNCAgICAgICAgIGMtMC4zMS0wLjAyLTAuNjItMC4wNy0wLjg4LTAuMjNjLTAuMzMtMC4yLTAuNDItMC42LTAuMjEtMC44NmMwLjE1LTAuMTksMC4zNC0wLjMxLDAuNTktMC4zM2MwLjE5LTAuMDIsMC4zNi0wLjAzLDAuNTUtMC4wNSAgICAgICAgIGMxLjEyLTAuMTIsMi4wOS0wLjU3LDIuOTItMS4zM2MwLjQzLTAuNCwwLjcyLTAuOSwwLjg4LTEuNDdjMC4yMS0wLjc0LDAuMjEtMS41LDAuMDMtMi4yNkM4LjQ4LDUxLjcxLDguNSw1MS42OSw4Ljc0LDUxLjcyeiAgICAgICAgICBNNC41MSw2MC4zM2MwLjEsMC4wMSwwLjIxLDAsMC4zMSwwQzUuNTUsNjAuMzYsNi4yOSw2MC40MSw3LDYwLjZjMC4yNCwwLjA3LDAuNDUsMC4xNiwwLjY3LDAuMjYgICAgICAgICBjMC42OSwwLjM4LDAuOTUsMS4wNCwwLjg2LDEuNzVDOC40Myw2My4zOSw4LDYzLjk0LDcuMzIsNjQuM2MtMC40NCwwLjI0LTAuOTUsMC4zNi0xLjQ2LDAuNDJjLTAuMTksMC4wMS0wLjM3LDAtMC41NiwwICAgICAgICAgYy0wLjYsMC4wMS0xLjE5LTAuMDYtMS43Ni0wLjNjLTAuNC0wLjE1LTAuNzItMC4zOC0xLjAyLTAuNjljLTAuNi0wLjYtMC45LTEuNzEsMC4wMi0yLjYxQzMuMDksNjAuNiwzLjcxLDYwLjI2LDQuNTEsNjAuMzN6ICAgICAgICAgIE02LjQ4LDU0Ljk0Yy0wLjM2LDAuOTEtMS4xNiwxLjE5LTEuOTUsMS4wN2MtMC43My0wLjExLTEuMjYtMC41LTEuNjEtMS4xNmMtMC40NS0wLjg4LTAuNTctMS44LTAuMzEtMi43NSAgICAgICAgIGMwLjE5LTAuNywwLjYyLTEuMjQsMS4zOC0xLjM2YzAuOTctMC4xNywxLjg4LDAuMTcsMi4zOCwxLjE0YzAuMjUsMC40NywwLjM3LDEuMDQsMC4zNywxLjg1ICAgICAgICAgQzYuNzIsNTQuMDYsNi42NSw1NC41MSw2LjQ4LDU0Ljk0eiIvPiYjeGE7CQkJCQkJPC9nPiYjeGE7CQkJCQkJPGcgaWQ9InNoYXBlMzk1My0yMyIgdHJhbnNmb3JtPSJ0cmFuc2xhdGUoMCwtNS43NTI3NykiPiYjeGE7CQkJCQkJCTx0aXRsZSBpZD0idGl0bGUxMDEyNzIiPnBhdGgxODwvdGl0bGU+JiN4YTsJCQkJCQkJPHBhdGggaWQ9InBhdGgxMDEyNzQiIGlua3NjYXBlOmNvbm5lY3Rvci1jdXJ2YXR1cmU9IjAiIHN0eWxlPSJmaWxsOiM0NzQ3NEE7IiBkPSJNMTAuMyw1OS41MmMtMC4xNi0wLjk0LTAuNS0xLjc4LTEuMTQtMi40OSAgICAgICAgIEM4LjIxLDU1Ljk3LDcsNTUuNTIsNS42Myw1NS41MWMtMS4xOS0wLjAyLTIuMzEsMC4zMy0zLjMyLDAuOTVjLTEsMC42Mi0xLjY5LDEuNS0yLjAyLDIuNjRjLTAuMjksMS0wLjI3LDIuMDItMC4wNSwzLjA0ICAgICAgICAgYzAuNjEsMi43MywyLjcxLDMuOTEsNS4yNCwzLjczYzAuNzQtMC4wNSwxLjQ1LTAuMjksMi4xMi0wLjYyYzEtMC40NywxLjczLTEuMjEsMi4yMy0yLjE5YzAuNC0wLjgyLDAuNTctMS42OCwwLjU1LTIuNjYgICAgICAgICBDMTAuMzcsNjAuMTUsMTAuMzUsNTkuODMsMTAuMyw1OS41MnogTTcuODQsNjMuMzVjLTAuMzEsMC44My0wLjksMS4zMy0xLjc4LDEuNDVjLTAuNzYsMC4xMS0xLjQ2LTAuMDgtMi4xLTAuNTMgICAgICAgICBjLTAuNDctMC4zNS0wLjgzLTAuNzgtMS4wOS0xLjNDMi4xNiw2MS41MiwyLjA0LDYwLDIuNCw1OC40NGMwLjEyLTAuNDgsMC4zNi0wLjkxLDAuNzMtMS4yNmMwLjY0LTAuNTgsMS4zOC0wLjcyLDIuMjEtMC41NSAgICAgICAgIGMwLjc5LDAuMTcsMS40LDAuNiwxLjg4LDEuMjZzMC43MywxLjQyLDAuODYsMi4yMWMwLjA3LDAuNCwwLjA3LDAuODEsMC4wOSwxLjA3QzguMTcsNjIsOC4xLDYyLjY4LDcuODQsNjMuMzV6Ii8+JiN4YTsJCQkJCQk8L2c+JiN4YTsJCQkJCQk8ZyBpZD0ic2hhcGUzOTU0LTI1IiB0cmFuc2Zvcm09InRyYW5zbGF0ZSgzNy42MjYzLC01LjczNTUpIj4mI3hhOwkJCQkJCQk8dGl0bGUgaWQ9InRpdGxlMTAxMjc3Ij5wYXRoMjA8L3RpdGxlPiYjeGE7CQkJCQkJCTxwYXRoIGlkPSJwYXRoMTAxMjc5IiBpbmtzY2FwZTpjb25uZWN0b3ItY3VydmF0dXJlPSIwIiBzdHlsZT0iZmlsbDojNDc0NzRBOyIgZD0iTTEwLjQyLDU5LjY0ICAgICAgICAgYy0wLjE0LTEuMDEtMC41LTEuOTItMS4yMS0yLjY4Yy0wLjkzLTEuMDItMi4xNC0xLjQ1LTMuNDktMS40N2MtMS4xNi0wLjAyLTIuMjMsMC4zMS0zLjIyLDAuODggICAgICAgICBjLTEuMSwwLjY2LTEuODYsMS41OS0yLjE1LDIuODVjLTAuMzUsMS40Mi0wLjIxLDIuOCwwLjQxLDQuMTFjMC41NywxLjIxLDEuNTQsMS45OSwyLjgyLDIuMzRjMS40MSwwLjM4LDIuNzYsMC4yLDQuMDctMC40NCAgICAgICAgIGMxLjE0LTAuNTUsMS45Ni0xLjQxLDIuNDItMi41OWMwLjI4LTAuNjksMC4zOC0xLjQzLDAuNC0yLjNDMTAuNDksNjAuMTksMTAuNDUsNTkuOTEsMTAuNDIsNTkuNjR6IE04LjAzLDYzLjExICAgICAgICAgYy0wLjI3LDAuOTMtMC44NiwxLjU0LTEuODUsMS42N2MtMC43MiwwLjExLTEuNDEtMC4wNi0yLjAzLTAuNDhjLTAuNTQtMC4zNi0wLjkyLTAuODUtMS4yLTEuNDIgICAgICAgICBjLTAuMzEtMC42LTAuNDgtMS4yNC0wLjU1LTEuOWMtMC4xLTAuODEtMC4xLTEuNiwwLjA5LTIuNDFjMC4wMy0wLjE2LDAuMDgtMC4zMiwwLjE1LTAuNDdjMC40OS0xLjIxLDEuNTYtMS43NiwyLjgyLTEuNDkgICAgICAgICBjMC44NSwwLjE5LDEuNDgsMC42NiwxLjk3LDEuMzdjMC40NiwwLjY5LDAuNjksMS40NSwwLjc5LDIuMjZjMC4wNiwwLjMzLDAuMDcsMC42NywwLjA2LDAuOTcgICAgICAgICBDOC4yOCw2MS44OCw4LjIyLDYyLjUsOC4wMyw2My4xMXoiLz4mI3hhOwkJCQkJCTwvZz4mI3hhOwkJCQkJPC9nPiYjeGE7CQkJCTwvZz4mI3hhOwkJCTwvZz4mI3hhOwkJPC9nPiYjeGE7CTwvZz4mI3hhOzwvZz4mI3hhOzwvc3ZnPg==;container=0;" parent="wUW49xOCrfoHEJadxzmI-112" vertex="1">
          <mxGeometry x="147.13773115605076" y="22.617732558139537" width="105.72135827836057" height="66.9953498431924" as="geometry" />
        </mxCell>
        <mxCell id="wUW49xOCrfoHEJadxzmI-96" value="" style="sketch=0;outlineConnect=0;fontColor=#232F3E;gradientColor=none;fillColor=#2E27AD;strokeColor=none;dashed=0;verticalLabelPosition=bottom;verticalAlign=top;align=center;html=1;fontSize=12;fontStyle=0;aspect=fixed;pointerEvents=1;shape=mxgraph.aws4.rds_mysql_instance;container=0;" parent="wUW49xOCrfoHEJadxzmI-112" vertex="1">
          <mxGeometry x="18.25813777441338" y="22.617732558139537" width="66.52644100789446" height="66.52644100789446" as="geometry" />
        </mxCell>
        <mxCell id="tP0SpdOw3gQdtKeM86X0-24" value="" style="group" vertex="1" connectable="0" parent="1">
          <mxGeometry x="-3174.9" y="1539" width="639.4000000000001" height="453" as="geometry" />
        </mxCell>
        <mxCell id="wUW49xOCrfoHEJadxzmI-103" value="" style="rounded=0;whiteSpace=wrap;html=1;" parent="tP0SpdOw3gQdtKeM86X0-24" vertex="1">
          <mxGeometry width="158" height="161" as="geometry" />
        </mxCell>
        <mxCell id="wUW49xOCrfoHEJadxzmI-100" value="" style="shape=image;verticalLabelPosition=bottom;labelBackgroundColor=default;verticalAlign=top;aspect=fixed;imageAspect=0;image=data:image/png,iVBORw0KGgoAAAANSUhEUgAAAWIAAAE5CAYAAACqFSpOAAAgAElEQVR4nOy9Z3sb15at+1YOyMxB0XHv093n//+L+9zT5/a2ZcuSmBNS5Vz3w6oCKW9bmSRArtemSQWTIAEMzJprzDGVuq5rJBKJRHJvqPd9AyQSieSxI4VYIpFI7hkpxBKJRHLPSCGWSCSSe0YKsUQikdwzUoglEonknpFCLJFIJPeMFGKJRCK5Z6QQSyQSyT0jhVgikUjuGSnEEolEcs9IIZZIJJJ7RgqxRCKR3DNSiCUSieSekUIskUgk94wUYolEIrlnpBBLJBLJPSOFWCKRSO4ZKcQSiURyz0ghlkgkkntGCrFEIpHcM1KIJRKJ5J7R7/sGSB4WNTXi35q6rqipqepKfFzXVFSL329/T3ws3kP9F59VQVEUFv8oKoqioCLeK4qKgoq6+Pj6vfhXuesfg0TyWUghlnwzWkGt6oqqKinrgqLKxVuZLz4uq5yiLigr8eft363rkqoR4rquhXw2gquqKqqioyk6mqqjqwZ6815TjebXRvNrHV3VURUNpbnoUxQpxpLlRQqx5DNohbamqkuqWghoWV2LalHl5GVOXqXkZUpeZmQ3Pi6q7FqMm/+nrAuqqnivWm4L47biVRUNTdHQVANNEQJsaAa6aqKrJoYm3puahaGaGJol3lQDXTPRVR1NMdBUTQi6qqE2lbQUacl9I4VY8om0IlySlzlZmZKWEXEeEucBUeYT5QFxEZDkIXERkhYRWZkIUa6yhfhWlRDxivK6bdG0KpqvtPiqSvNf0ZpQhXgqQkQ1RWsqZFEFtwJsag627mDrXVyji2v0cI0ejtHFNjrYuoulu5iaJSpnNCnGkntFCrHk3xD92oqqrm5UuhlZmZIVCUkREuchUe4T5j5R5jVC7Is/+5MIiwq4oKoL0baoK5pGxqIvXC+09696xDf6vP/WKxbirCoaumI0lXIrxi6O3sUxurhmfyHKjtHDNbo4egfLcLE0R4jyonLWF31o2V+W3AVKXdd//ciXPEraHm9Z5aRlIgQ38/CzGX4yYZ6O8dMpYT4nzn2SIiYr46btkFPWOWVdilZDXVFRCmFvWw4L0W16wTf++2nckMYbQvl+xXyjlaG0feS2WrYXAt01B/StNfr2OgNrna41omP2sA0XQ7XQVF2KseROkEL8yGlbAmVVkFc5WZGQFjFxERBmHkE2J0ineOkUP53gJROCfEacB6Rl1LQciveEdvlQGpeF1rQwLCzdwTV6dM0RfWuNgb1B31qjZ43omH0co4vTtDAMzWrEXLt2Y0gk3xApxI+YVoTzMiPOQ/x0xiy5ZBpfMInP8JIxQXYtulmZLA7cyrqgrMvGglZ9QWV717TtDGXRymjdFqZqY+kOtt4R4mwN6VvrjOwt1pxtBvYGXWuAbbjoqoGqqCDFWPINkUL8yLiugEuypvUQZHO8ZMwsuWQSnTOJz5klFwTZlDgPycpkYS+rl1psvwwFRfSYVRNTd3D1Hj1rxMDeYN3ZYeRsM3Q26Fnr9KwBdlMla0p7yCdFWfJ1SCF+RLQ+37zMSPKQWXLFeXDIZXjEVXTMPLkizOckhRDfohSV701nw0OlPfwTgtxUypqDo3fomkMG9iYbnX32ei9Zd/cY2GvYhtuIsRxQlXwd0jXxwLnZA87KlCQPCTOPeTphHJ5yFrzjMjxmmpwRZnOyKqGqCx7b67P4OQlbXVFlACiKh6fool2TXOKlE5I8JEjnrLnb9O01HKOLpTsYqnkvh3s3PdfiNsvqfBWRFfEDZlEBVxlxFjBLrrgMjriMThiHx0yTS/x0QlT4ZEVMUWWLoQoJtId8YpDExNbcpjreYORss+7usunus+ZuM7DXcYwumqo3PeTbZzEaXreHpErjGpFivGpIIX6A1HVFWVfkZUpSRATZjFl8yVV0yrl/wFV0wjQ+J8znZGXc9H+X1fGwLAiR01UTW+/QM0cMnS023X02OvtsuLsMnA26pugh66qBqmq3Wh2XVUleCp92VZeoio5tOOiqcWtfU3I7SCF+YNTUlFVBWiR4yYSL8JCL4JDz4B2T+Aw/nRLlvugB1+IJLEX402j7yK032dIdHL1L31pn3d1jq/uU3d5L1t0detYQS3du1e6WFgl+Kg5U8zLD0m3W3G0co3MrX09ye8ge8QOg7QMXVU5aJES5j5dMGEennPpvuQgOuIqO8dPpdQUshfezudlHzquUpBRXG342xc9mjdUvJMzmrLu7ix6yqVmozVj2N7stdU1WJkzjS+bJmLzM6FoDOmYfW3dle2LFkEL8ABBe4JwwmzOOzrkMjzgL3nEVHjNNzgmyGWkRkZeZqIClCH8T6rqmpCQpQsqqIC4CZskF58E7drrP2e49Z7v7jKG9Iapj1fgmAtlOKsZ5wEV4yFV4QlHlrJc7bHX2qOsRyDCjlUIK8QojTvhz4jzES6dMojPOgwMugkMuwgNmySVR7pNXqWw/3ArioKxor0bKmCjzCDOPOPcJc0+4VDp7DOx1OuYASxc93K9xV4jgpZQgnXMVHnMeHFDVFaqiEucBRZWjawYK2jf+fiW3hRTiFaX1AwfZnKvwlMP5K86Ct1yFJ3jpFXERiEGMSh7E3RV1XZFXKUE2Ja8SvGzCVXjMRucJe72XbHefsdHZo2P2F1a3L6GsCsLMY5ZcMo5OuYpOUBQF1+gS5j5pmaCqGqoihXhVkEK8ctQUVUFWJHjphIvgmFP/Dw7mr7gMD/HSMUkRPvgBjGWk7SGnZUxWJcSF8BwHmRiSSYqQvMrYcHfpWkMs3f7sw7wa0RueJVeMo1NmjQVRVTWCbE6YzUnysIn4lO6JVUEK8UohLoWzImESX3DiveHN9L859d82bQivaUNIEb5v6rqmrHLi2qeKC5IiwEvH+OmMcPAjT4c/MlI3mzbFp1WurW84KSIuw2MugkPR/y9j1EolLnzx+TMP1+xh4dzydyn5VkghXgnawYyctIiYNiJ8OH/FwfxXxtEpaRlRVgWyBbE8iOzljLLOScpw0Soq6wJN1Sirgr716aPSVVWSlSl+OuUyPGYcn5GVCXVdUlKSFjF+NiXI5oyqrTv6LiXfAinEK0Bd15R1SZT5XIbHnPh/8Hb6P5wH75gll6RlRFWXSBFeTsTS1JK4CLgID8irjLxMCTOPp4OfWHd3RLLbB4S4RkxI+umMcXQuskHSK6q6RFMNqrogr1L8ZIqXTshLcUArnROrgRTiJUZMyIlKJ8jmjKNTTrw/OPZec+K9ZppckDfJaJLlRhyuXk/BtY4XgKLKGDnbdMw+umY0u/SUG/+veBxEuc9FIKyJs/iCoszoGAMcvUuUe9R1JXzN6YS0SCjrEk2ugVoJpBAvMa0IT6JzjrzfOfZec+a/ZRqfEeRz8jJpKmHJKiACeiqSImIcnZCXKXER4iUTno/+yVb3KT1rgKnZoFzvIqnqiqxMmcdjDua/cDj7FT+bYWgWO92XKIrCefiOrEwI8znzZExcBBRlhtLEdUqWGynES0i7Ky7KPSbROaf+W97O/sWp/4ZpfEaU+00+hAznWTVq6iZYX2yvFtut04UbYrP7hIG1tsirAMjKFC8Zcxkec+a/ZRKfAzV9a43d/ktUVLIyZhqfN1dPM6LMIy1iNFVHk37ipUcK8RIiRDjgMjjhj+n/5Wj+G+fhAV56RVYkN0J6JKtK26rw6yllLabzZsklzzOPvf5LNjt7uEYPBYWkCDkPDjnx/mAcnZCVMT1rja3uU/b736Gg4Kdjkjxkno4Jszl+OiPKfSzdxtDM+/52JR9BCvES0S7t9LM5V+EJR/PfeTf7hTP/DX42IS0jKcAPiKouF06Kdut1TU1ZFyjAwNlEUzRm8RVn/lvOgwOi3EdXDdbdXXa6L9hwd6nqipG7wzwZM0/HxEXIPBnjJRM6Zh9LZk8sPVKIlwbhOw0zj4vgiNfj/8Ph/BWX4QF+OiGvMinCD5K6EeSYWXJBWRekRUhVFWxkHqbmMI3POPZeM45PqKnp2+vs979nr/8dXWtIUeWM7C0m9hnn4bumB33G0N5k5G7RMQeoMntiqZFCvAS0p+Jh5nEeHHE0/42D+a+c+28J8hl5UylJHiY1Ij86KUKKKqOuKzTFwE9nWLqLn064ik5Ii4S+NWK784yd7nPW3R0co0NWJPTtNfr2OoZmk2Yz5s0S2DgPKascRWZPLDVSiJeAa3fEBX9M/pt3s1+4CA8I8pl4YkoRfhS0UaZ+OuFw/iuX0RGGapGXGX46xTW67PV+4Pnwn2x29uiaA3TVoFJLuuaAnjXC1jsE2RQ/mzJLL5rs6VRmTyw5UojvkbquqeqKJA+ZxBec+m849n7nPHiHn03IygQ5pPF4aLMqkjIiT3K0TBch9IpYZjq0N9nrv2S394KevYapWWKVk6rjGF06Zh/X6KIpOkkZEmTThXvC1CyQ2RNLi1w/e49UzTqjWTLmYPYrb6f/w2V4RJBPG7O/FOHHiJikzCnKlKyMURSFkbPNTu8lO91nrLnbWJrd9HwVVEXD0m1cvdsczjlUVUGchwS5J9oTcuhnqZFCfA+IQJiCOA+4aqblDmevOPXf4KVjMjmo8cipFx5xXTXomgN2us/Z633HyN3GNXuNx1gcvintLj2jQ9cc4Ro9ANIiIkhnBNl8McUnWU6kEN8D4pQ8ZRpf8sfk//Lq6v/h0PuVcXxKWsYyP1iCgoKhmY1f+BnPR//kyeAHuuagCQi6dkC07QlLdxjY6/TMNTRVJy0TvGTcZE9I180yI3vEd0gbY5gWMbPkilP/DQezXzn2fmOanJMUgRRhCaqioSsGXXPETvcF+/0f2Ok9Z+RsLTKMb6KIeWhMzaZvrdOz19B9i6xMxD69dEJaJk2VLW1sy4isiO+QtiURZDMOZ7/xdvr/ceK/ZpqckzWVsHRISDRFxzH6bLj7vBz9Jy9H/4uRs4ml23/rfLiuoEfNiLTThADN8dIJaRFRyKWxS4sU4juipqYoM4J0xmV4wrH3G8fea2bJhQhoqeST5LHT9no75rAZX/6BJ/3v2ew+wTV6H12vpKsGHbNPt7GxKYpKUgSEzXbpvEzl2cOSIlsTd0DbkoibzICjuRDhcXRCWkSyHSEBmkpY77Hu7vH92n/xbPAPNrr7jQh/3HomKukuHaOPa/QxVFPkHudimWlaxE3uhLSxLRuyIr4DqqoSO+aSaeMVfs0kPiXM5xRVhhThx42ohA06Rp/NzhOe9H/gaf8ndnrP6ZlDDM1E/cj2DhC9ZUuzcY0eXXOApbuUdUFShM1m6ZCykhXxMiKF+A4oqpwg87iKTjjyfuc0eEOU+1R1KdsREjRFw9I6jJwdvhv9J9+v/W+2e8/oWUN0zfzk5aKqoqCrBrbh0rPW6BgDQFksFggzX9rYlhQpxLdITTM5V0SMo1POgwMuwyO85GqRtCV5vKiKhqnZdE2RH/G0/xNPhz+z23tB31rD1OzPC3VXFFRVw9Jc+tYGfWsNXTXIq4ww85orMCnEy4jsEd8idV2LajidceL9wYn3Gj+dyIENCQoKumrSNQZsdp7yYvQfPBn8wE73GX17DUMzP9tmtrCx6TYjZ5Ohs4UduGJzR+YRZvMmVEjusls2pBDfIkWZEWRzJtEpZ8FbLsMj2ZJ49Choio6pWfSsNTbdJ+z3f+DF8J9s9Z7Ss4Y3xpe/5LMrmJpJ31pjYK9j6x2yMiEufIJsRtY4J1S5y26pkEJ8S9R1TVLEXIYnnPhvuAgOmCUX5JVsSTxeFBRFwdRshvYmO90XvFz7T/b737Hm7og0Nc1YZEh8KZpq0LH69C0x7hxmc+I8IMhmwk9cFRiaImMxlwgpxLdAmy8cFyGT+JxxdE6Ye01/ToS0iEWSrSRLYX7YCAE2VBNL7yxE+En/B54Nf2ajs4djdDBu5Ed8DZqiYesurtmjY/aZJdaiPZEUEXmVoslYzKVCCvEtIFLVMuI8wEvGRPm8SchyKaqcshKLIysqaMJdZJX8cFEU0Y5wjQGbnSfs9b7j+fAfbHefMXA2cIwOmqLzLURYfD1hh7N1l445xNJdvGRMnAdEeXAdiyn9xEuDFOJboobmyddj5Gxj6g5pEZKXGXmVkZcpRZU1b/lCoIu6oKwK0UeuKynQK4uCqqhoigjj6ZgD1p099vs/sNf/nv3+S4b2JoZmoanftjJdhABpDl1ziKv3mNWXJEVI1PiJXaOL7EwsD1KIbwFFUTFUk6Gzwffqf7Hbf0FWJGRlSl6lZEVCWkbEebioUqLcI8o8wsInKUKyIqaoMnmwt5KIVoSuGji6eCHe7b1kr/cdu/2XrLnbdIw+hmZ90qDGF3x1UMDQLHrmUOysU5RFeyLKfAb2+jf/upIvRwrxLSAqEg3H6IqDmXqLqiooqoKiysmbwO+kEGIc5T5R5hHkc8Ksect94twnzgOyMiavMqq6kMFAS05rS7N0h645Ys3ZYav7jP3e92x3n7LW2aFj9FCV23UtiNth0DEHdMw+mqpTNH7iaHFeIVkWpBDfAm1FoqGhagp6rVNr5mI1Ul1XVHVJWReUVSnEucrIipi4GUf10ymT6JzL8JBpfIGfTUiKkJICZMtiKVGag1hb77Du7rHTfcGz4c+iF2yv0zH7mJp96yLcoqkGrtHDNXoYqkVciCuvQPqJlw4pxJ+IcDm0AT7V4n3VfNwK7PWfA38VxK0oKM2lq6poaLqBhQOIQ76iykmLmCj3Gdqb9Kwh4+iUWXJJkM2I84C0jMjKhKLKKJtesuT+UBUVVRE9WcfosubssNt9yV7/e54MfmTN3cLSnI+mp31rNFXDNlxco4up28RFQFyIK7C8zKjqClXmEy8FUog/gTY9rbWl3WwzFFVG3h62lTlFnVNW5Y3DtmuEAKtoioamamiqjqYa6KqOphji183+MVOz6Jh91t0dwiZTdhZfMYnPmMTnTOMz4QstY0pyuX3hnhBtKANb6wpbWu8Fu90X7PZfsO7u0rNGWLrzb1s17gLh1HGwDRdLc5pYzKgRYjHYoTSFgeR+kUJ8g1Zwq7qkqsrGwZA3Lodrt4N4Ex9n1fWviyoT1rSqFJUq1XtF8bUQq9cCrBromomhijdTEyJsaBa6aqAqKh1zgKHZOHoPt8mb7ZoD5skVfjYhyn3SMqYo5eHe7aOgNlczumpiasIRMbQ22ejss9d7yXb3KevuLh1rsLgP7wNVUTE1C1t3sXUXTTHIyqR5vCQUVS5u2z3dPsk1Uogb2pZCWZVkZUKSi8ohzERPLchmRLlHnAckhWgN5GVK3tjPhAA3tjMqqr/MGBaVh6qoKIoqWhOKhqro6KohxFizRBWjd3CMLq7RwzG62HoHU7PY7Oyz5myz1/sOL73iIjziKjzmKjolyKbkZUJZl3/xtSVfj9J4go3GGjZizd1ho/OE3e5zNjp7DOyNZpOyja4a93rZrzZB85bu4hg9TM1qDogD0iIiL1N01ZAutiXgkQpx3awsr4R3t8rJFk6GmDgPCNM5QTbHz6aLTbhR7pEUoagmynTh/63qsnmraCSdD41oKFz3iRVUlEaQNVVHb8TY1lxsvUPH7NMxB3TNIR2zL/p9mo2m6nSMIRtOhaYY6KrFPO2KbQyF2MZQ1rkMnf9Krq9idAzNxNJcXKNHz1pjaIsqeLOzz1bnKX17HVt37l2Ar2+7iqbqmE1GsaU5ohpu3DppmWDpzn3fTAmPVIiFCJekhbhM89Mp8/iKeTrGS8f46bSpgMVWA3EwJoS3rK/7vzcP6IS4w03R+3v5a0VaQaGEuqBEQalUFCVGLVTCG5Wy3rQsLM1uKuWesCUZfRyjx6a7z9DeJMhmXIZHTOJz5uklcR7I/vFX0L5Y6qqJo3foWWtsuHtsuPtsdPYYOlv0rBEdo49tuJiadWeOiE9CARUVQ7NwzT620aWOz0iLmLgQVXFl9u/7Vkp4JELc9n7LqiCvMvFAzAOCbM48uWKeXDGNL/GSK1EBZ3Pi3G8EOKei/KaV5eKz1H+qmv/y0yuNLUr0lU3Vwja6dM0hfWudkb2Fa4rhAEtz6FvCqK8pGoE6JS4CsjKhrAvprvgIbfUr+r8GhiraRK7Rp2+tMXK22eo8Yd3dY83dEUlpNyrgZTv0am2U7fYP1+iiKApZlRLlQbOxo7jvmynhsQhxI8JxHjBPJkzic1E5RmdMkwuCbEqSh6RlTN5Wvosx4+tWwz3demoQt6WqqeqCvEqJc59ZcsF58A7H6ODoPRyjh6N3GFgbuEafIJsxjk6uPch1Lg/y/gZFUVDR0FTR/3XNPgNrnTVnlzV3h3V3h6G9IUaGzS6m5jQrjLSlFOGWdrCj9RNrihjsiDKPKPcpainEy8CDFeKamqpqfbkRQTZnllwxDk+5io65DI+Zxuf42ZSkCBuD+7IOSjQvBU1bpCAnLWOUXJzeG5qFo/fomkMG9ga23hU9TdXCNQaLF5SUSFbGDX+ufk3NEYllTdunZ40Y2lusu7usOdsMm0M4U7fRlLv1A38tmiqWijpGF001KJoDuyj3KSvx4rysLySPhQcpxG0rIi9TgsxjHJ1y4v3BeXDAOD4RSVSF6P8WTRLa8orw3yMGScqFJzQtI7xsLCxwqoOpOViaS8/caPrXCmkZUtQ5j/kArxXhtvfeNYeMnB3WnB023B0G9gZda9j04DvYuvuenXCVRBianXi603wfJmkRkRQi5yQvmzMEBSnG98iDEuL2AC0rU5I8xEsnTKJzzoNDjr3XXEVHzNMrkiJ4MBNpNbUYlS4LsjJBKYS9ytRsHL1Pz2wnvzQ0xUB54GsKhZgoi3ZBW/Wq7RCNYjR+bQtL7+AaPfr2OuvOHuvuLuvuNj1rhGN0GneK1viAV1ek1GZIyNLFgSIKi3OS9kpQQVvlb3HleUBCLKrDtEjwkglnwQHnwTvOgneMozP8dCwmiqq0EeGHWRHWdU1JISbuGk90m3VbU9GK1J8dHqtPI8GK2Dwh7ICt48QSrQejg6uLVfM9a0TPGtG1hnTNIV1rICxeuoOhWovg9K/dlrEMqIoqDh41G0OzUVCFV76IyEsxJq8oqqyI75GVF2LRCy7Jq5Qo85klV1wGx5z4f3AWvOMqPCHIps3CzmLl2g9fghjFrqgoKKq0GZ82aX5ad3xrbjy9lfZj5f0/u/H7i4+Um3/nZoXbeq/VJq9DRUWIpqpqaO8NxwjLn9VMljnNgVUrxCKZrCeGZXSrcT88PEFSFBVdMzF18fPQFJ28yhbbOsqqENui5YTdvbHSQtz2gtMywUvGXARHHM5fcRa8ZRyd4qcTkjJqRn9Xrwf8tbQ95JqashSn49/aivf3XAvqvw2woEAjeK2YKoraBNCoiyAaIYo3JhBvCK0YDW8EV7WaqtfG0h0s3RXiq7Uf283ouI2hiYEZQzWbz6OjqfriNjw0EYbrjR1m86KkawZ5mYnwqEJYNA3NvO+b+ahZSSFuBbgoM+IiYhZfcREccOL/weH8FVfRMWE+JyuTRz9ZJn5WJVB+k88nRFS5Fs0bPdj3P77uy77/e83faSYK1cXneP//bdPpVFoBbkKS2iGXJp9DvP+TEGs2pu78W27Hot3QvAA8FhTExo52MtBQLdIiahYUiFF9S7eRq5Puj9UU4sYXHGQeF8EhJ/4bDma/chke4KVj4iKgqOR477fmfcuXucjGaKvN67dGBHUbU7UwNPO6im3EtK1u/1rIr7M42gq5PTRb/N1GnNs0u+vf/9OvlVbwlcWLyEOsej+E0rxw6qqJ3RzYiUPtpJkcTZvxfMl9sVJC3MZQJkWEn864Ck849l5z4r3mxP+DeXJFXqVU0qT+VdzMS1YVvcnAaNsA9nstAFsXEYuiEnUWlailOYtq1NDMvxBh7VpoW9FFFYJ5o00ghLh9AWj7w9c9Y5Tr7rLkrxE/teuFopbmQGPvTIqQtBAHu5L7Y6WEuKxLkjxiHJ1xOH/Fsfea8+Ad0+ScMPPIq7S5DJd8KTdDbswb2RZdU7gLetaoCSASqXBWU/3erHq1P1Ws6p+E9ebhG7QHc393UNe8V97/dfMvq+5ouCtEZobeHEy6oCjkVSb2JhZi1Flu7Lg/VkKI24zgKPO5is448f7gzfR/OPPfMEvOiQp/MT0m+XxaYRT+Ywtb7+AafZF93CS/dU1h9+qZIzrWANfoYOmi37g49FoMOzyuHuxtcjMe6mtRFV0cXjYh8XmZ4qdTvGTCyN4UmcWLg0t5/90lKyHErT94Gl/yx+S/OZj9ynnwlnl61djSpAh/Da0Iu0aPgb3FhrvLVucZa+42XWuIa/Sw9bbyvRbeRQ+2bRfcqFwlX097KA0sfqRfI8iaojV2PhtN0YiLkFl8yVV4wsBaF0NARldkaMgVSnfKUgtxu2wzzsUD5sR/w9H8FSf+a7z0irSIHp0l7VuwaD+oIo9CZCz0GdibbLh7bLpP2Oo+Zehs0mkCbvRGeOWT8+6o65qiSUe7nvD7ctqNHe0C06LKmCWXmIGNqZkkRUjPGuGavcVkoa4Zi2wN2Ye/PZZaiKu6Ii9T5smYd7NfeDf7F2fBO7x0TF6mUoS/gHbTsK6aOEaXgbXBmrvDVucZG+4uoyZj111smdAXB2lShO8O4QwqyYoUAMuwv1qIFUVtDk8tNFWksM3TC7IqwkvHDOwNhvYma842G53dJm95iKN30JYk7P6hspRCfD2oETGPx5z5bzmYv+LY/4N5cklaRrIV8Vk0AedtBoXRpWMOhAg7O2x09tjqiAq4aw7EssumVyi5e1p3UFFlZGWKqiiY9dcPXKjNhJ2hWeiKTk3dbJyJCXOPeXLJ1Dxj6pwzT65Yc3dYc7foW2u4Rn8RGiS2UT/M4Zf7YjmFuK4pqxw/nXE4e8Xb2S8ce78xiU5Jy1j6gz8T0QMWUYgje4fNzj7bvedsuHsM7HWRsdusXBcJY7IFcZ+IK8GMrBCLaTVFE46GrxQ+RVFF4JEq7IRtAFRZF9RlRVkVJEXAPL3iIjygZ40Y2eDO3OwAACAASURBVNusu7tsdZ6y5u4wsNdwjB6GZqAoctvdt2LphHgRX5nOuAgOOfR+49j7nUl8RlR4UoQ/A+HPFSflXWPAyNlmu/uc7e4ztrvPGDlbuGYPq+kZSvFdDlqbZlqIg2hV+zZXJqIiNtDbA1dFo0BZZJOUFGRlTFQE+NmUeTJu3q7EOrHkinV3h4GzuUioM1QTVdVkdfyVLJUQt4dzUeZz6r/l3ewXjuavuIqOxMGcFOFPRkE4IWy9w5qzw37/B3Z7L9nuPmPobDYCLA/hlo2amqLKCbI5WZE2Dgf1m8jcYtS58Xurqo5SKf/2lLpO8Aspk5wo95nEZ5ws1kU9Zb//HRudffr2CFtxF9khki9jaYS4pm4M5gFX0SlH8985nv/OOD4lzOdNdrAU4Y+joCkapmbRMYesOTvsdF/wdPAzO73nTRXcXQxbSJYHEdJUkRUJQTqnqHJxYKoZ3+S+agd1xEJaURH/tXg2WS719YabMJvhZ1O8dEKYzUmLmCgP2OzsM3Q2cIwupmbJ3vEXshRC3B7OxXnIeXDE4ezXxiHxljgPVnJ7xv0gDuVMzWZgb7LTfc7z4f9it/eCdXeHrjUUYeeyAl5K2t5wXET42RRqWHe3MTTrmxycKs2LtNYKsfppK5/aFL+0jClT0b7w0wlX0TH7/e/Z7b1kp/ecgb2OoZmyd/wFLIUQV1VJVqZ4yZgT7w8O579xER7ipWO58PITEZedBpbmMrQ32e29YH/wI8+H/2DT3ccxuxiqKQV4iWkX3EaZR1JEi8S4Nif561EWkaJtkt2nbmypEQfoZZWTlylxHhAX4SI4qKxL8ipjYK/j6B3Z7vpMlkKIiyonSGdchscczP7FsfcbQTYTIixtah+lHVG2NZd1d5/9/ve8HP0Hu/0XDOwNsb33E6sfyf1RlBleMsFLJ1RVgaY5TXaH/k0u9xWlaU+oGrry5WcDdV2RVyl+OqEoU6LcJ8w9wmzOi9E/0VwdU7OazTCST+Fef1JtSyIpRJDPefCOy/CIWXLRpKjJaL6P0a5Lt/QO684uT/o/8mz4M08GP7LmbosnhCqfEMvM4nlQxsySS/xkiqKoWLo4TG3T5r6eJmypTdX72x7xp9zekqyMyauEvMooq5yqKtFVnbIqGDgbuEZ3YYeUfJj7FeL6+oT41H/DifcGP5uSNwsNJR+mrYQtvcOm+4T9/o/8sP6/2em9YGCvYWqWfBKsAO3zQIRanRJnAevuLl1zgP6N20lislKMt6uqvogR/aLbTQ01pGXMJD6jrAuyKsVLp6Il1tmnYw0wNXmA9zHuVYiLKifMPKbROWfBOy6jI+I8oKpLpEPi42iqjqW5rDnb7Pd/4NnwZ3b7L1hztkVwixThpaemblLQZkzjS+bJmKousXSHjtlHV7/d1ozFctUbAftfK5Bt7ziuC6q4pKgK8jIDxPN7q35K3xqha6bYiyf5S+5NiOu6JisSJtE5Z8EBl+FRE+yeIEX44wh3hNN4hH/k+/X/Yq//HX2rPbmW1rRl53230CHnwTvCbI5jdHGNLh2z/43bSsp1RfwVrYk/01bGWZkwT68oK+GsCDOvKaqgb41QdVtWxn/DvQhxO0sf5h4XwRHn/gHz5JKkCBZ3nOTvURUNQ7PoW+vs9r7j6eAndnqyEl41brqFzvy3XIbHVHWJo7s4ZhfbcNDUb31fNvs6VBHW/zWtiZvU1JR1QVmUVFXRnPGUmLpNm+E5UNZkz/hvuBchbk3rfjLhNHjDefiWqBFhaVX7OLpq0jVHbHWe8XL0Hzwd/sRAVsIrR+sWEiu/fifIZqy7ewydLRyjTTz7tvfnzc3Z6jea2HufmrLOiXOfq+gYRVHIy0RY5hSdrjXA1KQQ/5l7EeK8yvDTKZP4nKvwmFl8QVbEUoQ/Qhth6Ro9Nt0n7PW/Y6cZ1rB0R1YaK4JoSVTEecBleMJ5eMg0vgCgZ44Y2VtYmtsI5TeUyhvh8tebrL+9FFd1RVWnhJmYiFVQcY3e9XZuaygnO//EnQtxXdekRdzY1Q6ZJ5dERUApF35+lJstiWfDn3k+/AcjZ0vEVkoRXhnqZoLOS6cce79x6r8hq1L61hpr7jYjZ1OMC99iP3WxO/DWvgKUtcipuIqO0ScGZVWKPGTVxDZcdCnEC+5UiOu6oqrLJk/ihKvomCCfN0s/ZTX8MXTNpGeuseHusdt7wVbnCR2z901P1iW3T15m+OmMcXTGWXDAPLnC1GxG9hZDZ4OuNcTQvj5/+O+4uZz1NhGVcUaQzTgP3qGrBn1L2CrXlB00Qw4ZtdypELez9GHmcRUdM45OZaraJ6IoCpbmstHZZ6f3knV3j641lCK8YogBppjL8IQz/y3j6ISsStlz94X/21rHflBtppqiygjyGZfREZ35QIziG674PpGj0HDHQlzWJXER4qdTpvGlGJGsMqQIfxi1CWrpmgO2Ok/Z7jylb61h6Y58EK8QVV021fCU8+AdF8EhUe4LL7i7y2ZnH7fxDj+k+7VqpvC8dMJZ8BZLdxk6m9iag2N00DXz0dva7lSIi0pcks2SK/xsSlyElJXsDX8MTdFx9C4De5Pt7jM2u/vYhisXOq4Y7QDTJDrjxPuDy+gYauhZIzY6e6y52zdeXB/W/VrXNVkzgWdrLiN7G1Oz2ezs0VENUL5uQ/Wqc2dC3A5wzOJLJvE5UeaRVwkV0jf897QjzGJwY7vzjI3OnhjaUGUVsSqIhQclUR5wGR5zGrxtpkh9uk1m9MjZpGsO0VWT2xbh61bg3V6JllVOlHlM4jOOvd8xNBOz2Rby2DNR7uQ7bzdviHCfU8bRKUkRCt+wPKT7W9pdcx1jyH7/B54OfmLkbGEb7qN+0K4a4tI8ZR5fNdvIf2GWXKIpGmvuLtvdZ/St0WIbx+1TU9X1ned8i80fOX425cj7FajFrkTNZmCvPerH9J185+KQLiXMfKbxBfPkkqxMpAh/BE3RsDSHvr3GTvcZW92ndM2BzBVeERbbyIuYWXLFWXDAifeaq/CYosro2ptsdvbZ7O6LqFLlll0ENVCL2yQcTHf7/Lv+eURM4nMM1WbkbGPrYruHoVmPtt12J0Jc1gVxERFkM+bpFUE2aw7pJB9CVw265lBs0u3sMnQ2mnU0j++BuoqIbeQFfjbjaP4776b/4jw8IMo9LN1tlrk+XQzk3MX9WnPdKrmvK1JxaJngZWNOvNdYukPfHuE2VszH+Pi+E0e1MK9PFk6JWA5wfBQFBUO1GdgbrLk79K11HKOLJu1qS0+7ey4tYqbxBWf+Ow7nrzjx/8BPJwAMrQ02O09Yc7ab3vBd3K81NRUVFWVV3lukQJtLEec+l9ExF8Ehs/iSKPMpq/zOb88ycOsVcV3XpGXMODzlKjwmyObkpQx9/xDKjUO6dWeXDXcP13i81cKq0eYLe+mEg9krDma/cjD/hUl0Rl6mYp9g7wV7ve/o3WFu9M1quKwLynvOdhEuqjFX0QmX4bFou2lmM8zyuB7nt1oRt4d0aREziy+YxOckRUhZF7I//AHaQzpH7zB0thjam02WhAzYXnZqanEwl4y5CA45nP/KkfeKcXRCUoToqsXA3hA2xM4+jtFFVe9qqKGpiOuSos7v/XlYVgVJEeKlYy7DI8bxGUkRUT3CZcG3K8SIHlmaR8zTMV46JitTOUn3ERRFxdAsHKPHwN6gZ6/d6sir5NtwHebjc+a/493sFw7nv3IZHhAXAZqq07fX2XD3mzX0t58p8f7tEwfnZV1SVgVlVVBzf1em7XbopAi4jI64CMWAS1k9PjfVrQpxVVfkVUbSHNRFuUcpJ+k+iqromJqLa/TpWkNcoysXMS45NTVFmRNmPpPonGPvNcfz3xlHp4S5R1VX2HqHDXePre5Ths6m2Ol2l/dr65aoCrGReQmuTMUVRDNfEJ0RpDPSIn50ueS3LMTCPxkXIUkRkJWP7wf8JWiKjmN06ZgDXL2LpdkPKHvg4XHTpnYVnnI8f83h/FfOw3fERQAoGKpFzxqx13vJbvdFY1e725wFcYVaUVQFRZU3FfH9F0VFlRPmc7xkzDwZE2Rzikd2aHfrQpwWEUkRkBSRPKT7RHTVoGP06ZpDLMNF1wxUeUi3lLSVcJT5jKMzjua/cTh/xWV4iJdOKMoMQzXpW2tsuPtsdZ+x7u5g626Tx3uHQlwLt0JR5UKI62IplvRWdUHaXDWLOYMxeZkuxYvEXXGrQlxWJUkREeWiGi6q7F57UquBgq4a9MwRPWt0XQ1LIV463q+ETzicv+L15P/l3fwXvHSysGI5Rped7nP2+z+w2dm/t9S8moqyyinKjKLKlqYibl8gokLE406iM5IiFoMnS3D77oJbbVAJr2BAnPlkZSrsMo+sCf95KI1/2KRjDhZ2nsc6bbTMtJVwUkRMonOOvN85mP3Cif+GaXxGUWWoioqtd1hzdtjtfc9u7+W9pua1MbRZmZCXGVVdwBI8H9tDzrSIFu6qOA8oqwJNfRyZxbcrxFVBnIdEeUBRZnc+275qiHXnwjHRMfuLdepShJeLVjiSIuQyPOFo/juvJ/+HU/8NXnrVXPnVWHqHdXefvd4PPB38yHb3KY7RubcX1qquyMqEtExuVMTLcoUqcou9dMwsuSDKPLIiwTKEbfOhc4tCXC98gnERUtSFlOCPoSiLdUiO0cPWpVtimWgFOCtTojxgEp1xNH/N0fwVp/4fTONz8ipDASzNZWBvsNf7nqeDH9nsPKFnjTC0+3thraqStIjFeU2VLV3oVlHlRLmHn04JshlxEaJr5qNYfnBLz/K66fvkJEVIWkRUVYG0rX0YBRVN1TFUC1t3sXQb9ZuvU5d8KXVdkVc5XjrlzHvLsfdaHMxFR/jphLwSV32m7tC31tnpvuC7tf/gyeAH+nYjwvdY3bWZL3FzhSoGJ5aHqi5Jy4Qo9/DSKWE2xzW6gH3fN+3WuRUhFuMazTBHGZOWMaW0rX2UdqJO10xMzcbQrEdxWbbstIdySRHjJRPOg0Pezf7Fsfeai+AdfjahqHLqum62bPfZ6j5lv/89O73nrDnbzX15vy+qolUYCCGucu4jk/hD1HVF0cwd+OmUIJ0xdDbv+2bdCbdTETejzUVdkJcpedMflnwYBQVN0dAVA10z0FUd5W5ymSQfoM2O8JNJkxvxK0fzV4zjU5I8bES4QlV0LM1hYG/ybPAzTwc/M7DXl0KE2+8hzn1xEFbnS3deU1NDXZGXCX46wc9mzdlS/eAP7G6vIq5rqkrs6CqqjGppDgWWFyHEOrpqoCvG7efTSj5IG5AjKrQZZ/5bDua/cDj/javoiDCbNwfQLEKahvYW252n7PZestnZaxLz7rfP32a+5FVGlAci/XBJV5TV1ORVRpDNRUBYc/AJD3uV0u31iNtwkSqnbCoGyYdRFAVV1dBUHU3VZcjPPdP2LGfJFYezVxzOX3E4/1VUwkW4cAEpiio2qZiD5nDuZ9Y7uwvXy30jMh3E1WlcBE3w1vK2CtsWSpR5ZGVKVZdoPGwv/a1VxFVdU1ZNuMg9x+2tCgrCNaE1b/d5sPOYEQVEQZT7zOJLzvx3vJ39i1PvdZMdMb8WYRRM1aJjDth0n/Bk8AO7/Zf0rdHShPi3h4xpERPn/iIBcVkRh4ohUe6TlQlFlaNoKg/52PrWesRiFUu5eFsG4/jSoyioioraZBCIavj+n8iPibquyUuxbfkiPOLd7BdOmkO5eXpFWkTvibCiqDhGj53uS54P/8HTwY9sdfaaEebluP+quiQrYlFlNkJcLWlrAtrbGzWOq5i8zMWVxQPOW7m15lV9oz1RL5lNZrlRmkuw5XgSPwZaV0RRZaRFjJdOGUdnnPpveDv9FxfhAX46Ji3jRYSrgoKumjhGl3V3jyf9H3nS/5F1d5eOOWgO55bj/msHq8LcI84DsjJZ6syXqq7IqpS0iBshTrH0h21hu9XDOjEr3k7TSSmWLCetoyBI51yFp5wF7zj2fuciPGQanxPm88XpPTcqYVvvsuk+5engZ16M/slO7wUds7+4olkWiionyOb46ZSkEC6PZT48Fza2nKxKFkL80FMbb+2wrh3qaN8kn0rdtHHki9dt0/aCkyLET2eMo1NO/bec+W85C94ySy5Ji+iG51YIsKGa2HqXDXePJ4OfeDb4ia3uUwb2+tJlI9S12BjipRPmyZi0iJcih/hDtOFEeZmSlnFzYLe8Lxzfgtvz1dR/+wvJ39HYjNrRU3klcXu0veAo9xlHpxzNf+PEf8NFeMg8uSRuDoqEu6CxTzUj6K7RZ7vznCeDH3kx+g+2u8/oWcOlFOGqrkjLmFl8yTy5JLvRXllW6rqmQjiu0iJuWimyIv5qpAXr02hXx5TNm7T8fXsWE59Fgp9OuYpOOPPfcjh/xXlwIES4CP4toKpNxXOMHhvuPk+HP/N08BO7vecM7A0MzVi6KcgacYmf5CHz9AqvGcNeZhFuaavirEyEEFcP+7lwK0LcbiFWFFVYsJaoSlhmxBBMs8amyu9t3flD5To1LWISXXDqv+Xd7H84898ySy4IM4+8Sv5ShBVFwdY7bHWe8WzwM9+v/Sfb3ed0zP69Z0j8HW3aWpT7+InIbliFzRdiwg7Kumwmc9PFVeIyXXF8S26tIlZQURf/lQ6AT6GmpmyGYMTbcmxQWG3qxtPeDjSEzOJLTn1xINcOaKRFJAaP/vTCpzRB/SJXeJf9/g88GfzEdvcZQ2djqf3eRSU2h/jpjCCbCdvaEvuH/0y7ai0rM9ma+DKEBUtR1MYXq0oZ/gTqRjCKKievMnG6vcSHKstPvXBEJHkoVtyHR5wF7zj1XnMVneClY9Jm0uyvRFhpwt033Cc8GfzIy9F/sNd/Qccc3PnOuc+lKDO8dMIsuVoMR6yKoLUbp/Mya0Lsr3v1D7Gou53WhAJqM66rqjqqoi9t1bBM1FSUdUFeZqRFIvZ2rcgTZ5kQw0QVeZmSFBFh5jFPxlxFp5wH77gID7mKjgnS6SKX988oilj46ehd1txdnvZ/4ungZ3Z6zxnam83mlOV8TN9Mi5vGF0zjc5EvseRuiT/TFiZlU5A8XBm+xYpYVVSRJKYacsvEJyJaEwV5lS6mipY5E2AZETnYJVmR4KUTLsMTLoJDzoMDJvEpXjohyj3SJhz9r1o/1+6IHludZzzp/8jLtf9ku/usyRVeXhGGa190lPtchcdcRSfvTQSuBu1AmHhbpReQL+GWDuuakHNFx1BFwv4yP3CXhsa2k5cpUe4T5f7SpmQtE61Nq6jEPrYoC/DSCZPojLOmAr4Mj/HTCVkZUdT5Xz6x21aEqdm4Rp8Nd59ng595MviJ3d4Lhs4murp87og/U1QZYeoxiy8YR6fCtlYlKyTCDbW4uhEvlvVD7kzcXkWsKM22Cc2SAeefSJvHmlUJQTq9jgF8wKfFX0sbVZmVGWE2ZxKfcxkec+6/4yo6ZpZcNgdVEUV1ffr+V4hhDYuetcZu7zue9H/g+fAfbHb26ZiDpqBY7vvheqv0KWf+AZP4jGBF3BKPmdsRYqXJ1lVFULbZroSXfJSamrzM8NMZfjolK0QugIq69CJwF7QWtLIqRQVcCCdEmHnMkksuw2Muw0MuAjGYERUBeZV+cIhBbVpott6lb62x1XnKk8FP7Pe/Y6f3nJ41Wmp3REvVjAYH6Zzz4ICz4B3zdExaRitzSPceCuKgv42DfcDmq1vzEaMghFjvYGmuFOLPoKgy/GyKl45JGluVohkoDzoI8OMswnnKnLiICNIZ0/iCSXTGOD5lEp83FfCUJA+bybjigyLchvd0jAEbHdGK2Ou/ZLPzlKGzgWt0l94d0VJWBUkeMUsuOfZfcxa8Jcq9pVsS+mkowvyqas2ChOV+EfxabtFHDJqiY+sutuE2WwoUVmGq574pqpwwn18fLJUxqqo+yhezVnzLqmxcECFhNmeeTJgll4yjUybRGZPkbPHzEm6Tjx9MaYqOodn0zDW2Ok/Y63/P8+E/2Oo+pW+PmijLVQnnr8mrlHkq3CGiLXNBViYr60VXFVUc9jcDMwrKitwXn88tjjiL1oRjdHD0zqK/Jl6YpRh/iLIWGwqCbIaXzgizAEOz0FXzvm/anXKzAhaLO4UP+LJ5myUXzdr1gKyIF97rTxFhRVEwNJuBtcFu7yXfrf0X+/3vWXO3xLScaq2UCAu7WsRVcMy5f4CXNFdTKzTAcROFpmevmRia+eDPmG41a+K6Iu6iqxYqGhVybPdj1HVJXiZEmcc8vsJ3J3TMHpburIgwfD6t6FZ12Wx2EUMtWZEQ5yF+NmMSn3Puv+MyPGISn+Jn06b98NcuiH9HjCrrqoGluQzsjUV4z7PBz2x293EMt1lvtDo/53bwIUhnjUPkiDD3KOtsBVsS0DaDNUVrDvtNNCnEX46qali6i6N3MFQLVdFFPvEqPjbukLquKRHrYibxGaNoi5EjKrX2IPQhcd1+yN87fPPTKfPkillyyTS+EME1SduuiRbDGJ8qNooilrO6ep91d4/dntiqsdN9zsjdxjE6aEsU6P6pFFUuHCPROefBIeP49EbK2uohqmEFVdExNQtTtVDV1ejTfym3XBFr2LqLY3SxdQdDM6nKAlbxBPcOaW1saRExic8YRBtsd5/SNQeiOrjnrcBfSt1kLVdt5VsXTe5sRlomJHlElPuETYi5GM+9ZJ6M8dIxUT5vhlzyGzGhH6b1BmuqgaU5dIw+a84Ou72X7PW/Y6//PSNnE0t3lmLR5+fQOkjiPOQqPOU8OGAcn4qJwTK775v3FYiDOl3VMTW7sb8+7POR262IFQ1Ld5o+cRdLsymqlBLpafwYNTVZGTOJz+iaQybxS7rWkJ41FNXBilVtrXBWdUlR5mRlSpwHC9GdpVdCcJMxQTZb7FbLmmDwvEqvE+k+S4SbUWWjx8jZZrf7gp3eC3Z7Lxg523TNPqZuN5XwalE3LQkvnTQbpl8xTy5Jy3g17WoN4spFQ1dNLN3B1G3ZI/4aVEXD1MS8fscc4Bp9kiICktv8sg8GseJmxjg+5Sx4i60LG6Cq6miKtpQPzrbNUNeVyFVuQoyKMmuStMT6m7gIFu0HLx0zS8b4qRDhOPdJy4SiGUH+3DMFBRE0ZWgWtt6hZ44YOltsdp6w1/uOrc4T1txtXLO3Ev7gv0IMbogx7ovgiBP/Dy7CQ6Lcaw7oVrMtAe0MgoGhmZiPZA7hloW4iRA0OvStdXrmGn42ISmVle1f3SVVc2g3T654N/sFBUVUCJqFbbhLJ8TXwxZtcFHc9HvneOlUxDGmU8J8TpSJEe64CEiKiKyMyauUosopq+LG0tnPFeH2kMemb62z1XnCdvcZO70XrLu79Kw1OmYPU7NXxh/8Z9pDzSj3OfHecDD7lfPgAC+5Ii9TVlmEQbgldNXA1OzF433ZHuvfmtttNjYJbLbuMnK2GTrnjJNTwnwu3BNSjD9Im08c5T4X4SGGatKz1jBUs6noundqsWoDu6/DWBqHQ91WvTl5s303ySPResjn+OkML50QNLm4Ue6JUKNSLIYUQxdfHkhzsw9sqhau0aNnrTUHci/Y7j5ns7tP31rD1KxmQGD1BBiaFU9V1gT6nHA8/50T7zWz5JKkDB/Ec0pcSdtYuovVnC2t4lXL53CrQtxO2Nm6y4a7i5eOOQve4KXilbtmdftYd4dY8x5kEy4iE2fWQQFx2aZbjT/79i/b3ms5VAVZlZE1Fa/o9YpDtjCbE+ZzgkxUvaLiDcmKpKl425zldh3Up/d8/462gnKNPkN7i83OPru9l2w2LYiuNWycO2YzMru6IlzVFVEecO4fcjD7lYP5L5yHByRF8NU/x2VBUxq3lSHOlVYhaOlrufXjdwUFQ7MYOOuMkk265hBbc6mqcqUPFO6Sqi7IyhIvHXPqvxEjuWYfTdXpWyPhL1a+1SB+Tf1e1dts1K3EAVtWxKRFRFyIijfKfaLMI8jmhJnXtB08olaAm17vtc3sWwiF8t6Bjq136JrDhQhvdZ8KS5qzhWv2MTVLrO5asQPOmywq4SzgKjzhcP4bh/PfuIyOCbKpuKp4ACIMNINgXTpGH0uzxVLWFb7vPoU78UHpqo5rdOlZI3rWCMfoicvSKr2LL/8gqOuarIgZx6cLNwqANvhRTB7xLfqd9aLqKqqCohIB9VEeEKQz5smYeXqJn04Ic484Dxa5yXmZLCbbiipvrGmFyJKl+oYifJ0XbGkd0YJwdtntvWSr+5R1d4e+vYZr9LB0G62Z6FzlJ/KiEs58zvwDjua/8cf0vzkP3xFms5ULfP8YmmrQMfp0jD5Ge1C3olcxn8qdCLGqqJi6TcfsMbDX6ZkjwmxGQsSqHyzcJWWVE+c+k/gMa+6gNa6UGhYHUOoHDqAW7YXmUO26z1tcuxuqxt1QJCRlRJKLDRdeOhFCnFziZ1PiImjC1T/fVva5LHrAio6umViag6N36VlrjJxtNjtP2WsO49qMiA/9HFaF9v4S+dRtJfyKw/mvnAfvmKeXi5Huh0K7LbtjDuiYQ9EffsAZEy13MxmgKKiIvs/I3mLobDGJT2X2xGfSDnokRcB5eLDY8pwUMbv9lwztjeYw6t+nw4RIVpRNq6H18mZlQpKHRHkgWgy5aDFEubfw8iZFRFpEpEW8uJJpnQ2LTdO3KMKqoqGpRiO+I0b2NhudfTbcXUbuDgN7na45wNbdJpdg9UUYrlcFhZnHmf+Oo/lvvJn+f5yHBwTZ7EGKcHtQ1zNHdK0Bumo+iPvyY9yJELeHdpbuMHS2GDnbOEYPPZ1QIhdkfg41/397Z/rURpal/ScX5aJUapeQALF6w3a5Fk9MzUR3xPzjM/F+m+lod7nKLpcNGLODJLTvu/L9kHkuKRkw2GABur8O2oUNKSmVevLcc895jp0rrHdLACwIgmgPWBx20TJqMNUgNNmAKNhvrR3x9thA0h6r5W2j02+i7cr11rtV+SJgCQAAIABJREFUNLoVJsKdfhPdQZsJ77dWN3wJasAQBNv6UBY98IgKVNlrV0I49cARbxJR7yxC+gz8WshuTXY2dO5D5EQ12J1+C/VOBfnGEfYrmzisfHQi4TwGVg/DeyTCAG262jl/Uw3BpwQgS3er2/Fr+W69sgIEKJKGoB5DxJuATwmhLOecEd93uR3z+0NeFM1eFZn6Dhq9CsrtE8SMecwYCwhoUWgeA4Bgb6z16ra4dmtjuV1baDuDNnrDNnqDLqtqsIV34KrnHd7orrw7/eCRNGiyAUMJwK+GEdJiCHsTCGlx+LUwfEoQuseAIuvwiAokUbpDTmkXQyWLnX4LxeYJjqufcFTdwmF1C8Vm2jHzuazJ0d1CEmSosheG4oephWAofsh3tJ3/qnzXVymLHviUAIJaFEE9hnI7x/KSnKtg5w7t1t8uOoOWbZvZKaPeKdtCLBuAIKDda5wKsTMHzy4na6HrlJOxaBffZ0gjia4oiBBdka8i69BkA16PCcMTgKmG2bUS0uPwq7QJpzrph/tR0nRqemQPjm10a6i088jWD3BQ3kC6toNC89iuv7fur3uhLHpgKPb77lMC0DwGJIEL8bUjChI0WYephhDzzqHaLqLVr6JzTwrRvz92qVlv0EHdKqE7aKHSyUORNOZdbEe4rmoGR3Tt/O7wu0S7bmwRtlMPiqRCk30wFD/8agQBLYqgFrO7MNUgvIoJTTagOX4DHlGFLMp3uhb4LMj4vtVroNIuINc4xGH1IzK1PRRax6h1iuj0W/dahFmZqxpFSJuB1+OHMgU+xMR3FmIBguiBofgRNeZQ7RRRamfQ6NYwwP3aeLgJ7Fw7LcDt/6cKiO6g7eyuVyFAZNHiTZSPXfa5nuZ77c02e6K3YndNSbpdK+pEQEE1ioBmf/nUILwen+OIJt+bzTfCHQH3h120+y00uzVU2/Z0jWxjH8fVLRRaaTS6VfSG7XsdqNAmnSp5EWJ7SMad7oC8Kt857hcgCIAqexEzZlHvlpGp76LWKaHdb6DPc8XnQsImCpIjtPYFOrQGGGII0CaaBadj0bmpWRRDfW8Rpnyv6qQb/PApQfjVEEwlDJ8atL+UALweE5rHcAbNqpAlDyRBtnO/93BoKolwq9dAtV1EsZXBSf0A+eYxiq0MKu086r0yOv2mUxlxf0UYAGtP93pMRL2ziHgTUKXrbFK6/UwgAWPXCfrVCCLeBMJ6AtV20dnZ50I8ijNRQpChSDpUJ4fqcUrU7G4r29uh2auxaRVDa4jv574vsIYJWzydzTbJe5rvVfx2M48Sgl+NnAqw4ofuMZzuKc+9Szmc4kTAjgVou9905u4VUGhmkG8e46R+gFIr49RoN5wNuelYIUqC7KoLjyOgheGRFEyLCAMTEWK7hVHzeBFQI5gxUqh3ymj1q/fGtOS6oAhY85gIawlE9CQiRgI+JQhZUhwHrjpKzSwytR2U2lk0ezVYVvc75RJPo3QaP+T1+BFQI4h4Z50PVcQRXTvfaxt9K/ZQSNEDiXK+9zDyJUiE270m6p0KCs000rUdnDQOUWplUe0U0OrX7A7FYffedcp9CVlU4FNCCGn29eL1mHfOpP9bmYgQi4LIumdixjyqnRKK7QwavRrr0ppubIFTJA2GJ+C08K4gbqQQNZKOEHswsOwNnqKWgSrpUOte5JtHTrF/91oHR47nfG0hVaFIqv3YTvRrqiHb88E7i6AedzbdfGwD8f5GvadNM0PHGInaxLuDDjp9W4TLrRxyjSOkazvIt45R7xTRHjRZjfZ0YV9TqqwjpMcR9ibgUwJQp8AIfpyJ1YbQGxAxZlHvVpBt7KHesS0Sp12IKco0PAHM+x9i3v8QqcBDhL1JeD12akIQRLvmdNiDXw3Br4YR0KPwFBVk6nuodYoYDq5nl51EWBI8LOdrl5eFENBi8KthVoDv9fhhKCYbjyVLyumG2z2PeofWAP1h3+5W7Dcd4/syap0iKu08m79X6xRR75bR7jemMgImaIagLvsQM+YQM+ageXz3bnP2Mky0SM8jKfCrIUS8ScSNFJrdmu1t2+t9913+24RtA2ggpMUx73+IxeATzJgLMNUQW8oTlmU5uWMvZFG27UUtC0Orj0Gnf+VI63SjTYIkyk61gxP5yga8sulUOoQQUCOOEIdgqAFW6UBlZsIdj35PNz/ta5HMdyzy6LCGGFquyLffcZzp7OGn9a7tw1x1Zu7VHFP8dr956s8xpdc4cJobDmhRRI05hLwzjpPgdEXDwISFWHR8R4N6FPP+h/Ycs77dcDDAdEYJACCLKvxqBDFfCnP+VcyYC8z2clzYaDy8oZiIGnOwLAuiILHJF51BC4NLCjGJMLUV04grUwnBr0XgVyPwaxGYtNEmG1Bkza50YPleyYl+hbstwswcyRoxR+oPu+gNuqwjkXw6yIu53i3bVqC9mtPB6EwfcZpvBsOe48N8c63idwMBHklDQIs5viGzCGgRZ5Nu+piwEIsQRAGGEkDcl0J70ESlnUN30EGjW0GX1U9O1wVLhe0RPYmQd+bMSNiNKEgQJQk+NQAAaPXrOK59cjoXuxcMaxVcpjqyE/lq0BxvByo5I/tSn5N+IAGWRQ8ECOgNeq6pwYLjWOiudsZn9c+nNdHu7/HZ9+6/OeOol+K0gI8iW+c7J6d7mtu1WLQ7tIaOleeANcP0B52RuXttJ/q1W8crzKej1aujPWiiN2ijP+zb5vdTdg1fBJU2Gh7TGWW1iKAeg+7x3ckhrtfBxPsH7U0pFWHvDHrDDuqdMobWEOnaDvrd3tSNVBIgQHEiYrtV2XtmJHwWkmD7PtvlYUHosolWr47zhrWeul3pLtG1vRwMxYQme51NNg9EQUJ30Ea53UUVBcfbwb5Fjr8/do77NC1BkTbb8IPIWpSpYkIUBJbKEJ1cMv3saW5ZgOj8eVlfCYv+Zw0xBKUVHLEdDpwBp71TsXWZI7kNkrqD0S/y5uhR5yL5dDAf5r6rc3F6rt/LIAkSVElHQI1hzv8As+ayveKbwtwwMXEhBuCMufEhrM9gPvAAA2uA7qBjl2f1q060NT0XsyjK0GUDumxcaUyMKIjMr1eVvJcaukiiKAke50uCANjjkByzd8BuwR2OtEafCtxZQnyaHxZOm1FIYJ3HtMWaxFhg37tF2F3aRh2DwiXjYif+dUW+FO0O2KimwXDAatj7ziSS/ogQO38OO056gQac9pxW8cl0Lt5F6IasyQZCWhIJcwkJ3yIi3gQ0WZ+6Sgk3t0KIBcev2FD8mPWvQBAkZ6bdECf1gdNdBEzFhe6syAVR/Krd49MOPKfN+Yu/b2Fg9dEZNDHs9tHolcdKzJw8KU6ju1PhdWK98RWL8LlUjkTHriYQSk/YvyEwET59LeLpv418fxlcSQm3GDvCyV6TKx1B/27/94CNixr/dxbpTqBz8a5CNpemEsFicA1LoaeI+eYcl7Xpqhse51YIMWB/UD2SCr8Wcepj604ffgM9Jxq5zrrY28wQQ/SdZa9dymfhMnlRCxabrEwGPxdXTDhm8cMeumg6ngaO+GDAot1T8f32RfZ5OeMzs78jIv15XvkyMJlkz98a+W/2M5Y18vOc68buqPUpIcSMecz5HyBpLsF0JmtPa0qCuDVCDDh1hZDgUwKY96/Csgaodyvo9tuodgoYDEiU7i+WZWEw6Dn+wRXmNeDeADv/d4foD3voDlpo9+t2lHtBTTYJtwULw0Hfjp6ZC9totHtdUZ91/n+c8d1ncfU3PgV6TaOPxCPam8Ze5WiygbhhVwIlzEWEvHGosjZVnhLncbuEmDptJA0hPWZvDrVy6A3a9tKwM7iXkwnG6Q27qHVKqHQKaHSr8KthyJJywY7yqT9xrVNEuZVDzWkY+NIqwo4QB/TNd+QSsafFJfI+IDnjj/xaFAlzGUlzGSE9Bq/Hx0XY4VYJMSEKkl3CpUWwGHwCAGzjqNWrYWjd7+nPvUEH5XYe+WYa5VbOKR0LQpTOzo+Sl0GzV0OmdoDj2i7KLWf6yXC6uxQ5k4V8hv1qFHEjhfnAAyTMRege485P175ObqUQ262PEryKiZhvDn2rh0avhqFlId88ckaI39/I2H69FRRbtjmMLCq2x4QahEccHY45tAbo9u0pv7nGEQ4qm0jXdlDrltBzKk84nEkgCpLjtBhGwlzCvP8B4kYKAS1i54W5CDNupRDbOB1jahBxawFDy3LySYDlRH/2rLv7t3AdWgN0Bk2UWll8Kr61Jyz3HiFqzMKnBKHJOiRRxtAaojfooNou4aRxgOPaNg4qG8g3j5lnB9984kwGAbKowFCCiBkLWA3/gFTgMUJ6zCmrnM7GjfO4xUIMp9lAhF8Nsb3z7qADASIKzWPmMnbfBMee4muh0a0iax3YjQODDqqdAkw1DN1j1xcPrSE6vRYqnQJO6vs4aRwg1zxEvVu+d+eEc3ewbVEVmGoYM8YCUoGHmPM/QMyYtbvnpmQg6FW49WdEgABZUmCqQVhYhChI8HpM7JRUnNT3UeuW0B00XeYs9wULA6uHZq+CgdVFvVfGUW0Lumwb60iCDMsaojNoOyYzZceno+lMXr5P54JzVxCcMjVDCWLGWMCDyI9IBR4haiS5CF/AnTgrkiBBlDUEhDCbAmFZFhRJQ75xiEonzywF71OHE3WA9btdNHs1VBwnNLvbToYFy+4Cc9psh1Nqp8iZPAIESKIMRdRgqmHEjHnMBx4iFXiEGd8CDMWcWkOfy3AnhBhwImPRA58agCiI0GQvwnocB5WPSNe2cdI4QK1bupeubXbDgV0jPLQG6A7szjfb52E41mbL4XxfqONRlQwEtTgSviUshdYw619B1EjCUExIU9459yXujBADlDOWIKkSNFmHKumQRMVO/osy5IaCereEzqB178xWqN6XV0FwbhNUnqbLPoT0GSR9K5jzryIVfISINwHd4+OR8CW4U0JMsDpjPQpZUmAofugeE17ZxGH1I8rtE/SGndNGBQ6Hc+2Qe58um5jxLWLe/xBLoTXEfSmYaog5B3K+zJ08SzRiRRMkKJIKj6Q4nroeWLDgERXUukV7Gi6fhMDhXCvkiqdIGrweP6LeWaQCT5AKPMKcf9UOkK7gGsi5o0JMkGub7vFhxjcPRVKhe7wIaFEcVbdQaB6j0augO2jdw6oKDmcSkIe1PV0jaS7ZqYjAI0SNOfiUgD0wYMpNfK7KnRZigFzb7AGVkijDI9ljfhRJheExUWxlUe+W0O43mZfsfcsfczg3i8BWoR5JhVc24dcidmWE/yGS5hJivnmYSvDCSTKc8xGse7LVbk807qM3sNt9q+0iis0sThoHOGkcotA8QqWdR7NXc+weLS7GHM4lsEcbeaB7fAioEcS885j1ryJhLiDiTcKvhZ3htQr3j/hK7nxETFB5myzKTu7KdEb+BGCqYfjVEArNNCrtHOrdCjqDJrqDtjPWhueQORzidJI3rTANeD0mAmoEYT2JGV8KSf8KIt4EfErA5SfMBfhruTcRsRt78q5tjt7pt9Hq1VHvllFqnSDXOEK+eYx84wiVTh6tXg1dx2aTizGHY093kUXFHnWvRhD2JhE3Uoh4kwjrcfi1CAzFD83jdW3KcRH+Fu6lELshi8jeoIN6t4JiM4tCM41c4xDFVgbVdgGNXhWdfhPdYceeRcZHnnOmApolKLCqI4+oQpW9MDwm/GoEYW8CUe8cYsY8Qnocphq0W+x5LvhaufdCDIxGyN1BG61eA41uFdVOEaXWCfuqdgpodCto9Wvo9Fv30lCIw7Gh2YYSPKLHmeQdQECNIKTPIGokEdJnENRiMNUgdI8PqqRDljzMhpXngq+PqRBiNzQeqDfoodWro9YuodLOo9TOodLOo9Ypot6toNmrotWro923c8n9YRcDq+9EyaftxFykObcbRy7ZFG3Rri4SVSiSBk32Qvf4oMsmTDWEkB5HWJ9B2JtAQIvAUAJQJe2rBtlyLs/UCTFAYjzEYNhHf9BFd9Bx5rw1R6LlSjuPYjOLcjvvlMDZg0xPm0RouKZ9VA7ndkHTskUn72unHnSPCVMNI6jFENJnENAiMJUgDMXvdKkaUCUdHokMprgI3zRTKcTj0GRfKn9r95uod6uotgsotrIot3Kodgpo9mroDFroDTroD7tsUvLAciovXKPa3ZOBuUhzbgbXWFWaeC3YUa8oiHbeV5CdaiIFiqTZ+V8lgKAaQ1C3hdivheD1mNBkLxRZhSzIvAriO8OF2IHE2DZl7zv55A7avSba/QZavQba/QY6/Rba/RY6/RY6/SYrg+sO2ugNbDtKW5zdm338FHNuAppyLUISRNv4SpQhiwo8kp16UCUdqqxD8xjQZcP502cLr8eAJlPkK0MUZEfAuQh/b7gQn4vlbPIN0R/20R86KYx+hwlvp99Cd9BCZ9BCd9BxIuXTqouhNXSiYn6KOTfF6aYbi34l25FQkTQnCtahyl5osg5F1u2/FxVITukZTztMHi7EF2LBsgALtufv6ZdtRzkc2n8O6Hvn32yPYItHw5zvgoDTtIQoSCwtIYqSHSkLEkRBhiRKrn8XIYCL8G2BC/E1YbnywRb9v2V/z+HcLKeVEVRSxgX2bnFvWpwnzfiFz2ssOd8dgV93dxUuxNeO66PAPxMcDucS8B5FDofDmTBciDkcDmfCcCHmcDicCcOFmMPhcCYMF2IOh8OZMFyIORwOZ8JwIeZwOJwJw4WYw+FwJgwXYg6Hw5kwXIg5HA5nwnAh5nA4nAnDhZjD4XAmDBdiDofDmTBciDkcDmfCcCHmcDicCcOFmMPhcCYMF2IOh8OZMFyIORwOZ8JwIeZwOJwJw4WYw+FwJgwXYg6Hw5kwXIg5HA5nwnAh5nA4nAnDhZjD4XAmDBdiDofDmTBciDkcDmfCcCHmcDicCcOFmMPhcCYMF2IOh8OZMFyIORwOZ8JwIeZwOJwJw4WYw+FwJgwXYg6Hw5kw8qSfAIdz27EsC5ZlYTAYoNfrod/vYzgcYjgcAgBEUYQkSZAkCR6PB5IkQRAECIIw4WfOuStwIeZwvgCJcKvVQqVSQb1eR7vdRr/fBwDIsgxd12EYBgKBAHRdZ2LM4VwGLsQuLMu6kePyD+TdZjAYoNlsIpvN4tOnT8hkMmg0Guh2uwAARVHg8/mQSCSwurqKmZkZ6LoOUeSZP87lmHohdovvTQmxGy7Kd49ut4tisYiNjQ38v//3/7CxsYFarcaEWFVVmKaJJ0+eYDgcQlEUyLIMj8cz4WfOuStMpRBTzq/T6bBlZrfbxWAwuFYxJtFVFAWGYcDr9UJVVcjyVJ72O0u/30ej0UA2m8X6+jrevHnzWURsmiYEQcDz58+xvLzM0hYczmWYSkWwLAu9Xg/FYhE7OztIp9Mol8totVrX/liiKCIYDGJ5eRlzc3OIxWJciO8YlmWh3++j0+mg2Wyi2WyO5Igty4IkSWg2m+h0Ouj3+99ldcW5P0ylIlCEk8lk8ObNG3z8+BGFQgHNZvPaH0sURSQSCbTbbYiiCNM0YRjGtT8O5+awLAvD4ZBVTfR6PQwGAwwGAwD2yoeqKQaDAYbDIRdizpWYSiHu9Xool8vY2dnBq1ev8PbtW1SrVbTb7Wt9HEpNpFIpeDwe+P1+zM3NIRwO81wxh8NhTKUQ9/t9NJtNFItFHBwcYGdnB41GA71e79ofSxAEiKKIbDaLcrmMXq/HoiUuxhwOB5jSzjqqC+33+2w5eVNLSdoYvOnH4XA4d5epjIgBsJzfReJI0Sx9fQ2CIEDTNGiaBkVRIIoi77ricDgjTK0QfwlBECBJEhRFYXWhXyPGgiAgFAohEokgEAjw2lIOh/MZXIgvQNd1zMzMIBwOw+/3Q9O0K/0+Rb7JZBKPHj1CIpG48jE4HM79hwvxGVBKIhgM4tmzZ1hbW8Py8jKCweCVUwqCIMA0TSQSCUSjUfh8Pp6W4HA4I3AhPgdBEKDrOmZnZ7G2toZnz54hHo9f+RgA4PF4oOs6VFWdytQEbVjSlztH/rX5csrr0zHdf+c+rvtxpoXx8+E+R8RZ52aaztFtgwvxBUiSBF3XYZomy/NeBfcFTjaJ03axUzOE2zqSzgfZRwJXEwG3qFMDBTVRkNDTBis9zlUf467iPjd0XtznB/h8E5o2kOnfON8fLsQXIIoiPB4PVFWFruvQdf1GLlS3WHU6Hda5RR8cEhR6LrIsXyqSpOP2ej12XLcYXuW4JHp0HDoWALap6fF44PF4IIoi8/JoNBqo1+uo1Wpot9sYDAYQRRGqqsLn8yEUCsEwDObje97roBLAbreLdrvN2ow7nQ663e7IORNFEbIsQ1EUVrGi6zqrXKHnOCl3NHqve70eut0uu0m5byKXeV/GfZLp3HQ6nZHz4vZQBsDOD52j8fPk3pzmwvx94EJ8CyCxrFaryOVyqFQqzMuAbgaGYcDv97M8M304v3TcTqeDWq322XEFQYCiKPB6vQgGgxcelwS91WqhUCigVCox9zEqzwsGg+xLURTm5bG7u4v9/X3s7++jWCyi1+tBlmX4/X6kUin88MMPSKVSCAQCFwpxv99HvV5HsVhENptFOp1GLpdDuVxmxk10c5AkCZqmwTAMBINBRCIRzMzMIB6PIxqNwu/3Q1XViZQR0mtpNBqoVCooFouo1+vMdOqq70uv12M+ycViEfl8Hvl8nr1HzWYTrVYLnU6H3ahkWYaqqtA0DV6vF4FAAJFIBPF4HMlkEuFwGKZpQlEUADxK/h5wIb4F9Pt91Go1HB0d4cOHDzg6OkKj0WBCTDaLc3NzWFtbw+zsLAzD+GJE1+v1UKvVcHBwgA8fPuD4+BjNZpMJsaZpME0T8/PzePbsGTM4Hz8uiUe5XMbm5ib29/eRy+XQbDYhiiJ8Ph+SySQWFhawuroKXddRKpWwu7uLt2/fst8plUrodrus3fvRo0cwTROmabIc+vjjkhdwoVBAOp3G/v4+Dg4OcHh4iJOTE5TLZTQaDXaDISFWVXXk5pVIJDA3N4dUKoXZ2VkkEglWTnjeDeC6odr1SqWC/f19HB4e4ujoCKVSiQklvS90o3r69OlnETxF1PV6HYVCAScnJ8hkMshkMshms8jlckyIW60Wi5LJG4NWMBQBkxDTe0hfkUgEuq5P5b7G94YL8S2g2+2iUChgY2MD//M//4P19XW0Wi0mmLSMf/r0KbPUpCX2RXQ6HeRyOXz48AH//d//jc3NzZGIWFVVBAIBPHv2DF6vF6ZpsvSCm+FwiG63i2w2i1evXuGPP/7A8fEx6vU6ACAYDGJxcRE//vgjvF4vfD4fs4t89eoVtre3mZcHCaWiKBgMBlheXsbs7OyZ+XdKhWSzWfz555949+4d3r9/j4ODAybAtPx2jy6i5T15Auu6Dp/Ph5mZGSwtLeHZs2f4t3/7N6ysrMDv93+3JfhwOES73cbR0RH+7//+D2/fvsXu7i4KhQK7iZAQh0IhPH/+HD6fj90wyLWPRPjg4ABv3rzB+vo6dnZ2kMlk2AQRd4pr3IjInSN2p3BCoRBmZ2fx5MkT/Prrr3jy5AkSicSlVl+cb4ML8S2AlqonJyfY2trC+/fvP0shkPi+fPkSrVaLRTdfOm69Xkc2m2XHdUdGqqrC7/dD13UUi0WWwx2HItNarYbDw0Nsbm7i8PAQtVoNABAKhdDpdGCaJlZWVqBpGt68eYPXr1/j/fv3OD4+Hskp02ZdJBJhgur273U/XjabxcbGBl69esWc8k5OTtj5uUzLuCRJkGUZ6XQaJycnaDQa8Hg8sCwLS0tLiEQiX92wc1ksy0Kr1WJTPv744w+8fv0aR0dHqFQqIzliv9+PZDKJ+fn5EW8S93GOj4/x4cMHvHr1Cu/evcPBwQEKhcJIioZ+/iIoPSOKIrxeL9LpNGq1GjweDwRBgMfjYTf977VymEa4EN8C3N4XFOGRNwVZLHa73c82dr7muG77Rvp7yk/Sh/es47g3/saP0+v10G63mb/zYDDA77//jvX1dZYXHn++41UPbgaDAdrtNrLZLH7//Xf89ttv+O2337C9vc18o92bmSQkbtzniH62Uqmw5045b1mWWT6ZcqLXDb3OSqWCjx8/snTN4eEh6vX6iNkU5bdJiMPhMLxeLyRJYuesUqlgY2MDv/32G37//Xd8+vSJpWfGKyQu89zoHNF5pc3C4XCIQCAAn88Hv9/PhfgG4UJ8Ae6Kg1arhWazeeklmnv3+zJla+5yIxIOtwC6l5hX/aC5j+v+Xfffucu/LnMsdyqg1+uxyPvDhw9ot9v4+PEj0uk0Wq3WhbXD7vNCj++ehkFi8/HjR+RyORY5uzfkvF4vNE0bWbrT+0UCReLe7XbZ48iyjFgsBsMwMDc3x6LA66bb7aJer+Pw8BDv3r1jEWylUhlJSdDsO0oPPHz4EJFIBJqmMREcDodoNps4OjrC7u4uDg8Pkc/n2Tmm1BKlMsarH9zXNN2E6b2nACCXy0EQBBiGgZWVFUQiESiK8lkOn3N9cCG+AIoSqtUqCoXCpSMCt08FjUe6zzXEVPGxv7+PSqXC8smtVmukbtj9+t211XReSQwKhQLevn2Lf/3rX/jXv/6Fra0tlMtlloqQZRmGYSAej2NpaYnlmL1eLwRBQKPRQC6Xw9HREXZ2dpDL5VjOfTgcotFo4PDwELquIx6Psxyyz+e79nwxpRKOjo6wvr7O0jWlUom9HroxGYaBhYUF/PDDD/j111/x4sULRKNRdoOgG0i320W1WkW1WkWn02Ele5qmwefzwTRNBINBmKYJr9fLytHo/FJ1DlXAkA+3e4RYPp/H/v4+Pn78iHg8jlAoBL/ff2+v4UnDhfgc3B+gDx8+oNVqIRgMXup3aRMkFAphYWEB0WgUXq/33u4+U4672+2iXC6zSgeqqKDqBYqoaNffvfSWZZlVeRwfH+Pdu3d48+YNtre3WSRMI4kCgQBSqRRWV1eoC21PAAAX7ElEQVTx9OlTLC4usnPsFuLt7W3ouo5Pnz7h+PgYtVqNCVm/32fiGIlEsLy8jEgkcq0zBaku/OTkBOvr6/jzzz+xubmJ4+PjkZsU3bDn5+fxww8/4KeffsLa2hpSqdRIdYy7rtzj8UDTNAQCATb5JRQKIRqNIhKJIBwOIxAIwDAM9protZfLZRwfH2Nvbw9bW1sjNyr3+0livLS0hEePHmE4HPLa4huCC/EZ0BK8XC7jr7/+QjqdHhGSL0HR8MrKCv7+97/j6dOnSCQS91aIqV651+uNfEip5G5xcRHLy8sIhUIQBIEt1cPhMFZWVhAOh6EoCqvy2N7exl9//YXNzc2RSNidP/33f/93/PLLL1hbW0MymYSu62x3v9frodlsYmlpCcFgEIZhsPSSu8OvXq9jd3cXiUQC2WwWs7OzbGPvW3FHlp8+fcKrV6/w+vVrlq6h/L8oiiOR8N/+9jf8+OOPmJubg2EYI6sw+nmK5BcXF1lqaWlpCalUCvPz84hGowgEAiwadncX0iboyckJ3r9/zzYtc7kcGo3GSDqMNhczmQzbUL2p9M20w4X4AlqtFtLpNPL5/MjF/CWojrVer2NxcRFzc3NXbo++S9BmFIkL1T1Tw8aTJ0+wurqKSCTChLhWq0HXdSwsLCAYDEKWZVSrVRwfH7MmEKqOoFy0x+NBMBhEKpXCixcv8PPPP2NpaQmhUGgk9UG5b6/Xy3Kqe3t7bC4h5UTb7TZyuRyOj49xcnKCSqXC8s3fgruRZnNzE2/evMG7d++wvb3NNgzd1TALCwt48eIFXr58iRcvXmB5eflcy1R3CmMwGLBhtEtLS5ifn8fMzAyCwSAT4XH/a3rds7Oz8Hg8yGazqFaraDQabGajOwVSqVRGNkj54NubgZ/Vcxhv6b1KFxalJkqlEuv8mobx6u5c5/LyMn788Uf8/e9/x9ra2kjqgDaMJEkayaHX63Xs7+9jd3f3zHI6TdOQSCSwsrKCBw8eIJVKwefznZt/Nk0Ti4uLODk5QTKZxNHREav6AE7L+0qlEnK5HIrF4rXcMCkPm8lk8I9//AOvXr3C1tYWCoUC60YUBAFer5eJ8H/913+xLkO/33+m4NFr9Pv9ePLkCWZnZ9FqtSCKIqtuoDZuChzGr1m6UYZCIczNzeHRo0fI5XJIp9MolUoj1Si0R+KeTs3L2G4GLsQX4I70roIoiuf6RtxnqAswFovhyZMn+Pnnn1mER3lgd2RGuDvF0uk00uk06vX6ZyVq5A+dSqWQSCQQCoXOXCqT0GmaxrrqYrEYAoEAqtXqyONS5FooFNhMwa+FlvTkr7G1tcUaLk5OTlgFCaVYZmZm8PTpU/zyyy/44YcfsLq6Cp/Pd+Hyn15XLBZDJBJheVvqvrtMsECPHwgEkEgkMDMzw0rk3KWEdMOknPq0XMeTgAvxDUGla7Is3+uKCTfUupxKpfDLL7/gp59+QjKZZB/y8aiVoN38er3OdvOpzIx+lgQoHo8jHo9fym9j3FwoEAggk8mMVCCQGFcqFVSrVVbz/LXWnP1+H8ViEcfHx3j//j22trZYBQk9pqIoCIfDWF1dxa+//oqXL19ifn7+0h4igiCwzTf3a71KaSVgv19ULUJCPv56qA6di/DNwoX4AmhnmnyEL7skE0URiqIwAxXDMKYit0bR8OLiIh48eIDFxUX4/f4vblJSC3Wz2US5XGaC6MZdEiiKIvvZi8SHIrp2u83Eyy027iaVZrPJfDi+lk6ng1KpBMuysLGxgY2NDWQyGdTrdSZisiwjEAhgZWUFz549w9OnT7GysoJQKHTphpKLHPLOqxsfrxW3LIu1nV/UoXjZGnPOt3H/1eEroaVwMplENBpFMBi89CYOCcbS0hIri7qprq3bAp0vqpKYmZm5lAgDpykCasBoNptnpoPcBkD7+/toNBpfFOLBYIDDw0OUy+WR9u7xn+t2uyMOZfSaLgulJPb29pBOp7G+vo79/X0mwlT/THnun3/+GS9fvsTi4uK1zDJ0W6lSw8a4Faa7I9KyLJTLZRwdHaFQKKDT6ZzbWUnH59wcXIjPwL3plEql8ODBA8zPz8Pv91/q98lLNhaLYWFhYWqGhiqKwqwbacbfZVYRJIStVgutVot1e7mxLAvNZhPHx8fQNA3lchmmaQI4XzBpaZ3L5bC/v39uDpgEzO3ZexVIBGu1Gvb29iAIAg4ODpDP51nDBXBa/0vdc/Pz8+wG/zWpELeHdaPRYLnper3Obmjjns2UZqDyvVwuh93dXdRqtc86NsejYB4V3xxciM9BEAT4fD6srKzg5cuXWFtbQywWu/Tvuu0rqcb1vkNle9RAcNlyP3dE6vbTIOjDX6lUmPvaZRtkqFyrXC4zW8izxOSsKR+XhXLDtVoN+/v7sCxrxNpyHLcx+3h52VUes9frseYVsgZ1l+KRT7NbhN1eJZS2qdVqI51+nO/P/VeHr4TqPIPBIJLJJJaWlpBMJq98jGnYpCMoD3vVzUl3RHrexpC77rdQKFzp3I57ZLif71U9Qc7Dbb1JLcd0fLe3B3Wt5XI55HI5JBIJZqhz2RuX22Tp8PAQu7u7+PTpE/b29nB8fIx8Po9qtcpWF24BHvcxcXuZcBGeHFyIvwB9mL5GVKdJhL+Vy24Kue0ir8JZkS6JJ3kWu7vzrgLdgILBIB49egRBELC5ucmaSUj8yY/45OQEf/75J3w+H+LxOILB4JmG/Oe9DnKm29zcxKtXr/D+/Xvs7+8jn8+PmOS7DZ3c5+Cs88KZLFyIL8lZbmGc7wc5i1HTAjWBfAsUwaZSKSwtLSEej7N87VXeZxJ0aiDRNI2VwWUyGbbkp5tIpVLBp0+fEAwGsbKygmAweCkDdppNVygUsLm5idevX+Of//wnNjY2mAhTdyPtU9AMOjL+cQcVdLxWq8XGNXFRngxciO8Y9/WD4l7Kn9egYZomc1sLh8PfPMyVqlsSiQSePXuGlZUV+Hy+rzom1TknEglEo1EmhlQJ4o72W60WMpkMtra28O7dO7aP4PV6L6wHdk/m+Oc//4lXr15hY2MD2Wz2s1FINAIpFoshHA6PDGmlx6DceTqdxs7ODorFIk9RTAguxHeE8bzefcJtiXne5pW7JXhtbY1Vo3yrEJN/xfz8PJvR9rVQQ8vs7CwURcFwOEQ6nWb5WqrYoBbodDqNDx8+IBgMsnK/82bEkYkQVTm8f/8em5ubyGazzKyH0iyBQADz8/Psa2ZmBuFweKRxQxAE1Go1pNNp6LqOQqEwMimE833hQnxLuMxyeLww/zLcBfF2z5e7aLOP6rofP36MZ8+eIRaLfZMQj+eIvzXdQTeUQCCAUCgEANje3kaxWByx8qSyOhrG6vf7sby8jHA4jHg8/lmKgn6nXq9jb28PHz9+ZOVx7nQC+TQvLi7ib3/7G54/fz5iw+o2AQKAUqmE7e1ttNttfPjwgVtcThAuxLeEizYF3cX6VOL1peJ7apKoVquo1Wpnjiu6LVD+193FeJYguOtwZ2ZmMDc3d6uEw23mEwqFMBwO8fjxY5TL5c9GUlGKIp1O49OnT1hfX0cwGByZrjHeBUgpDWrCoJwwQa3TS0tL+PHHH/HLL7+wqgy6wbnxer2o1+sIBAJQVfVWnctpgwvxLcBdQnVWVEIRVLfbZYX77ukO41DbLtlKptPpEfvH2wbVH1OedLwRZNwTgqaAfE0H3PdAlmXWtPHTTz+h3W6PWE3STZRyvkdHR/jjjz9Y3blhGCMz9Oj9b7fbKBQKbEjo+PtJOWrq6Jydnf0sL0zcxutgmuFCfEnowv2aC/hLQkGR3kVLcyqFyuVyODk5weLiIvPhpciJ0haNRgOFQgHb29vY3Nxk7cC39cNH3hyGYSAQCMA0TRSLxc9+juqIs9ks88j92oka7vfzuuu9qZlHURQ8evSITR2p1+ufVVF0u10Ui0Vsbm7CMAzMzs4yEXevDMgfmLrmaFKz+z2l/HA0GkU4HGaR8FlmPu6GDip340wOLsRfwJ1fvQ4hO2/JTRHhWV1pFBFRjnB+fh6rq6uIRqMj7bHu6cfv37/H69ev8fr1a2xtbbExQbdRjN0uadFoFKFQaMQlDRgdXbW7u4tsNsusMK/aiOFuZCAhvm6HPEpRpFIpNJtNZDIZZizkrqIAgGazyWbokSUlRcXu6c1fasWmGzqVqp2X86VOwHa7zTyzv+Q1wblZuBCfA0UgVN4TCoXQaDSufBzKf1LDwFntziREXq+XLc1brdbIcwGARqOBg4MDrK+vY3Z2FoIgMK8CiphLpRJ2d3fx5s0bvH37ls18u+05YlrOJ5NJJJNJ7O3tQZKkkXIqmv+2s7OD9+/fQ9M0LCwssFFLF0V/ZHZDeXYam2RZFnRdHymHuy5BdldkPHv2DJVKBZlMBrVaDc1mk70ndJ0dHR3h/fv3zCeY0hSUpvlS5yLdiCl91W63RwbX0oqp1WqhXC5jZ2cHHz9+xN7e3mf+z5zvCxfic6Bd6p2dHciyjFwuh0AgcOXjCILAPHpnZ2cxMzPzWa0q1X3SBF6v14tarfbZ86HISRRFiKKIdDrNplT0ej2USiXs7e1hZ2cHW1tbODo6QrFYvNUiDIxO1FhYWMDi4iLW19eRzWaZiAJggrW9vY3//d//Ra1Ww4sXL9i4pHFfXfpdEt9ms4l6vY5isYhsNssGnCYSCfzwww9IJpNf1Vn3pdcVDAbx+PFjZgpULpeRzWZZORtFu5VKBZubm/D5fKw8j1IVlL6hm/VZJvu0Gjo4OEA6nUYsFkMoFGI3GDoP2WwWHz9+xJs3b/CPf/wD6+vrvIZ4wnAhPoPxCLTdbuPg4ODKs8wouorFYqxG0zRN+Hy+kZ8jIfb7/awAv1QqjSzNAbv+tFwus+/z+TzbkOn3+yiVSiPGL41Gg41Zd3dSXXXiyE1DguL1ejE3N4fl5WXMz8+jUCigWCwyox5qEc7lcnj//j3rCDs+PmaOb+6cMS3lydmtXq+jUqmgUCggk8mg0+nA6/Xi0aNHWFhYQDwev9YxQO4qimQyidXVVTx58oTlt2kU1Hijx/b2NqsvplFS9D5Go1HEYjF203HfZLvdLvL5PHZ2dvD27Vv0+33E43GYpglRFNmU7KOjI/z111/466+/sL6+zs4FZ3JwIT4Hd04yn8+zGsyrQAKTTCbR6/VYQ8L4bj9VDdBgzLm5OWQyGSa67jzpYDBAtVrF9vY2MpkMi47c5uqtVgudTgeSJDFxEgSBGZffNiEGRv2fHzx4gKdPn7LlMjmHUQ6T7DBJVEKhEJvW7K64cAsx5WcpR9toNODxeNi0D5oreBN2pVTfm0wm8eLFCzaqvlKpsFlwwOmMuHQ6jTdv3sDr9bIRT5qmwefzIZVKYXFxER8+fEA2mx3xkqCNv42NDXS7XayvryOZTLJNu06ng2KxiEwmg729Pbbp2ev1WC03d2CbDFMrxJcx8iEz7fE0wVUZDAZIJpMoFovMn3bcfIYmNywtLbENqVKpNLKjTZET1RLThIrxTS3atAmFQlhaWoLP50Oz2USxWGS5w9sI7frTlGaa+WdZtol5u91mu/3kYlYoFKBpGsutuyepkKsYGaWT1Sb9vmmakGWZifBNbWZSWiEcDuPhw4colUrY2tpCsVhEPp9n7y+VHZbLZXz69AmhUAgPHz5EJBJBPB6HruuYnZ3F8vIyFhYWkM/nWeqFbtKtVovNx0un04hEImxCDE1lLpVKKJVK6PV60DQNhmFAFEX277f1+rjPTK0QA9/PyIc+JOe5i7lNY1ZXV1EoFPDx40dWM3qeLeRZ/w2cttouLi7iP//zP2GaJvb29rC1tYWTk5Obe6HfCAlWLBbDzz//DEVRWPS+tbU1MoiVUhX0d51Oh+XO3blT92ad2wrTvSqhzaybtC2liH92dhYPHjzAo0ePWNrF7ZHsdlfb3t7GxsYGIpEIfD4fAoEAZmZmsLy8jCdPnqBUKo3UJrtTFJVKBa1WC/l8nuWT6XyRMxvl5IPBIERRRKlUwqdPn0bM7Dnfh6kUYvrA0waZYRgA7AsYuL5id/pQk1n6l6bz6rqORCLBlubNZhPb29usldW9PHc/R7fblqZpCIVCbKf+l19+gaqqGA6HKBaLMAyDRfi0+eOOJM96fiRQNOrH6/VC13UWrZIA0rHcrbRXdTGjTTtKt9A4JEmScHBwwHwb3L7FVNJ11g1u/DXQe0+2lZST13X9wtdPBkHUdCIIAttso/NITmfnHUdRFLYB9/jxYxSLRVQqlZExRnQ+aSWWy+WQz+fRbrcRiURgmiZmZ2extraGer2OZrMJAMwEnm44FP27zwOlH6hKJJVK4enTpwiHw2wfJJ/Po9lswrIsaJr2WUnlbWueuS9MpRBLksTaUGdmZjAzM8OiE+B6hVgQBOY9YJomFEU592KmSHZhYQH/8R//wQR8a2uLtbSO15BSeZyqqiMR0/Pnz/H06VM8fvwY7XableCFQiFWM0p56XA4zCZenJUHJyHSNA3BYBCRSIRVHAyHQyZSkUiE5Wq/ZSIJbUwlEgm8fPkSfr8f4XAY6+vr2NnZQTabZdM23BMnzjv/7s5FRVGgaRpM08T8/DzW1tawurqKQCBwbsUE5fB9Ph8ikQii0ShqtRq7cauqyp4jdcSddx5lWUYoFMKTJ0/YAFQAqNVqzEHNfdMjm0pKX0iShHA4jOfPn0MURViWBa/Xi93dXeRyObTbbdbs4X5cd9MM3ezX1tbw008/Qdd1HB4eYjgc4uDgAK1WC8PhED6fD+FwmLVAcyG+OaZSiKlmNZFI4Pnz51AUBcVikUUX14kgCIjH43j8+DHm5uZYNHUWVE8cjUbx5MkT5kgWDoeRTqdZzpg8C0ggdV2HaZqIxWJIpVJYXV3F2toaFhcXEYvF0Gg0sLS0hGazCUmSkMvlMBwOWYT28OFDloM8q2rAncN+8OABer0eEokEqtUqE2JVVTE7O4vV1VXm6/u10AeeZv1RZBaNRpFMJllZHomxezOPBMjt6EaGQhTRmqaJYDCIubk5PH78GA8ePEAgEDg3knXXOD9//hyapjH/XgCsNfnBgwdIJBLn3ohIEKk8jUrqotEoy82639doNDpSJ02/bxgG5ubmAIBV4sRiMaTTaVQqFVajTGkdEmES1lQqhcePH+Px48d49OgR20wE7FVhMpnEcDiE1+vFzMwMHj58yHwwuBDfDII1hckg2sBxT7G9KWNsQRDYJIZ4PI5YLHahGNNSu9VqoVQqIZPJIJ1OI51Os532RqOBTqcDQbA9cKnsbWZmBslkEvF4nNkeaprGyproi8xiZFmG1+tFJBLB3NwcG+k+LsaUYyXbRBrFQ34H9EH3+/2Ix+OIRCJsp/9boM0291w1eg2FQgGlUgm1Wo1tQFL6xrIsJr6apjEhNwwDpmnC7/cjEAggHA6zKN5dXTIO1d8Wi0UcHx+z1RNFqdSwEwqF2Hm8qPWajlcul5HJZFAqldBsNkdusCTYFIHHYjEYhsFyvYPBAI1Ggzm7HR8fI5PJIJfLoVwus+NZlsWMksLhMBKJBJLJJGZnZxGNRlltfLVaZWV9NEhUURSYpoloNIq5uTl2s7pq9RDny0ylEAOnwxdpyq3bWPu6c8Rum8XLWi3S82u1WuxDQgMwG43GmcviSCRypgG4u3KAlq7u6gpVVVme+Ly8Lomxe0w7RaFuG0vKEV/nB5Y23MbrgclZrtlsjjwntxDTa6PcLrUOG4bB3pOLXrf78d3XizvipPz8Zc6j+5gkyOPPHThtV3Y70o1fNyTI1ClXKpVY3tnduUdCTEbxoVCIeR9TeoOuD1phuFNOdDO7zmYXzihTK8TA6YU8vpN+3ULsXiZfJc/mLr8iG8VxrwG3mNJInPHHoQqD8eGRFHlR/vQy4jF+vtymOXSsr51MfBH0Gqhciza43OdjPDXhHgrqTlNQm7B7YOiXnutZ1RfuyournEfC/ZzPG2xK7+V5rnz0nNzXCJ0X+nf3jZKuE/fm7Hgb+Pj14X4OnJthqoX4LnLe2zWtkcplL99pOT9fOh/Tch7uGlyIORwOZ8LwtQaHw+FMGC7EHA6HM2G4EHM4HM6E4ULM4XA4E4YLMYfD4UwYLsQcDoczYbgQczgczoThQszhcDgThgsxh8PhTBguxBwOhzNhuBBzOBzOhOFCzOFwOBPm/wOTYmSbd2xXpQAAAABJRU5ErkJggg==;" parent="tP0SpdOw3gQdtKeM86X0-24" vertex="1">
          <mxGeometry x="6.179999999999836" y="22" width="143.64" height="127" as="geometry" />
        </mxCell>
        <mxCell id="wUW49xOCrfoHEJadxzmI-105" value="" style="shape=flexArrow;endArrow=classic;startArrow=classic;html=1;rounded=0;" parent="tP0SpdOw3gQdtKeM86X0-24" target="wUW49xOCrfoHEJadxzmI-91" edge="1">
          <mxGeometry width="100" height="100" relative="1" as="geometry">
            <mxPoint x="158" y="79" as="sourcePoint" />
            <mxPoint x="508" y="171" as="targetPoint" />
            <Array as="points">
              <mxPoint x="508" y="79" />
            </Array>
          </mxGeometry>
        </mxCell>
        <mxCell id="wUW49xOCrfoHEJadxzmI-111" value="" style="group" parent="tP0SpdOw3gQdtKeM86X0-24" vertex="1" connectable="0">
          <mxGeometry x="2" y="234" width="159" height="217" as="geometry" />
        </mxCell>
        <mxCell id="wUW49xOCrfoHEJadxzmI-107" value="" style="rounded=0;whiteSpace=wrap;html=1;" parent="wUW49xOCrfoHEJadxzmI-111" vertex="1">
          <mxGeometry width="159" height="217" as="geometry" />
        </mxCell>
        <mxCell id="wUW49xOCrfoHEJadxzmI-108" value="&lt;font style=&quot;font-size: 18px;&quot;&gt;API GATEWAY&lt;/font&gt;" style="text;html=1;strokeColor=none;fillColor=none;align=center;verticalAlign=middle;whiteSpace=wrap;rounded=0;" parent="wUW49xOCrfoHEJadxzmI-111" vertex="1">
          <mxGeometry x="16.5" y="10" width="126" height="30" as="geometry" />
        </mxCell>
        <mxCell id="wUW49xOCrfoHEJadxzmI-109" value="&lt;font style=&quot;font-size: 14px;&quot;&gt;服务路由&lt;/font&gt;" style="rounded=0;whiteSpace=wrap;html=1;" parent="wUW49xOCrfoHEJadxzmI-111" vertex="1">
          <mxGeometry x="16.5" y="55" width="120" height="39" as="geometry" />
        </mxCell>
        <mxCell id="wUW49xOCrfoHEJadxzmI-110" value="&lt;font style=&quot;font-size: 14px;&quot;&gt;安全认证&lt;/font&gt;" style="rounded=0;whiteSpace=wrap;html=1;" parent="wUW49xOCrfoHEJadxzmI-111" vertex="1">
          <mxGeometry x="16.5" y="119" width="120" height="37" as="geometry" />
        </mxCell>
        <mxCell id="wUW49xOCrfoHEJadxzmI-114" value="" style="group" parent="tP0SpdOw3gQdtKeM86X0-24" vertex="1" connectable="0">
          <mxGeometry x="379" y="221" width="260.4000000000001" height="232" as="geometry" />
        </mxCell>
        <mxCell id="wUW49xOCrfoHEJadxzmI-91" value="" style="rounded=0;whiteSpace=wrap;html=1;container=0;movable=0;resizable=0;rotatable=0;deletable=0;editable=0;locked=1;connectable=0;" parent="wUW49xOCrfoHEJadxzmI-114" vertex="1">
          <mxGeometry width="260.4" height="232" as="geometry" />
        </mxCell>
        <mxCell id="wUW49xOCrfoHEJadxzmI-87" value="" style="rounded=0;whiteSpace=wrap;html=1;container=0;" parent="wUW49xOCrfoHEJadxzmI-114" vertex="1">
          <mxGeometry x="23.4" y="33.17" width="88.6" height="67.83" as="geometry" />
        </mxCell>
        <mxCell id="wUW49xOCrfoHEJadxzmI-88" value="" style="rounded=0;whiteSpace=wrap;html=1;container=0;" parent="wUW49xOCrfoHEJadxzmI-114" vertex="1">
          <mxGeometry x="140.4" y="142" width="83" height="77" as="geometry" />
        </mxCell>
        <mxCell id="wUW49xOCrfoHEJadxzmI-89" value="" style="rounded=0;whiteSpace=wrap;html=1;container=0;" parent="wUW49xOCrfoHEJadxzmI-114" vertex="1">
          <mxGeometry x="140.4" y="34" width="80" height="66" as="geometry" />
        </mxCell>
        <mxCell id="wUW49xOCrfoHEJadxzmI-90" value="" style="rounded=0;whiteSpace=wrap;html=1;container=0;" parent="wUW49xOCrfoHEJadxzmI-114" vertex="1">
          <mxGeometry x="23.40000000000009" y="142" width="88" height="77" as="geometry" />
        </mxCell>
        <mxCell id="wUW49xOCrfoHEJadxzmI-120" value="&lt;font style=&quot;font-size: 18px;&quot;&gt;用户服务&lt;/font&gt;" style="text;html=1;strokeColor=none;fillColor=none;align=center;verticalAlign=middle;whiteSpace=wrap;rounded=0;" parent="wUW49xOCrfoHEJadxzmI-114" vertex="1">
          <mxGeometry x="27.599999999999998" y="5" width="79.6" height="30" as="geometry" />
        </mxCell>
        <mxCell id="wUW49xOCrfoHEJadxzmI-121" value="&lt;font style=&quot;font-size: 18px;&quot;&gt;股票数据服务&lt;/font&gt;" style="text;html=1;strokeColor=none;fillColor=none;align=center;verticalAlign=middle;whiteSpace=wrap;rounded=0;" parent="wUW49xOCrfoHEJadxzmI-114" vertex="1">
          <mxGeometry x="128.1" y="5" width="114.9" height="30" as="geometry" />
        </mxCell>
        <mxCell id="tP0SpdOw3gQdtKeM86X0-1" value="&lt;font style=&quot;font-size: 18px;&quot;&gt;股票分析服务&lt;/font&gt;" style="text;html=1;strokeColor=none;fillColor=none;align=center;verticalAlign=middle;whiteSpace=wrap;rounded=0;" vertex="1" parent="wUW49xOCrfoHEJadxzmI-114">
          <mxGeometry x="10.999999999999998" y="107" width="120.6" height="30" as="geometry" />
        </mxCell>
        <mxCell id="tP0SpdOw3gQdtKeM86X0-2" value="&lt;font style=&quot;font-size: 18px;&quot;&gt;股票推荐服务&lt;/font&gt;" style="text;html=1;strokeColor=none;fillColor=none;align=center;verticalAlign=middle;whiteSpace=wrap;rounded=0;" vertex="1" parent="wUW49xOCrfoHEJadxzmI-114">
          <mxGeometry x="121.05000000000018" y="107" width="129" height="30" as="geometry" />
        </mxCell>
        <mxCell id="tP0SpdOw3gQdtKeM86X0-15" value="用户服务" style="text;html=1;strokeColor=none;fillColor=none;align=center;verticalAlign=middle;whiteSpace=wrap;rounded=0;" vertex="1" parent="wUW49xOCrfoHEJadxzmI-114">
          <mxGeometry x="37.40000000000009" y="41" width="60" height="30" as="geometry" />
        </mxCell>
        <mxCell id="tP0SpdOw3gQdtKeM86X0-3" value="用户服务" style="text;html=1;strokeColor=none;fillColor=none;align=center;verticalAlign=middle;whiteSpace=wrap;rounded=0;" vertex="1" parent="wUW49xOCrfoHEJadxzmI-114">
          <mxGeometry x="36.69999999999982" y="62" width="60" height="30" as="geometry" />
        </mxCell>
        <mxCell id="tP0SpdOw3gQdtKeM86X0-16" value="数据服务" style="text;html=1;strokeColor=none;fillColor=none;align=center;verticalAlign=middle;whiteSpace=wrap;rounded=0;" vertex="1" parent="wUW49xOCrfoHEJadxzmI-114">
          <mxGeometry x="150.4000000000001" y="41" width="60" height="30" as="geometry" />
        </mxCell>
        <mxCell id="tP0SpdOw3gQdtKeM86X0-17" value="数据服务" style="text;html=1;strokeColor=none;fillColor=none;align=center;verticalAlign=middle;whiteSpace=wrap;rounded=0;" vertex="1" parent="wUW49xOCrfoHEJadxzmI-114">
          <mxGeometry x="150.4000000000001" y="65" width="60" height="30" as="geometry" />
        </mxCell>
        <mxCell id="tP0SpdOw3gQdtKeM86X0-19" value="分析服务" style="text;html=1;strokeColor=none;fillColor=none;align=center;verticalAlign=middle;whiteSpace=wrap;rounded=0;" vertex="1" parent="wUW49xOCrfoHEJadxzmI-114">
          <mxGeometry x="37.69999999999982" y="146" width="60" height="30" as="geometry" />
        </mxCell>
        <mxCell id="tP0SpdOw3gQdtKeM86X0-18" value="分析服务" style="text;html=1;strokeColor=none;fillColor=none;align=center;verticalAlign=middle;whiteSpace=wrap;rounded=0;" vertex="1" parent="wUW49xOCrfoHEJadxzmI-114">
          <mxGeometry x="37.69999999999982" y="176" width="60" height="30" as="geometry" />
        </mxCell>
        <mxCell id="tP0SpdOw3gQdtKeM86X0-21" value="推荐服务" style="text;html=1;strokeColor=none;fillColor=none;align=center;verticalAlign=middle;whiteSpace=wrap;rounded=0;" vertex="1" parent="wUW49xOCrfoHEJadxzmI-114">
          <mxGeometry x="150.4000000000001" y="146" width="60" height="30" as="geometry" />
        </mxCell>
        <mxCell id="tP0SpdOw3gQdtKeM86X0-20" value="推荐服务" style="text;html=1;strokeColor=none;fillColor=none;align=center;verticalAlign=middle;whiteSpace=wrap;rounded=0;" vertex="1" parent="wUW49xOCrfoHEJadxzmI-114">
          <mxGeometry x="150.4000000000001" y="176" width="60" height="30" as="geometry" />
        </mxCell>
        <mxCell id="wUW49xOCrfoHEJadxzmI-99" value="" style="image;aspect=fixed;perimeter=ellipsePerimeter;html=1;align=center;shadow=0;dashed=0;spacingTop=3;image=img/lib/active_directory/internet_cloud.svg;container=0;" parent="tP0SpdOw3gQdtKeM86X0-24" vertex="1">
          <mxGeometry x="334" y="205" width="69" height="43.47" as="geometry" />
        </mxCell>
        <mxCell id="wUW49xOCrfoHEJadxzmI-115" value="" style="shape=flexArrow;endArrow=classic;html=1;rounded=0;exitX=0.996;exitY=0.454;exitDx=0;exitDy=0;exitPerimeter=0;" parent="tP0SpdOw3gQdtKeM86X0-24" source="wUW49xOCrfoHEJadxzmI-107" edge="1">
          <mxGeometry width="50" height="50" relative="1" as="geometry">
            <mxPoint x="188" y="332" as="sourcePoint" />
            <mxPoint x="379" y="332" as="targetPoint" />
          </mxGeometry>
        </mxCell>
        <mxCell id="wUW49xOCrfoHEJadxzmI-116" value="" style="shape=flexArrow;endArrow=classic;startArrow=classic;html=1;rounded=0;entryX=0.438;entryY=0.998;entryDx=0;entryDy=0;entryPerimeter=0;" parent="tP0SpdOw3gQdtKeM86X0-24" edge="1">
          <mxGeometry width="100" height="100" relative="1" as="geometry">
            <mxPoint x="77" y="234" as="sourcePoint" />
            <mxPoint x="77.20400000000018" y="160.67799999999988" as="targetPoint" />
          </mxGeometry>
        </mxCell>
        <mxCell id="wUW49xOCrfoHEJadxzmI-117" value="&lt;font style=&quot;font-size: 18px;&quot;&gt;服务发现&lt;/font&gt;" style="text;html=1;strokeColor=none;fillColor=none;align=center;verticalAlign=middle;whiteSpace=wrap;rounded=0;" parent="tP0SpdOw3gQdtKeM86X0-24" vertex="1">
          <mxGeometry x="82" y="184" width="78" height="30" as="geometry" />
        </mxCell>
        <mxCell id="wUW49xOCrfoHEJadxzmI-118" value="&lt;font style=&quot;font-size: 18px;&quot;&gt;服务注册&lt;/font&gt;" style="text;html=1;strokeColor=none;fillColor=none;align=center;verticalAlign=middle;whiteSpace=wrap;rounded=0;" parent="tP0SpdOw3gQdtKeM86X0-24" vertex="1">
          <mxGeometry x="403" y="41" width="91" height="30" as="geometry" />
        </mxCell>
        <mxCell id="wUW49xOCrfoHEJadxzmI-119" value="&lt;font style=&quot;font-size: 18px;&quot;&gt;服务发现&lt;/font&gt;" style="text;html=1;strokeColor=none;fillColor=none;align=center;verticalAlign=middle;whiteSpace=wrap;rounded=0;" parent="tP0SpdOw3gQdtKeM86X0-24" vertex="1">
          <mxGeometry x="408" y="83" width="78" height="30" as="geometry" />
        </mxCell>
        <mxCell id="tP0SpdOw3gQdtKeM86X0-23" value="&lt;font style=&quot;font-size: 18px;&quot;&gt;服务注册&lt;/font&gt;" style="text;html=1;strokeColor=none;fillColor=none;align=center;verticalAlign=middle;whiteSpace=wrap;rounded=0;" vertex="1" parent="tP0SpdOw3gQdtKeM86X0-24">
          <mxGeometry x="229" y="301" width="82" height="30" as="geometry" />
        </mxCell>
        <mxCell id="tP0SpdOw3gQdtKeM86X0-26" value="" style="rounded=0;whiteSpace=wrap;html=1;" vertex="1" parent="1">
          <mxGeometry x="-3489" y="1747" width="101" height="221" as="geometry" />
        </mxCell>
        <mxCell id="tP0SpdOw3gQdtKeM86X0-27" value="&lt;font style=&quot;font-size: 18px;&quot;&gt;对后端访问&lt;/font&gt;" style="text;html=1;strokeColor=none;fillColor=none;align=center;verticalAlign=middle;whiteSpace=wrap;rounded=0;" vertex="1" parent="1">
          <mxGeometry x="-3340" y="1824" width="96" height="30" as="geometry" />
        </mxCell>
        <mxCell id="tP0SpdOw3gQdtKeM86X0-29" value="" style="image;aspect=fixed;perimeter=ellipsePerimeter;html=1;align=center;shadow=0;dashed=0;spacingTop=3;image=img/lib/active_directory/cell_phone.svg;" vertex="1" parent="1">
          <mxGeometry x="-3453" y="1775.49" width="21" height="50" as="geometry" />
        </mxCell>
        <mxCell id="tP0SpdOw3gQdtKeM86X0-30" value="" style="image;points=[];aspect=fixed;html=1;align=center;shadow=0;dashed=0;image=img/lib/allied_telesis/computer_and_terminals/Personal_Computer.svg;" vertex="1" parent="1">
          <mxGeometry x="-3461.3" y="1870" width="45.6" height="61.800000000000004" as="geometry" />
        </mxCell>
        <mxCell id="tP0SpdOw3gQdtKeM86X0-31" value="&lt;font style=&quot;font-size: 18px;&quot;&gt;内网&lt;/font&gt;" style="text;html=1;strokeColor=none;fillColor=none;align=center;verticalAlign=middle;whiteSpace=wrap;rounded=0;" vertex="1" parent="1">
          <mxGeometry x="-3290" y="1479" width="101" height="45" as="geometry" />
        </mxCell>
        <mxCell id="tP0SpdOw3gQdtKeM86X0-32" value="&lt;font style=&quot;font-size: 18px;&quot;&gt;外网&lt;/font&gt;" style="text;html=1;strokeColor=none;fillColor=none;align=center;verticalAlign=middle;whiteSpace=wrap;rounded=0;" vertex="1" parent="1">
          <mxGeometry x="-3435" y="1486.5" width="60" height="30" as="geometry" />
        </mxCell>
        <mxCell id="tP0SpdOw3gQdtKeM86X0-33" value="&lt;font style=&quot;font-size: 18px;&quot;&gt;手机端&lt;/font&gt;" style="text;html=1;strokeColor=none;fillColor=none;align=center;verticalAlign=middle;whiteSpace=wrap;rounded=0;" vertex="1" parent="1">
          <mxGeometry x="-3475.7" y="1824" width="60" height="30" as="geometry" />
        </mxCell>
        <mxCell id="tP0SpdOw3gQdtKeM86X0-34" value="&lt;font style=&quot;font-size: 18px;&quot;&gt;PC端&lt;/font&gt;" style="text;html=1;strokeColor=none;fillColor=none;align=center;verticalAlign=middle;whiteSpace=wrap;rounded=0;" vertex="1" parent="1">
          <mxGeometry x="-3472.5" y="1929" width="60" height="30" as="geometry" />
        </mxCell>
      </root>
    </mxGraphModel>
  </diagram>
</mxfile>
